<svg width="405" height="648" viewBox="0 0 405 648" fill="none" xmlns="http://www.w3.org/2000/svg">
<path d="M15.2033 646.947C16.0687 647.634 17.3267 647.489 18.0131 646.623L29.199 632.521C29.8854 631.656 29.7403 630.398 28.8749 629.711C28.0095 629.025 26.7515 629.17 26.0651 630.035L16.1221 642.571L3.58671 632.628C2.72133 631.941 1.46334 632.086 0.776911 632.952C0.0904931 633.817 0.235582 635.075 1.10097 635.762L15.2033 646.947ZM352.193 401.306L351.274 403.083L352.193 401.306ZM18.433 645.151C18.2929 643.936 18.1746 642.68 18.0784 641.385L14.0894 641.681C14.1894 643.027 14.3127 644.338 14.4594 645.61L18.433 645.151ZM17.7709 633.517C17.7523 630.978 17.804 628.329 17.9268 625.579L13.9308 625.401C13.8051 628.215 13.7519 630.933 13.771 633.546L17.7709 633.517ZM18.4514 617.692C18.6729 615.151 18.9484 612.543 19.2783 609.873L15.3085 609.382C14.9729 612.098 14.6923 614.754 14.4665 617.344L18.4514 617.692ZM20.3829 601.996C20.7847 599.426 21.2333 596.809 21.7289 594.149L17.7966 593.416C17.2941 596.113 16.8389 598.769 16.4309 601.378L20.3829 601.996ZM23.2779 586.416C23.8272 583.85 24.4179 581.252 25.0505 578.624L21.1616 577.688C20.5212 580.348 19.9229 582.98 19.3666 585.579L23.2779 586.416ZM26.9931 570.962C27.6673 568.429 28.379 565.874 29.1284 563.3L25.2878 562.182C24.5299 564.785 23.8099 567.37 23.1277 569.933L26.9931 570.962ZM31.4383 555.689C32.2273 553.191 33.0511 550.678 33.9098 548.155L30.1231 546.866C29.2549 549.418 28.4219 551.958 27.624 554.485L31.4383 555.689ZM36.5618 540.634C37.4607 538.171 38.3924 535.701 39.3571 533.226L35.6302 531.773C34.6549 534.275 33.713 536.772 32.8043 539.262L36.5618 540.634ZM42.3367 525.823C43.3435 523.399 44.3818 520.973 45.4519 518.548L41.7923 516.933C40.7103 519.385 39.6605 521.838 38.6427 524.289L42.3367 525.823ZM48.7527 511.287C49.8675 508.906 51.0131 506.528 52.1896 504.155L48.6061 502.378C47.4161 504.778 46.2575 507.183 45.1301 509.591L48.7527 511.287ZM55.8101 497.061C57.0349 494.729 58.29 492.404 59.5755 490.09L56.0787 488.147C54.7778 490.49 53.5078 492.842 52.2686 495.202L55.8101 497.061ZM63.5217 483.183C64.8584 480.908 66.2252 478.646 67.6221 476.398L64.2248 474.286C62.8101 476.563 61.4262 478.853 60.073 481.156L63.5217 483.183ZM71.9024 469.704C73.3539 467.497 74.8353 465.307 76.3469 463.137L73.0645 460.851C71.5324 463.051 70.0311 465.27 68.5605 467.506L71.9024 469.704ZM80.9716 456.687C82.5411 454.56 84.1406 452.455 85.7704 450.374L82.6212 447.908C80.9675 450.02 79.3449 452.155 77.7533 454.311L80.9716 456.687ZM90.7503 444.204C92.441 442.172 94.162 440.167 95.9134 438.189L92.9189 435.537C91.1397 437.546 89.392 439.583 87.6755 441.646L90.7503 444.204ZM101.259 432.343C103.073 430.422 104.918 428.531 106.794 426.674L103.979 423.832C102.071 425.721 100.195 427.644 98.3508 429.597L101.259 432.343ZM112.513 421.201C114.452 419.409 116.422 417.653 118.423 415.934L115.816 412.9C113.778 414.651 111.772 416.44 109.798 418.263L112.513 421.201ZM124.518 410.891C126.581 409.249 128.675 407.647 130.8 406.087L128.432 402.862C126.265 404.454 124.13 406.088 122.027 407.761L124.518 410.891ZM137.267 401.534C139.448 400.064 141.661 398.637 143.905 397.257L141.809 393.85C139.517 395.26 137.258 396.716 135.031 398.217L137.267 401.534ZM150.729 393.257C153.021 391.979 155.344 390.75 157.697 389.57L155.904 385.994C153.498 387.2 151.124 388.458 148.782 389.763L150.729 393.257ZM164.851 386.182C167.239 385.117 169.658 384.102 172.107 383.141L170.646 379.417C168.139 380.401 165.664 381.439 163.221 382.529L164.851 386.182ZM179.546 380.418C182.014 379.579 184.512 378.794 187.04 378.063L185.93 374.221C183.342 374.968 180.785 375.772 178.259 376.631L179.546 380.418ZM194.706 376.043C197.235 375.439 199.793 374.89 202.38 374.397L201.632 370.468C198.984 370.972 196.366 371.534 193.777 372.152L194.706 376.043ZM210.199 373.096C212.771 372.729 215.371 372.417 217.999 372.162L217.613 368.181C214.925 368.441 212.265 368.76 209.633 369.136L210.199 373.096ZM225.891 371.574C228.493 371.438 231.121 371.358 233.776 371.335L233.74 367.335C231.028 367.359 228.342 367.441 225.682 367.58L225.891 371.574ZM241.656 371.432C244.281 371.519 246.931 371.661 249.606 371.86L249.903 367.871C247.174 367.668 244.469 367.523 241.789 367.434L241.656 371.432ZM257.396 372.592C260.015 372.89 262.658 373.241 265.325 373.647L265.927 369.693C263.211 369.279 260.518 368.921 257.847 368.618L257.396 372.592ZM273.043 374.965C275.607 375.45 278.192 375.985 280.798 376.572L281.677 372.67C279.026 372.073 276.396 371.528 273.786 371.035L273.043 374.965ZM288.567 378.458C291.056 379.106 293.565 379.801 296.092 380.543L297.219 376.705C294.653 375.952 292.104 375.246 289.574 374.587L288.567 378.458ZM303.73 382.913C306.21 383.723 308.707 384.579 311.222 385.48L312.572 381.715C310.022 380.801 307.489 379.933 304.972 379.111L303.73 382.913ZM318.577 388.23C321.045 389.19 323.53 390.194 326.032 391.243L327.578 387.554C325.045 386.492 322.528 385.475 320.027 384.502L318.577 388.23ZM333.273 394.384C335.637 395.444 338.015 396.543 340.408 397.682L342.127 394.07C339.707 392.918 337.301 391.806 334.909 390.734L333.273 394.384ZM347.63 401.221C348.841 401.831 350.055 402.452 351.274 403.083L353.113 399.53C351.882 398.893 350.654 398.266 349.43 397.649L347.63 401.221ZM351.274 403.083C352.486 403.71 353.694 404.329 354.9 404.941L356.71 401.374C355.514 400.768 354.315 400.153 353.113 399.53L351.274 403.083ZM362.093 408.519C364.478 409.681 366.851 410.812 369.21 411.912L370.9 408.286C368.562 407.196 366.21 406.075 363.845 404.923L362.093 408.519ZM376.422 415.196C378.898 416.297 381.359 417.362 383.806 418.394L385.36 414.708C382.937 413.687 380.499 412.631 378.047 411.541L376.422 415.196ZM391.104 421.386C393.593 422.378 396.067 423.333 398.525 424.252L399.926 420.506C397.494 419.597 395.047 418.652 392.584 417.67L391.104 421.386ZM406.078 426.98C408.579 427.851 411.065 428.685 413.534 429.48L414.76 425.673C412.322 424.887 409.866 424.064 407.393 423.203L406.078 426.98ZM421.211 431.846C423.792 432.606 426.355 433.323 428.9 433.998L429.926 430.132C427.416 429.466 424.888 428.758 422.34 428.009L421.211 431.846ZM436.537 435.911C439.19 436.536 441.822 437.113 444.434 437.645L445.232 433.725C442.66 433.202 440.068 432.633 437.454 432.017L436.537 435.911ZM452.211 439.1C454.877 439.555 457.521 439.96 460.143 440.316L460.681 436.353C458.104 436.003 455.505 435.605 452.884 435.157L452.211 439.1ZM468.077 441.25C470.743 441.514 473.387 441.727 476.007 441.887L476.251 437.894C473.682 437.737 471.089 437.529 468.472 437.269L468.077 441.25ZM484.043 442.217C486.71 442.272 489.353 442.271 491.971 442.215L491.886 438.216C489.324 438.271 486.738 438.272 484.125 438.218L484.043 442.217ZM500.035 441.864C502.697 441.687 505.331 441.452 507.939 441.158L507.491 437.183C504.945 437.47 502.372 437.7 499.771 437.873L500.035 441.864ZM515.94 440.059C518.579 439.63 521.19 439.139 523.772 438.586L522.934 434.674C520.418 435.213 517.873 435.692 515.298 436.11L515.94 440.059ZM531.602 436.697C534.187 436.001 536.741 435.242 539.264 434.419L538.024 430.616C535.567 431.417 533.08 432.157 530.563 432.834L531.602 436.697ZM546.838 431.723C549.334 430.758 551.799 429.728 554.232 428.634L552.592 424.986C550.224 426.051 547.825 427.053 545.396 427.992L546.838 431.723ZM561.459 425.15C563.836 423.924 566.182 422.634 568.496 421.281L566.476 417.828C564.223 419.146 561.939 420.402 559.625 421.595L561.459 425.15ZM575.295 417.063C577.529 415.595 579.732 414.066 581.903 412.476L579.54 409.249C577.423 410.799 575.276 412.29 573.099 413.72L575.295 417.063ZM588.222 407.604C590.296 405.922 592.34 404.182 594.353 402.385L591.689 399.401C589.723 401.157 587.727 402.856 585.703 404.496L588.222 407.604ZM600.169 396.95C602.074 395.087 603.951 393.17 605.799 391.199L602.881 388.463C601.072 390.392 599.236 392.268 597.372 394.089L600.169 396.95ZM611.115 385.288C612.852 383.277 614.561 381.216 616.243 379.106L613.115 376.612C611.465 378.683 609.789 380.703 608.088 382.674L611.115 385.288ZM621.086 372.792C622.657 370.664 624.203 368.491 625.724 366.273L622.425 364.011C620.93 366.192 619.411 368.327 617.868 370.416L621.086 372.792ZM630.13 359.612C631.544 357.396 632.936 355.139 634.304 352.84L630.867 350.794C629.519 353.057 628.15 355.28 626.758 357.46L630.13 359.612ZM638.314 345.87C639.582 343.589 640.83 341.271 642.056 338.916L638.508 337.069C637.298 339.392 636.068 341.678 634.818 343.926L638.314 345.87ZM645.671 331.74C646.817 329.387 647.944 327.001 649.052 324.58L645.414 322.916C644.32 325.308 643.207 327.665 642.075 329.987L645.671 331.74ZM652.279 317.301C653.325 314.864 654.353 312.396 655.362 309.895L651.653 308.398C650.655 310.872 649.638 313.314 648.604 315.722L652.279 317.301ZM658.235 302.555C659.175 300.078 660.097 297.572 661.002 295.037L657.235 293.692C656.339 296.203 655.425 298.684 654.495 301.135L658.235 302.555ZM663.6 287.535C664.433 285.052 665.251 282.543 666.053 280.007L662.239 278.801C661.444 281.315 660.634 283.802 659.808 286.261L663.6 287.535ZM668.411 272.319C669.154 269.82 669.882 267.297 670.596 264.749L666.744 263.67C666.036 266.198 665.314 268.701 664.577 271.178L668.411 272.319ZM672.676 257.089C673.355 254.512 674.02 251.911 674.67 249.286L670.787 248.325C670.142 250.931 669.482 253.512 668.808 256.07L672.676 257.089ZM676.502 241.657C677.098 239.096 677.681 236.514 678.251 233.91L674.343 233.056C673.777 235.642 673.198 238.207 672.606 240.75L676.502 241.657ZM679.919 226.035C680.441 223.49 680.951 220.926 681.448 218.343L677.52 217.587C677.026 220.155 676.519 222.703 676.001 225.231L679.919 226.035ZM682.9 210.544C683.372 207.925 683.832 205.287 684.279 202.629L680.334 201.966C679.89 204.608 679.433 207.231 678.964 209.835L682.9 210.544ZM685.542 194.864C685.95 192.273 686.345 189.665 686.73 187.04L682.772 186.46C682.39 189.072 681.996 191.666 681.591 194.243L685.542 194.864ZM687.849 179.111C688.203 176.511 688.546 173.893 688.878 171.259L684.91 170.759C684.579 173.38 684.238 175.985 683.886 178.572L687.849 179.111ZM689.828 163.431C690.134 160.806 690.429 158.164 690.715 155.507L686.737 155.08C686.454 157.725 686.159 160.355 685.855 162.968L689.828 163.431ZM691.532 147.555C691.787 144.964 692.032 142.358 692.267 139.737L688.284 139.38C688.049 141.989 687.805 144.584 687.551 147.164L691.532 147.555ZM692.945 131.833C693.161 129.184 693.367 126.52 693.564 123.842L689.574 123.55C689.379 126.217 689.173 128.869 688.958 131.508L692.945 131.833ZM694.111 115.972C694.282 113.361 694.445 110.736 694.599 108.098L690.605 107.865C690.452 110.493 690.29 113.108 690.12 115.71L694.111 115.972ZM695.032 100.144C695.167 97.4901 695.293 94.8229 695.41 92.1429L691.414 91.9683C691.297 94.6389 691.172 97.2966 691.037 99.9413L695.032 100.144ZM695.726 84.3057C695.822 81.6813 695.911 79.0449 695.991 76.3966L691.993 76.276C691.913 78.9154 691.825 81.5429 691.728 84.1583L695.726 84.3057ZM696.205 68.4163C696.268 65.7754 696.322 63.1229 696.368 60.459L692.368 60.39C692.323 63.0455 692.269 65.6895 692.206 68.3218L696.205 68.4163ZM696.479 52.5988C696.509 49.9678 696.53 47.3258 696.543 44.6731L692.544 44.6527C692.53 47.2975 692.509 49.9313 692.48 52.5542L696.479 52.5988ZM696.56 36.6825C696.558 34.0486 696.549 31.4042 696.531 28.7494L692.531 28.7756C692.549 31.4228 692.558 34.0595 692.561 36.6858L696.56 36.6825ZM696.458 20.8809C696.426 18.248 696.387 15.6052 696.34 12.9525L692.341 13.0228C692.387 15.6682 692.426 18.3038 692.458 20.9293L696.458 20.8809ZM696.178 4.9647C696.147 3.62852 696.115 2.28988 696.08 0.948794L692.082 1.05126C692.116 2.38881 692.148 3.72389 692.179 5.05651L696.178 4.9647Z" fill="#214F6F"/>
</svg>
