<svg width="24" height="24" viewBox="0 0 24 24" fill="none" xmlns="http://www.w3.org/2000/svg">
<g clip-path="url(#clip0_752_754)">
<path d="M5.26582 9.765C5.7337 8.34945 6.63668 7.11781 7.84593 6.2458C9.05519 5.37378 10.5089 4.90594 11.9998 4.909C13.6898 4.909 15.2178 5.509 16.4178 6.491L19.9098 3C17.7818 1.145 15.0548 0 11.9998 0C7.26982 0 3.19782 2.698 1.23982 6.65L5.26582 9.765ZM16.0398 18.013C14.9498 18.716 13.5658 19.091 11.9998 19.091C10.5149 19.094 9.06662 18.6299 7.86005 17.7644C6.65349 16.8988 5.74976 15.6756 5.27682 14.268L1.23682 17.335C2.22806 19.3413 3.76208 21.0294 5.66464 22.2076C7.56719 23.3857 9.76202 24.0067 11.9998 24C14.9328 24 17.7348 22.957 19.8338 21L16.0398 18.013Z" fill="#333333" fill-opacity="0.7"/>
<path d="M19.8341 21C22.0291 18.952 23.4541 15.904 23.4541 12C23.4541 11.29 23.3451 10.527 23.1821 9.81799H12.0001V14.455H18.4361C18.1191 16.014 17.2661 17.221 16.0411 18.013L19.8341 21ZM5.27712 14.268C5.03247 13.5369 4.90819 12.7709 4.90912 12C4.90912 11.218 5.03412 10.467 5.26612 9.76499L1.24012 6.64999C0.416494 8.31268 -0.00807994 10.1445 0.000116455 12C0.000116455 13.92 0.445116 15.73 1.23712 17.335L5.27712 14.268Z" fill="#333333" fill-opacity="0.7"/>
</g>
<defs>
<clipPath id="clip0_752_754">
<rect width="24" height="24" fill="white"/>
</clipPath>
</defs>
</svg>
