<svg width="15" height="15" viewBox="0 0 15 15" fill="none" xmlns="http://www.w3.org/2000/svg">
<g clip-path="url(#clip0_752_679)">
<path d="M12.7898 5.9C13.1698 6.24 13.4898 6.57 13.7298 6.83C13.8957 7.01375 13.9875 7.25248 13.9875 7.5C13.9875 7.74752 13.8957 7.98625 13.7298 8.17C12.6798 9.3 10.2898 11.5 7.49985 11.5H7.09985M4.36985 10.63C3.21148 9.98125 2.16482 9.15067 1.26985 8.17C1.10401 7.98625 1.01221 7.74752 1.01221 7.5C1.01221 7.25248 1.10401 7.01375 1.26985 6.83C2.31985 5.7 4.70985 3.5 7.49985 3.5C8.59962 3.52299 9.67596 3.82216 10.6298 4.37M12.9998 2L1.99985 13" stroke="black" stroke-linecap="round" stroke-linejoin="round"/>
</g>
<defs>
<clipPath id="clip0_752_679">
<rect width="14" height="14" fill="white" transform="translate(0.5 0.5)"/>
</clipPath>
</defs>
</svg>
