<svg width="400" height="400" viewBox="0 0 400 400" fill="none" xmlns="http://www.w3.org/2000/svg">
<path d="M360.271 249.662C337.049 313.804 314.928 310.487 314.928 310.487L166.626 309.79L79.3608 309.381C79.3608 309.381 21.8536 331.501 25.1712 278.418C26.1312 263.073 34.112 249.761 44.7656 236.985C45.1656 236.505 45.5704 236.025 45.98 235.545C54.968 224.986 65.6824 214.761 75.6344 204.009C94.7576 183.356 111.086 160.773 107.011 130.22C98.1648 63.8614 216.501 25.1534 255.209 109.205C293.917 193.256 383.498 185.515 360.271 249.662Z" fill="#EEF5FF"/>
<path d="M200.095 342.092C296.674 342.092 374.967 332.834 374.967 321.414C374.967 309.995 296.674 300.737 200.095 300.737C103.517 300.737 25.2241 309.995 25.2241 321.414C25.2241 332.834 103.517 342.092 200.095 342.092Z" fill="#CEDDEF"/>
<path d="M148.028 282.578H38.4536C37.044 282.578 35.9016 281.436 35.9016 280.026V215.062C35.9016 213.653 37.044 212.51 38.4536 212.51H148.029C149.438 212.51 150.581 213.653 150.581 215.062V280.026C150.58 281.436 149.438 282.578 148.028 282.578Z" fill="white"/>
<path d="M150.58 219.714H35.9016V215.063C35.9016 213.654 37.044 212.511 38.4536 212.511H148.029C149.438 212.511 150.581 213.654 150.581 215.063L150.58 219.714Z" fill="#214F6F"/>
<path d="M83.6648 236.956L83.668 237.71L83.6792 250.461C83.6792 250.637 83.8216 250.778 83.9968 250.777L99.0024 250.716V238.181C99.0024 237.888 98.7632 237.649 98.4696 237.651L93.3016 237.673L87.4128 237.697L87.1896 237.283L86.904 236.754C86.84 236.634 86.7128 236.557 86.5728 236.558L84.0488 236.568C83.8352 236.569 83.6648 236.741 83.6648 236.956Z" fill="#214F6F"/>
<path d="M101.035 239.523H85.0998L83.9958 250.301H99.931L101.035 239.523Z" fill="white"/>
<path d="M84.2055 250.962L100.368 251.028C100.585 251.029 100.758 250.891 100.802 250.686L102.382 242.921L102.75 241.117C102.818 240.793 102.532 240.456 102.19 240.455L101.801 240.453L86.0271 240.389C85.8111 240.389 85.6367 240.526 85.5951 240.732L83.7535 249.773L83.7063 250.004L83.6463 250.301C83.5783 250.625 83.8631 250.961 84.2055 250.962Z" fill="#214F6F"/>
<path d="M115.378 236.956L115.381 237.71L115.392 250.461C115.392 250.637 115.534 250.778 115.71 250.777L130.715 250.716V238.181C130.715 237.888 130.476 237.649 130.182 237.651L125.014 237.673L119.126 237.697L118.902 237.283L118.617 236.754C118.553 236.634 118.426 236.557 118.286 236.558L115.762 236.568C115.548 236.569 115.378 236.741 115.378 236.956Z" fill="#93BBE5"/>
<path d="M132.748 239.523H116.813L115.709 250.301H131.644L132.748 239.523Z" fill="white"/>
<path d="M115.918 250.962L132.081 251.028C132.298 251.029 132.471 250.891 132.514 250.686L134.095 242.921L134.463 241.117C134.53 240.793 134.245 240.456 133.903 240.455L133.514 240.453L117.74 240.389C117.524 240.389 117.35 240.526 117.308 240.732L115.466 249.773L115.419 250.004L115.359 250.301C115.291 250.625 115.576 250.961 115.918 250.962Z" fill="#93BBE5"/>
<path d="M83.6648 258.877L83.668 259.632L83.6792 272.383C83.6792 272.558 83.8216 272.7 83.9968 272.699L99.0024 272.637V260.103C99.0024 259.809 98.7632 259.571 98.4696 259.573L93.3016 259.594L87.4128 259.618L87.1896 259.205L86.904 258.676C86.84 258.556 86.7128 258.478 86.5728 258.48L84.0488 258.489C83.8352 258.49 83.6648 258.663 83.6648 258.877Z" fill="#F4A623"/>
<path d="M101.035 261.444H85.0998L83.9958 272.222H99.931L101.035 261.444Z" fill="white"/>
<path d="M84.2055 272.884L100.368 272.949C100.585 272.95 100.758 272.813 100.802 272.608L102.382 264.843L102.75 263.038C102.818 262.714 102.532 262.377 102.19 262.377L101.801 262.375L86.0271 262.311C85.8111 262.31 85.6367 262.448 85.5951 262.653L83.7535 271.695L83.7063 271.925L83.6463 272.223C83.5783 272.547 83.8631 272.882 84.2055 272.884Z" fill="#F4A623"/>
<path d="M115.378 258.877L115.381 259.632L115.392 272.383C115.392 272.558 115.534 272.7 115.71 272.699L130.715 272.637V260.103C130.715 259.809 130.476 259.571 130.182 259.573L125.014 259.594L119.126 259.618L118.902 259.205L118.617 258.676C118.553 258.556 118.426 258.478 118.286 258.48L115.762 258.489C115.548 258.49 115.378 258.663 115.378 258.877Z" fill="#93BBE5"/>
<path d="M132.748 261.444H116.813L115.709 272.222H131.644L132.748 261.444Z" fill="white"/>
<path d="M115.918 272.884L132.081 272.949C132.298 272.95 132.471 272.813 132.514 272.608L134.095 264.843L134.463 263.038C134.53 262.714 134.245 262.377 133.903 262.377L133.514 262.375L117.74 262.311C117.524 262.31 117.35 262.448 117.308 262.653L115.466 271.695L115.419 271.925L115.359 272.223C115.291 272.547 115.576 272.882 115.918 272.884Z" fill="#93BBE5"/>
<path d="M66.3224 229.424H44.332C43.5376 229.424 42.8928 228.78 42.8928 227.985C42.8928 227.19 43.5368 226.545 44.332 226.545H66.3224C67.1168 226.545 67.7616 227.189 67.7616 227.985C67.7616 228.779 67.1168 229.424 66.3224 229.424Z" fill="#93BBE5"/>
<path d="M66.3224 239.736H44.332C43.5376 239.736 42.8928 239.092 42.8928 238.297C42.8928 237.502 43.5368 236.857 44.332 236.857H66.3224C67.1168 236.857 67.7616 237.501 67.7616 238.297C67.7616 239.092 67.1168 239.736 66.3224 239.736Z" fill="#93BBE5"/>
<path d="M66.3224 250.049H44.332C43.5376 250.049 42.8928 249.405 42.8928 248.609C42.8928 247.815 43.5368 247.17 44.332 247.17H66.3224C67.1168 247.17 67.7616 247.814 67.7616 248.609C67.7616 249.405 67.1168 250.049 66.3224 250.049Z" fill="#93BBE5"/>
<path d="M66.3224 260.361H44.332C43.5376 260.361 42.8928 259.717 42.8928 258.922C42.8928 258.128 43.5368 257.483 44.332 257.483H66.3224C67.1168 257.483 67.7616 258.127 67.7616 258.922C67.7616 259.717 67.1168 260.361 66.3224 260.361Z" fill="#93BBE5"/>
<path d="M66.3224 270.673H44.332C43.5376 270.673 42.8928 270.029 42.8928 269.234C42.8928 268.44 43.5368 267.795 44.332 267.795H66.3224C67.1168 267.795 67.7616 268.439 67.7616 269.234C67.7616 270.029 67.1168 270.673 66.3224 270.673Z" fill="#93BBE5"/>
<path d="M136.079 229.424H78.4409C77.6465 229.424 77.0017 228.78 77.0017 227.985C77.0017 227.19 77.6457 226.545 78.4409 226.545H136.08C136.875 226.545 137.519 227.189 137.519 227.985C137.519 228.779 136.874 229.424 136.079 229.424Z" fill="#93BBE5"/>
<path d="M45.8025 209.689L39.7985 203.649L27.9713 203.617L27.8945 229.361L45.7481 229.404L45.8025 209.689Z" fill="#93BBE5"/>
<path d="M39.78 209.67L45.8048 209.686L39.7968 203.645L39.78 209.67Z" fill="white"/>
<path d="M41.3461 218.369C41.8896 215.868 40.3022 213.399 37.8006 212.856C35.299 212.312 32.8305 213.9 32.287 216.401C31.7436 218.903 33.3309 221.371 35.8325 221.915C38.3341 222.458 40.8026 220.871 41.3461 218.369Z" fill="#F4A623"/>
<path d="M35.5554 219.234L34.769 217.417C34.7018 217.261 34.773 217.08 34.929 217.012C35.085 216.945 35.2658 217.016 35.3338 217.172L35.8322 218.325L39.3778 216.049C39.521 215.957 39.7114 215.998 39.8026 216.141C39.8946 216.285 39.853 216.475 39.7098 216.566L35.5554 219.234Z" fill="white"/>
<path fill-rule="evenodd" clip-rule="evenodd" d="M83.9194 131.147L86.8778 128.456L87.5754 126.04C90.0434 118.43 94.9066 111.7 101.364 106.97L102.945 105.873L99.9866 108.564L98.4058 109.662C91.1106 115.005 86.205 122.445 83.9194 131.147ZM151.007 115.934L153.966 113.242L154.255 96.6431L151.295 99.3343L151.007 115.934ZM168.727 93.5735C167.127 92.0519 165.688 90.6759 163.962 89.2695C142.617 71.8863 111.504 70.0959 89.237 86.5807C91.0954 85.5479 92.7706 84.6103 94.7162 83.7119C117.507 73.1807 144.77 77.1951 163.429 94.0407L165.769 96.2639L167.373 97.8679L170.331 95.1767L168.727 93.5735Z" fill="#5C93BC"/>
<path fill-rule="evenodd" clip-rule="evenodd" d="M146.84 169.691L149.799 167C145.847 170.443 141.571 172.953 136.592 174.617L136.062 174.789L133.103 177.481C138.373 175.76 142.659 173.333 146.84 169.691ZM241.17 110.313L244.129 107.621L246.071 92.8191L228.883 88.6343L225.924 91.3255L243.112 95.5103L241.17 110.313Z" fill="#FF7200"/>
<path fill-rule="evenodd" clip-rule="evenodd" d="M225.924 91.3255L228.883 88.6343L228.703 88.7767L228.523 88.9207L228.343 89.0647L228.164 89.2095L227.985 89.3551L227.807 89.5015L227.629 89.6487L227.451 89.7967L227.275 89.9455L227.098 90.0951L226.922 90.2447L223.963 92.9359L224.139 92.7855L224.315 92.6367L224.493 92.4879L224.671 92.3399L224.848 92.1927L225.027 92.0463L225.206 91.9007L225.384 91.7559L225.564 91.6111L225.744 91.4679L225.924 91.3255Z" fill="#5C93BC"/>
<path fill-rule="evenodd" clip-rule="evenodd" d="M241.11 165.947L226.126 167.315L223.167 170.006L238.151 168.639C240.212 170.518 241.798 171.855 244.182 173.362C260.867 183.912 283.282 180.151 295.442 164.37L295.863 163.814L298.821 161.123C292.632 169.309 283.881 174.647 273.697 176.186C262.555 177.869 251.075 174.65 242.546 167.257L241.11 165.947ZM316.998 176.09C322.827 170.789 325.887 163.465 328.139 156.021L313.612 161.763L305.495 146.352L302.536 149.043L310.654 164.454L325.182 158.711L324.312 161.438C322.467 166.792 320.129 171.382 316.998 176.09Z" fill="#5C93BC"/>
<path fill-rule="evenodd" clip-rule="evenodd" d="M326.275 154.449L329.234 151.758L329.953 147.929C333.984 122.136 321.847 96.4096 299.08 83.4416C279.263 72.1544 254.428 72.5176 234.963 84.4064L232.644 85.8936L229.686 88.5848C232.172 86.9896 234.116 85.7824 236.788 84.4568C259.944 72.9704 288.195 76.8024 307.338 94.2976C323.472 109.042 330.695 131.088 326.665 152.539L326.275 154.449Z" fill="#236CD8"/>
<path fill-rule="evenodd" clip-rule="evenodd" d="M234.873 165.371L237.832 162.68L213.097 137.966L210.284 140.778L234.873 165.371ZM219.367 184.296L222.325 181.605L222.631 164.067L219.671 166.758L219.367 184.296ZM173.599 98.4448L157.75 99.8912L154.791 102.582L170.64 101.136L193.067 123.562L195.892 120.738L173.599 98.4448Z" fill="#5C93BC"/>
<path fill-rule="evenodd" clip-rule="evenodd" d="M144.223 199.363L147.182 196.672L149.61 182.325L128.613 176.376C121.672 177.063 115.154 176.212 108.727 173.425C93.1377 166.667 84.0313 150.527 85.9225 133.702L86.0609 132.609L72.4569 137.987L63.6145 121.201L60.6553 123.892L69.4977 140.678L83.1017 135.301C82.9793 135.537 82.7481 139.129 82.7329 139.687C82.0897 162.857 101.53 181.141 124.592 179.173L125.654 179.068L146.651 185.017L144.223 199.363Z" fill="#236CD8"/>
<path fill-rule="evenodd" clip-rule="evenodd" d="M93.9537 113.48C108.935 98.4992 133.572 98.4992 148.553 113.48L151.007 115.934L151.295 99.3352L167.371 97.868L165.767 96.264C141.284 71.7808 101.22 71.7808 76.7369 96.264C70.0609 102.941 65.2041 110.776 62.1689 119.138L71.1529 136.194L83.9177 131.148C85.5681 124.655 88.9129 118.521 93.9537 113.48Z" fill="#71A3D1"/>
<path fill-rule="evenodd" clip-rule="evenodd" d="M93.9538 168.08C85.0786 159.205 81.461 146.94 83.1018 135.302L69.4978 140.679L60.6554 123.893C54.8218 145.062 60.1834 168.74 76.7378 185.294C94.8994 203.456 121.635 208.146 144.223 199.363L146.652 185.017L125.655 179.068C114.341 180.344 102.556 176.681 93.9538 168.08Z" fill="#214F6F"/>
<path fill-rule="evenodd" clip-rule="evenodd" d="M193.068 157.997L219.367 184.296L219.672 166.758L234.873 165.371L210.283 140.778L193.068 157.997Z" fill="#71A3D1"/>
<path fill-rule="evenodd" clip-rule="evenodd" d="M193.067 123.563L170.64 101.136L154.791 102.582L154.498 119.425L175.852 140.782L193.067 123.563Z" fill="#71A3D1"/>
<path fill-rule="evenodd" clip-rule="evenodd" d="M245.105 107.634C259.909 98.8536 279.503 100.802 292.181 113.48C300.223 121.522 303.948 132.348 303.355 142.969L312.311 159.969L326.276 154.449C330.744 134.13 325.118 111.986 309.396 96.2648C287.818 74.6864 254.136 72.1264 229.686 88.5848L247.049 92.8128L245.105 107.634Z" fill="#214F6F"/>
<path fill-rule="evenodd" clip-rule="evenodd" d="M292.18 168.08C277.388 182.872 253.181 183.058 238.151 168.638L223.167 170.006L222.859 187.657C247.497 209.751 285.727 208.964 309.395 185.295C317.051 177.64 322.313 168.462 325.181 158.712L310.653 164.454L302.535 149.044C301.026 156.04 297.575 162.686 292.18 168.08Z" fill="#71A3D1"/>
<path fill-rule="evenodd" clip-rule="evenodd" d="M165.769 185.295L193.068 157.997L210.283 140.778L237.582 113.48C238.724 112.338 239.923 111.282 241.171 110.313L243.113 95.5103L225.925 91.3247C223.998 92.8423 222.141 94.4887 220.367 96.2639L193.068 123.562L175.852 140.781L148.553 168.08C144.09 172.543 138.77 175.677 133.103 177.481L150.692 182.464L148.114 197.698C154.513 194.696 160.501 190.562 165.769 185.295Z" fill="#FFA000"/>
<path d="M186.138 336.233C228.291 336.233 262.463 332.121 262.463 327.048C262.463 321.975 228.291 317.862 186.138 317.862C143.984 317.862 109.812 321.975 109.812 327.048C109.812 332.121 143.984 336.233 186.138 336.233Z" fill="#BCCDDD"/>
<path d="M190.445 283.051L202.926 294.341L213.073 287.072L219.218 294.341C231.78 291.149 240.722 287.15 247.991 282.78L240.054 277.898L213.808 274.986L190.445 283.051Z" fill="white"/>
<path d="M173.397 241.433C178.488 241.909 183.579 242.385 188.671 242.861L192.902 227.185L193.662 253.841L191.091 282.029C192.405 291.813 247.333 288.282 247.99 282.78C249.25 272.227 247.951 263.654 247.99 260.274C251.607 259.921 260.836 257.108 260.561 249.703C259.968 233.751 255.815 201.809 245.043 195.343C239.732 192.29 227.869 189.585 227.869 189.585L208.543 189.456C203.286 190.198 195.04 192.272 189.561 198.974C186.698 202.477 185.667 205.926 184.982 208.163C182.587 215.983 179.035 226.601 173.397 241.433Z" fill="#F4A623"/>
<path d="M215.869 200.281L211.435 205.844C207.147 200.607 206.983 194.829 207 190.128L208.903 186.967L209.286 189.556C210.429 194.128 215.869 200.281 215.869 200.281Z" fill="white"/>
<path d="M247.99 260.274L216.467 263.577L207.363 268.349L248.382 267.44L247.99 260.274Z" fill="#F4A623"/>
<path d="M202.179 251.784C204.229 251.114 205.654 253.174 207.363 252.733C209.071 252.29 211.836 251.327 212.812 251.784C214.545 252.594 215.772 261.288 212.812 262.433C209.853 263.577 201.522 263.769 201.522 263.769C201.522 263.769 196.863 260.695 197.148 260.274C197.432 259.853 202.179 251.784 202.179 251.784Z" fill="#A36D4F"/>
<path d="M217.647 200.002L222.082 205.565C226.37 200.328 226.533 194.55 226.516 189.849L224.614 186.689L224.231 189.278C223.087 193.85 217.647 200.002 217.647 200.002Z" fill="white"/>
<path d="M236.999 212.865V240.683L212.812 251.784C212.812 251.784 218.282 266.389 213.807 274.985" stroke="#D17E11" stroke-width="1.5353" stroke-miterlimit="10"/>
<path d="M206.121 167.656C206.121 167.656 202.971 164.829 204.214 163.093C213.351 150.333 237.336 159.999 223.728 180.281C218.774 185.789 209.541 169.277 206.121 167.656Z" fill="#363435"/>
<path d="M206.031 164.765C206.031 164.765 205.134 174.901 206.082 179.045C206.964 182.897 209.711 185.069 210.685 185.201L209.279 193.443C209.279 193.443 215.32 199.171 216.982 199.487C218.645 199.803 224.065 192.309 224.065 192.309L223.134 177.705C223.764 177.272 228.239 176.375 227.558 172.972C227.104 170.697 224.21 171.25 222.794 172.221C222.882 171.065 221.37 170.434 220.709 166.673C220.047 162.909 211.966 164.769 206.031 164.765Z" fill="#A66534"/>
<path d="M210.685 185.201C210.685 185.201 218.326 188.139 222.454 180.547C222.454 180.547 221.525 189.873 210.213 187.81L210.685 185.201Z" fill="#965B2F"/>
<path d="M223.519 175.159C223.418 175.159 223.321 175.098 223.28 174.998C223.226 174.866 223.289 174.715 223.421 174.662L226.325 173.472C226.457 173.418 226.608 173.481 226.662 173.613C226.716 173.745 226.653 173.896 226.521 173.95L223.617 175.139C223.585 175.153 223.552 175.159 223.519 175.159Z" fill="#754725"/>
<path d="M212.378 176.628C211.653 176.628 210.299 176.522 210.183 175.74C210.064 174.926 211.507 171.689 211.799 171.049C211.858 170.919 212.011 170.861 212.141 170.92C212.271 170.979 212.328 171.132 212.27 171.262C211.621 172.692 210.62 175.152 210.695 175.665C210.743 175.987 211.807 176.153 212.731 176.102C212.874 176.094 212.995 176.203 213.003 176.346C213.011 176.489 212.902 176.61 212.759 176.618C212.682 176.622 212.547 176.628 212.378 176.628Z" fill="#754725"/>
<path d="M208.029 172.085C208.011 172.547 208.338 172.934 208.757 172.949C209.176 172.965 209.531 172.603 209.547 172.141C209.565 171.678 209.239 171.291 208.819 171.276C208.4 171.261 208.046 171.622 208.029 172.085Z" fill="#363435"/>
<path d="M217.406 169.575C217.319 169.575 217.233 169.531 217.184 169.45C216.979 169.113 216.713 168.909 216.37 168.829C215.527 168.633 214.544 169.251 214.535 169.257C214.415 169.334 214.255 169.299 214.178 169.178C214.101 169.058 214.136 168.898 214.257 168.821C214.305 168.791 215.437 168.081 216.487 168.325C216.966 168.437 217.349 168.725 217.626 169.181C217.699 169.304 217.661 169.462 217.539 169.537C217.497 169.563 217.451 169.575 217.406 169.575Z" fill="#754725"/>
<path d="M209.762 169.034C209.701 169.034 209.639 169.013 209.591 168.97C209.585 168.965 209.027 168.476 208.49 168.534C208.265 168.558 208.076 168.678 207.912 168.899C207.827 169.014 207.666 169.038 207.551 168.954C207.435 168.869 207.411 168.707 207.496 168.593C207.747 168.252 208.064 168.059 208.437 168.02C209.199 167.939 209.903 168.558 209.933 168.584C210.039 168.678 210.049 168.842 209.955 168.949C209.903 169.006 209.833 169.034 209.762 169.034Z" fill="#754725"/>
<path d="M215.207 178.147C211.394 179.056 209.547 178.312 209.547 178.312C209.547 178.312 209.815 180.869 212.168 181.099C215.536 181.429 215.207 178.147 215.207 178.147Z" fill="#703123"/>
<path d="M209.693 178.361C209.693 178.361 209.87 178.834 209.925 178.93C209.982 179.022 210.41 179.3 212.046 179.403C213.43 179.492 214.787 179.088 215.17 178.962C215.242 178.501 215.206 178.148 215.206 178.148C214.984 178.202 214.767 178.247 214.557 178.29C211.769 178.854 210.168 178.5 209.695 178.361C209.693 178.361 209.693 178.361 209.693 178.361Z" fill="white"/>
<path d="M214.384 172.568C214.367 173.044 214.703 173.443 215.135 173.459C215.567 173.475 215.931 173.102 215.949 172.626C215.967 172.15 215.631 171.751 215.199 171.735C214.767 171.719 214.402 172.092 214.384 172.568Z" fill="#363435"/>
<path d="M156.252 281.942L139.502 238.875C138.02 235.171 140.679 231.111 144.587 231.111H196.77C199.125 231.111 201.218 232.648 201.975 234.932L216.364 278.372L233.167 278.454C234.532 278.461 235.635 280.506 235.635 281.905L217.139 281.686L156.252 281.942Z" fill="#93BBE5"/>
<path d="M181.006 255.837C181.311 258.974 178.747 261.49 175.256 261.581C171.728 261.671 168.37 259.258 167.766 256.064C167.135 252.722 169.745 249.873 173.582 249.844C177.375 249.813 180.687 252.559 181.006 255.837Z" fill="white"/>
<path d="M194.626 310.666L205.187 319.636L193.933 321.227L182.363 315.548L194.626 310.666Z" fill="#153D68"/>
<path d="M126.814 262.982C126.814 262.982 118.811 265.84 118.778 274.814C118.714 292.002 153.51 310.95 153.51 310.95L199.814 280.269L202.716 279.094C202.715 279.096 140.209 255.616 126.814 262.982Z" fill="#153D68"/>
<path d="M161.946 313.401C161.946 313.401 140.139 308.75 133.18 312.117C126.22 315.485 116.003 319.398 119.451 321.91C122.9 324.421 135.627 327.825 142.978 327.16C145.602 326.922 149.294 326.526 152.964 325.954C153.176 325.979 153.372 325.994 153.545 325.994C153.696 325.994 153.827 325.925 153.941 325.797C160.207 324.763 166.128 323.212 166.226 321.064C166.387 317.55 161.946 313.401 161.946 313.401Z" fill="#214F6F"/>
<path d="M149.125 313.038C149.125 313.038 214.546 270.126 217.226 269.233C219.904 268.34 226.378 264.098 232.852 265.884C239.326 267.669 245.13 273.474 248.032 281.957C249.69 286.802 250.474 295.073 250.841 301.273C251.28 308.687 248.985 316.08 244.134 321.705C241.928 324.265 239.206 326.492 235.977 327.497C235.295 327.709 234.589 327.892 233.862 328.049C221.493 330.731 208.782 325.179 201.832 314.601L200.306 312.277C200.306 312.277 157.509 328 156.839 327.777L149.125 313.038Z" fill="#214F6F"/>
<path d="M198.175 315.822C198.175 315.822 178.75 309.116 173.919 310.672C169.087 312.228 177.247 323.786 191.789 324.714C206.331 325.642 213.823 322.215 212.818 317.702C211.813 313.19 198.175 315.822 198.175 315.822Z" fill="#214F6F"/>
<path d="M197.943 318.284C197.943 318.284 178.518 311.578 173.686 313.134C168.854 314.69 177.014 326.248 191.557 327.176C206.1 328.104 213.59 324.678 212.586 320.165C211.581 315.653 197.943 318.284 197.943 318.284Z" fill="#214F6F"/>
<path d="M286.198 322.901C300.966 322.901 312.938 320.086 312.938 316.615C312.938 313.144 300.966 310.329 286.198 310.329C271.431 310.329 259.459 313.144 259.459 316.615C259.459 320.086 271.431 322.901 286.198 322.901Z" fill="#BCCDDD"/>
<path d="M308.616 190.604C308.581 190.345 308.265 190.149 308.022 190.153C302.21 190.247 294.925 190.264 290.002 193.857C285.417 197.204 284.729 203.113 284.832 208.377C284.843 208.941 285.466 209.097 285.821 208.857C285.838 208.864 285.849 208.879 285.865 208.885C298.085 213.455 310.349 203.417 308.616 190.604Z" fill="#307175"/>
<path d="M280.466 214.383C280.513 210.337 279.572 206.245 276.465 203.436C272.902 200.216 267.749 198.378 263.537 196.193C263.109 195.972 262.42 196.352 262.632 196.889C264.537 201.735 264.27 207.657 267.634 211.866C270.494 215.445 275.329 216.653 279.625 215.331C279.842 215.264 279.962 215.116 280.017 214.949C280.258 214.888 280.463 214.704 280.466 214.383Z" fill="#2F7D7F"/>
<path d="M318.039 227.568C315.181 225.352 311.498 225.578 308.038 225.729C304.203 225.896 300.346 226.483 296.85 228.144C290.765 231.038 286.484 237.431 288.686 244.196C288.632 244.481 288.742 244.802 289.095 244.914C294.898 246.751 297.701 242.875 301.194 239.018C305.67 234.074 311.412 230.554 317.767 228.597C318.165 228.476 318.427 227.869 318.039 227.568Z" fill="#2F7D7F"/>
<path d="M331.926 242.022C331.852 241.997 331.778 241.961 331.704 241.924C329.24 240.865 327.035 238.857 324.794 236.923C324.794 236.909 324.781 236.909 324.769 236.897C322.317 234.78 319.817 232.771 316.897 232.242C316.872 232.229 316.848 232.229 316.823 232.229C315.48 231.983 314.051 232.069 312.487 232.586C306.278 234.657 302.461 241.124 301.845 247.344C301.832 247.492 301.882 247.614 301.942 247.701C301.93 247.737 301.918 247.762 301.906 247.799C301.807 248.144 301.992 248.6 302.46 248.661C307.781 249.289 313.004 248.674 318.214 247.576C322.834 246.603 328.057 245.816 332.073 243.143C332.542 242.836 332.418 242.219 331.926 242.022Z" fill="#2F7D7F"/>
<path d="M322.684 253.933C315.892 252.573 301.853 249.114 300.894 259.944C300.864 260.291 301.087 260.476 301.35 260.517C307.516 267.752 319.505 262.012 323.051 254.838C323.216 254.508 323.099 254.017 322.684 253.933Z" fill="#2F7D7F"/>
<path d="M279.63 232.154C277.829 228.165 273.642 224.043 269.522 222.541C269.142 222.403 268.739 222.76 268.742 223.135C268.81 230.994 266.882 243.365 275.43 247.713C275.493 247.744 275.552 247.752 275.611 247.763C275.839 248.104 276.392 248.232 276.651 247.769C279.29 243.053 282.062 237.535 279.63 232.154Z" fill="#307175"/>
<path d="M257.37 237.156C253.192 233.742 246.598 233.001 241.741 235.469C235.005 238.889 236.212 247.006 235.186 253.259C235.086 253.863 235.73 254.283 236.215 253.859C242.874 248.018 252.161 245.725 257.242 238.076L257.243 238.075C257.566 237.883 257.738 237.457 257.37 237.156Z" fill="#2F7D7F"/>
<path d="M257.411 243.344C257.219 243.051 256.905 243.017 256.65 243.121C256.479 242.904 256.191 242.782 255.881 242.951C252.545 244.782 248.632 247.341 247.974 251.377C247.19 256.188 249.894 260.884 250.2 265.624C250.242 266.275 251.274 266.511 251.41 265.789C252.265 261.233 256.986 259.157 258.721 255.061C260.149 251.686 259.395 246.376 257.411 243.344Z" fill="#307175"/>
<path d="M278 271.293C274.079 265.789 270.048 261.084 263.239 259.359C262.746 259.233 262.234 259.799 262.544 260.264C264.077 262.569 264.046 265.183 265.33 267.508C266.09 268.885 267.341 269.913 268.65 270.741C271.553 272.577 275.296 274.241 278.534 272.387C279.191 272.009 278.651 271.033 278 271.293Z" fill="#307175"/>
<path d="M286.84 264.794C286.825 264.736 286.812 264.677 286.774 264.617C284.08 260.316 283.961 254.849 280.241 251.146C279.953 250.86 279.482 250.935 279.274 251.27C277.45 254.191 276.567 257.699 278.016 260.973C279.585 264.516 282.885 265.484 286.476 265.855C287.109 265.92 287.222 265.147 286.84 264.794Z" fill="#2F7D7F"/>
<path d="M294.395 216.714C293.629 216.072 292.603 216.709 291.845 217.033C290.418 217.638 289.024 218.339 287.777 219.267C285.446 221.003 283.846 223.464 283.701 226.368C283.682 226.441 283.678 226.514 283.686 226.592C283.685 226.677 283.67 226.758 283.671 226.844C283.675 227.543 284.634 227.624 284.854 227.086C287.837 226.434 290.195 224.511 292.15 222.207C293.048 221.15 296.19 218.215 294.395 216.714Z" fill="#2F7D7F"/>
<path d="M295.746 265.287C295.653 265.198 295.578 265.098 295.486 265.007C296.253 259.753 296.579 253.666 291.406 250.578C291.069 250.376 290.599 250.562 290.501 250.946C289.079 256.502 290.71 262.213 294.875 266.158C295.451 266.704 296.323 265.834 295.746 265.287Z" fill="#2F7D7F"/>
<path d="M331.396 241.406C329.118 240.397 326.974 238.646 324.794 236.923C324.794 236.909 324.782 236.909 324.77 236.897C322.269 234.916 319.731 232.969 316.898 232.242C316.873 232.229 316.849 232.229 316.824 232.229C315.481 231.983 314.052 232.069 312.488 232.586C306.279 234.657 302.462 241.124 301.846 247.344C301.833 247.492 301.882 247.614 301.943 247.701C301.931 247.737 301.919 247.762 301.906 247.799C302.116 247.787 302.314 247.689 302.436 247.504C302.559 247.479 302.67 247.442 302.769 247.332C304.789 245.175 306.945 243.169 309.063 241.111C310.086 240.125 311.083 238.881 312.242 238.056C314.705 236.294 316.823 236.627 319.41 237.377C322.502 238.277 325.323 239.879 328.132 241.419C329.179 242.009 330.202 243.008 331.396 242.465C331.606 242.379 331.704 242.145 331.704 241.924C331.704 241.701 331.594 241.492 331.396 241.406Z" fill="#307175"/>
<path d="M276.852 262.143C276.265 259.754 275.607 257.334 274.797 254.97C274.805 254.95 274.819 254.936 274.826 254.914C275.933 251.13 276.354 247.282 276.129 243.45C276.334 243.417 276.527 243.294 276.606 243.038C277.318 240.774 277.617 238.465 277.505 236.094C277.467 235.305 276.235 235.3 276.273 236.094C276.351 237.734 276.217 239.337 275.883 240.917C275.635 239.093 275.251 237.278 274.699 235.478C274.467 234.721 273.278 235.045 273.512 235.805C275.25 241.471 275.422 247.238 274.057 252.939C272.905 250.002 271.457 247.197 269.516 244.711C264.953 238.87 256.657 235.322 250.087 238.074C250.071 237.848 249.938 237.639 249.65 237.57C247.103 236.958 244.546 237.342 242.299 238.694C241.621 239.102 242.24 240.167 242.922 239.756C244.75 238.657 246.786 238.286 248.857 238.67C247.337 239.529 245.935 240.761 244.731 242.433C244.266 243.078 245.334 243.693 245.794 243.055C248.942 238.686 254.67 237.31 259.683 238.939C261.142 239.413 262.482 240.102 263.723 240.936C258.473 240.826 254.494 244.342 250.904 247.839C250.335 248.393 251.206 249.264 251.774 248.71C252.489 248.015 253.215 247.318 253.962 246.65C253.758 247.89 253.716 249.142 253.848 250.409C253.93 251.189 255.162 251.198 255.08 250.409C254.91 248.79 255.021 247.21 255.433 245.634C255.455 245.55 255.454 245.474 255.446 245.399C257.984 243.394 260.821 241.934 264.304 242.182C264.629 242.206 264.812 242.01 264.87 241.77C267.665 243.975 269.861 246.97 271.454 250.138C274.623 256.434 276.43 263.633 277.452 270.842C274.904 270.182 272.684 268.853 270.899 266.898C270.364 266.311 269.494 267.184 270.029 267.768C270.927 268.753 271.943 269.589 273.045 270.279C272.334 270.277 271.625 270.242 270.918 270.131C270.144 270.01 269.81 271.197 270.591 271.318C271.772 271.503 272.946 271.571 274.14 271.496C274.396 271.479 274.561 271.334 274.651 271.151C275.559 271.57 276.514 271.903 277.511 272.131C277.554 272.142 277.59 272.133 277.631 272.134C278.082 275.627 278.354 279.11 278.514 282.48C278.552 283.27 279.784 283.274 279.746 282.48C279.422 275.623 278.493 268.814 276.852 262.143Z" fill="#245E5E"/>
<path d="M297.293 236.821C296.183 237.626 295.128 238.482 294.118 239.382C294.71 237.198 295.641 235.17 296.962 233.295C297.418 232.645 296.351 232.029 295.898 232.673C294.287 234.96 293.19 237.497 292.622 240.235C292.584 240.42 292.626 240.576 292.709 240.701C289.966 243.385 287.624 246.433 285.731 249.825C285.395 245.579 285.118 241.328 284.91 237.072C284.764 234.049 284.53 230.665 284.442 227.181C285.869 225.26 287.376 223.369 289.59 222.33C290.308 221.993 289.682 220.931 288.969 221.266C287.091 222.149 285.679 223.611 284.414 225.202C284.404 223.568 284.433 221.925 284.532 220.29C284.63 220.123 284.654 219.921 284.566 219.724C285.183 211.028 287.795 202.809 296.124 198.969C296.844 198.637 296.218 197.575 295.502 197.905C293.394 198.877 291.641 200.119 290.184 201.569C290.116 200.374 290.31 199.201 290.751 198.071C291.039 197.331 289.849 197.011 289.563 197.743C288.938 199.342 288.797 201.003 289.067 202.694C289.071 202.722 289.086 202.737 289.093 202.761C285.548 206.99 284.084 212.638 283.553 218.49C281.768 216.42 279.982 214.347 278.198 212.275C278.371 212.188 278.498 212.021 278.482 211.761C278.37 210.029 277.827 208.412 276.825 206.989C276.373 206.346 275.304 206.961 275.762 207.611C276.502 208.663 276.966 209.818 277.156 211.068C276.493 210.298 275.83 209.528 275.166 208.76C274.648 208.157 273.78 209.032 274.295 209.63C277.338 213.161 280.381 216.691 283.424 220.222C283.292 222.377 283.274 224.54 283.305 226.657C283.277 226.694 283.25 226.731 283.222 226.767C283.015 227.048 283.112 227.317 283.318 227.485C283.359 229.558 283.442 231.583 283.518 233.489C283.912 243.311 284.662 253.113 285.735 262.88C283.516 261.655 282.298 259.349 281.193 257.135C280.838 256.425 279.775 257.048 280.129 257.756C281.398 260.295 282.85 262.95 285.547 264.185C285.662 264.237 285.774 264.244 285.879 264.233C286.587 270.505 287.43 276.762 288.406 283.001C288.528 283.781 289.714 283.45 289.594 282.673C287.991 272.431 286.758 262.137 285.893 251.808C286.003 251.763 286.108 251.689 286.18 251.549C289.002 246.106 292.948 241.485 297.913 237.885C298.55 237.424 297.935 236.355 297.293 236.821Z" fill="#245E5E"/>
<path d="M317.674 237.793C315.084 237.745 312.722 238.364 310.577 239.431C311.49 238.458 312.471 237.553 313.535 236.739C314.156 236.265 313.543 235.193 312.914 235.676C310.846 237.257 309.054 239.089 307.526 241.197C307.466 241.279 307.433 241.362 307.418 241.441C303.252 244.711 300.17 249.705 298.253 254.471C297.089 257.365 296.227 260.359 295.556 263.406C294.869 262.251 294.485 260.958 294.057 259.683C293.716 258.667 293.406 257.743 292.462 257.152C291.787 256.729 291.168 257.796 291.84 258.215C292.835 258.838 293.067 260.644 293.427 261.68C293.777 262.687 294.165 263.643 294.784 264.517C294.911 264.697 295.086 264.769 295.263 264.78C293.77 272.225 293.358 279.965 292.642 287.422C292.566 288.21 293.798 288.205 293.874 287.422C294.539 280.48 294.969 273.381 296.226 266.473C296.316 266.445 296.403 266.397 296.483 266.309C298.81 263.739 301.223 261.153 304.158 259.368C305.044 260.189 306.074 260.81 307.226 261.203C307.977 261.459 308.3 260.269 307.553 260.016C306.716 259.729 305.961 259.3 305.293 258.743C306.109 258.327 306.954 257.954 307.862 257.682C308.62 257.455 308.297 256.265 307.534 256.495C306.341 256.853 305.232 257.346 304.185 257.93C303.997 257.941 303.828 258.054 303.714 258.213C301.054 259.796 298.797 261.986 296.662 264.295C297.071 262.356 297.536 260.43 298.122 258.537C299.311 254.697 301.194 250.443 303.816 246.889C303.839 246.885 303.858 246.889 303.882 246.882C305.284 246.414 306.712 246.083 308.177 245.885C308.958 245.781 308.626 244.593 307.85 244.697C306.93 244.821 306.03 245.017 305.138 245.246C308.353 241.535 312.507 238.929 317.676 239.025C318.467 239.041 318.467 237.809 317.674 237.793Z" fill="#245E5E"/>
<path d="M307.401 276.175L306.422 282.279L304.662 293.213L300.833 317.046H272.812L268.983 293.213L267.224 282.279L266.245 276.175H307.401Z" fill="#F4A623"/>
<path d="M277.943 282.279L276.965 276.175H266.245L267.224 282.279L268.983 293.213L272.812 317.046H283.532L279.703 293.213L277.943 282.279Z" fill="#D17E11"/>
<path d="M357.735 280.894H355.046V278.196C355.046 277.615 354.575 277.148 353.994 277.148C353.41 277.148 352.943 277.614 352.943 278.196V280.894H350.252C349.671 280.894 349.202 281.356 349.202 281.938C349.202 282.518 349.67 282.995 350.252 282.995H352.943V285.682C352.943 286.262 353.41 286.737 353.994 286.737C354.574 286.737 355.046 286.262 355.046 285.682V282.995H357.735C358.316 282.995 358.788 282.519 358.788 281.938C358.788 281.357 358.317 280.894 357.735 280.894Z" fill="#214F6F"/>
<path d="M29.1137 186.622H26.4249V183.924C26.4249 183.343 25.9537 182.876 25.3721 182.876C24.7889 182.876 24.3217 183.342 24.3217 183.924V186.622H21.6305C21.0497 186.622 20.5801 187.084 20.5801 187.666C20.5801 188.246 21.0497 188.723 21.6305 188.723H24.3217V191.41C24.3217 191.99 24.7881 192.465 25.3721 192.465C25.9529 192.465 26.4249 191.99 26.4249 191.41V188.723H29.1137C29.6945 188.723 30.1665 188.247 30.1665 187.666C30.1665 187.084 29.6953 186.622 29.1137 186.622Z" fill="#214F6F"/>
<path d="M329.39 281.942C329.39 284.531 331.498 286.639 334.085 286.639C336.674 286.639 338.779 284.531 338.779 281.942C338.779 279.356 336.674 277.246 334.085 277.246C331.498 277.246 329.39 279.356 329.39 281.942ZM331.191 281.942C331.191 280.346 332.489 279.046 334.085 279.046C335.682 279.046 336.978 280.346 336.978 281.942C336.978 283.541 335.682 284.836 334.085 284.836C332.489 284.836 331.191 283.541 331.191 281.942Z" fill="#214F6F"/>
<path d="M327.673 205.565C327.673 208.154 329.78 210.262 332.367 210.262C334.956 210.262 337.062 208.154 337.062 205.565C337.062 202.979 334.956 200.868 332.367 200.868C329.78 200.869 327.673 202.979 327.673 205.565ZM329.474 205.565C329.474 203.969 330.771 202.669 332.367 202.669C333.965 202.669 335.261 203.969 335.261 205.565C335.261 207.163 333.965 208.459 332.367 208.459C330.771 208.459 329.474 207.163 329.474 205.565Z" fill="#214F6F"/>
<path d="M34.9736 168.529C34.9736 171.118 37.0808 173.226 39.668 173.226C42.2568 173.226 44.3624 171.118 44.3624 168.529C44.3624 165.942 42.2568 163.832 39.668 163.832C37.0816 163.832 34.9736 165.942 34.9736 168.529ZM36.7744 168.529C36.7744 166.933 38.072 165.633 39.668 165.633C41.2656 165.633 42.5616 166.933 42.5616 168.529C42.5616 170.127 41.2656 171.422 39.668 171.422C38.072 171.422 36.7744 170.126 36.7744 168.529Z" fill="#214F6F"/>
<path d="M40.06 186.486C39.4024 186.486 38.876 187.022 38.876 187.674C38.876 188.334 39.4024 188.854 40.06 188.854H51.8936C52.5488 188.854 53.0792 188.334 53.0792 187.674C53.0792 187.022 52.548 186.486 51.8936 186.486H40.06Z" fill="#214F6F"/>
<path d="M56.9672 186.486C56.3168 186.486 55.7832 187.022 55.7832 187.674C55.7832 188.334 56.3168 188.854 56.9672 188.854H59.1392C59.7944 188.854 60.3208 188.334 60.3208 187.674C60.3208 187.022 59.7944 186.486 59.1392 186.486H56.9672Z" fill="#214F6F"/>
<path d="M328.943 261.806C328.285 261.806 327.759 262.342 327.759 262.994C327.759 263.654 328.285 264.174 328.943 264.174H340.776C341.431 264.174 341.962 263.654 341.962 262.994C341.962 262.342 341.431 261.806 340.776 261.806H328.943Z" fill="#214F6F"/>
<path d="M345.849 261.806C345.199 261.806 344.665 262.342 344.665 262.994C344.665 263.654 345.199 264.174 345.849 264.174H348.021C348.676 264.174 349.203 263.654 349.203 262.994C349.203 262.342 348.676 261.806 348.021 261.806H345.849Z" fill="#214F6F"/>
<path d="M106.516 152.988C105.858 152.988 105.332 153.524 105.332 154.176C105.332 154.836 105.858 155.355 106.516 155.355H118.35C119.005 155.355 119.535 154.836 119.535 154.176C119.535 153.524 119.004 152.988 118.35 152.988H106.516Z" fill="#214F6F"/>
<path d="M123.423 152.988C122.772 152.988 122.239 153.524 122.239 154.176C122.239 154.836 122.772 155.355 123.423 155.355H125.595C126.25 155.355 126.776 154.836 126.776 154.176C126.776 153.524 126.25 152.988 125.595 152.988H123.423Z" fill="#214F6F"/>
<path d="M205.513 70.1584L205.971 68.7752L202.762 66.6192L200.38 68.16C199.346 67.3024 198.19 66.6544 196.962 66.216L197.072 63.3808L193.086 61.4392L192.628 62.8224L192.034 65.5968C190.734 65.7192 189.454 66.0608 188.241 66.6352L186.313 64.5536L183.231 65.9208L182.773 67.304L184.314 69.6864C183.461 70.7168 182.809 71.876 182.369 73.1032L179.992 71.6104L179.534 72.9936L178.976 77.4368L181.75 78.032C181.873 79.3312 182.214 80.612 182.79 81.8248L181.166 82.3688L180.708 83.752L183.458 87.292L185.841 85.7512C186.87 86.6048 188.03 87.2568 189.259 87.6968L189.15 90.532L193.594 91.0904L194.052 89.7072L194.189 88.3168C195.487 88.1936 196.772 87.8488 197.982 87.2768L199.909 89.3584L203.45 86.6088L203.908 85.2256L201.909 84.2264C202.766 83.1928 203.414 82.0368 203.854 80.808L206.689 80.9176L207.147 79.5344L207.247 76.4736L204.472 75.8792C204.35 74.5808 204.005 73.296 203.434 72.0872L205.513 70.1584ZM197.45 82.5416C194.365 84.9384 189.921 84.38 187.524 81.2952C185.127 78.2104 185.686 73.7664 188.77 71.3696C191.856 68.9728 196.3 69.5312 198.697 72.6168C201.093 75.7016 200.534 80.1456 197.45 82.5416Z" fill="#77AAD8"/>
<path d="M205.971 68.775L203.222 65.2358L200.839 66.7766C199.806 65.919 198.65 65.271 197.422 64.8318L197.531 61.9966L193.087 61.4382L192.492 64.2126C191.193 64.335 189.913 64.6766 188.699 65.251L186.771 63.1694L183.231 65.9198L184.772 68.3022C183.919 69.3326 183.267 70.4918 182.827 71.719L179.992 71.6094L179.435 76.0526L182.209 76.6478C182.331 77.947 182.673 79.227 183.248 80.4406L181.166 82.3686L183.915 85.9086L186.299 84.3678C187.328 85.2214 188.488 85.8734 189.717 86.3134L189.607 89.1486L194.051 89.707L194.646 86.9326C195.945 86.8102 197.229 86.4654 198.439 85.8934L200.366 87.975L203.906 85.2254L202.365 82.843C203.223 81.8094 203.871 80.6534 204.31 79.4246L207.144 79.5342L207.703 75.0902L204.927 74.4958C204.806 73.1974 204.46 71.9126 203.889 70.7038L205.971 68.775ZM197.908 81.159C194.824 83.5558 190.379 82.9974 187.983 79.9126C185.586 76.8278 186.144 72.3838 189.229 69.987C192.315 67.591 196.759 68.1486 199.155 71.2342C201.551 74.3182 200.994 78.7622 197.908 81.159Z" fill="#93BBE5"/>
<path d="M206.046 41.7176L206.392 40.296L204.064 37.6784L201.409 38.708C200.567 37.6544 199.563 36.7832 198.445 36.1016L199.13 33.3368L194.874 31.884L193.726 34.4904C192.424 34.3464 191.096 34.4216 189.786 34.74L188.314 32.3016L184.621 32.864L184.275 34.2856L185.305 36.9408C184.257 37.78 183.38 38.7864 182.698 39.904L179.933 39.22L178.826 42.0528L178.48 43.4744L181.086 44.624C180.942 45.9256 181.018 47.2544 181.337 48.5632L179.243 48.6128L178.898 50.0344L180.88 54.0736L183.536 53.044C184.374 54.0928 185.382 54.9688 186.5 55.6512L185.815 58.4152L190.07 59.868L191.218 57.2624C192.52 57.4056 193.853 57.328 195.158 57.012L196.629 59.4504L200.668 57.4672L201.014 56.0456L199.638 54.812C200.691 53.9704 201.563 52.9656 202.246 51.8472L205.01 52.532L206.462 48.2776L206.807 46.856L203.855 47.1288C204 45.828 203.922 44.4952 203.606 43.1904L206.046 41.7176ZM195.601 52.248C192.082 53.976 187.828 52.5232 186.101 49.0048C184.373 45.4856 185.826 41.232 189.344 39.504C192.863 37.7768 197.117 39.228 198.845 42.748C200.572 46.2672 199.12 50.5208 195.601 52.248Z" fill="#D17E11"/>
<path d="M206.392 40.2959L204.409 36.2575L201.754 37.2871C200.912 36.2343 199.908 35.3623 198.79 34.6807L199.474 31.9159L195.219 30.4631L194.07 33.0695C192.768 32.9247 191.441 33.0007 190.131 33.3191L188.659 30.8807L184.62 32.8647L185.65 35.5199C184.602 36.3591 183.726 37.3663 183.043 38.4831L180.278 37.7991L178.826 42.0535L181.433 43.2031C181.289 44.5047 181.365 45.8335 181.683 47.1423L179.245 48.6135L181.227 52.6527L183.883 51.6231C184.722 52.6719 185.729 53.5479 186.847 54.2311L186.162 56.9951L190.417 58.4471L191.566 55.8415C192.867 55.9855 194.2 55.9071 195.505 55.5911L196.976 58.0295L201.015 56.0463L199.986 53.3911C201.038 52.5495 201.91 51.5447 202.593 50.4271L205.357 51.1119L206.81 46.8575L204.203 45.7087C204.348 44.4079 204.27 43.0751 203.954 41.7703L206.392 40.2959ZM195.946 50.8263C192.427 52.5543 188.173 51.1015 186.446 47.5831C184.718 44.0647 186.17 39.8103 189.689 38.0823C193.209 36.3551 197.462 37.8071 199.19 41.3263C200.918 44.8455 199.466 49.0991 195.946 50.8263Z" fill="#F4A623"/>
<path d="M235.225 48.5816L235.78 46.9056L230.874 45.3328L228.587 47.8992C227.103 47.2304 225.545 46.8456 223.969 46.728L223.185 43.3808L218.37 42.4832L217.814 44.1592L218.013 47.5912C216.534 48.152 215.149 48.9632 213.917 50.0256L210.995 48.2144L208.302 50.8904L207.746 52.5664L210.312 54.8536C209.647 56.3312 209.259 57.8952 209.14 59.4704L206.349 58.5792L205.794 60.2552L206.572 65.6248L210.004 65.4272C210.565 66.9048 211.377 68.2904 212.439 69.5224L211.182 70.768L210.627 72.444L214.978 75.6936L217.266 73.1272C218.743 73.7928 220.307 74.1808 221.884 74.2992L222.668 77.6456L228.038 76.8672L228.594 75.1912L227.84 73.436C229.318 72.8744 230.707 72.0584 231.935 71.0008L234.857 72.812L238.107 68.4608L238.663 66.7848L235.541 66.1736C236.21 64.6904 236.595 63.1312 236.712 61.5552L240.058 60.7712L240.615 59.0952L239.28 55.4L235.847 55.5984C235.288 54.1208 234.47 52.732 233.414 51.5032L235.225 48.5816ZM229.791 65.6392C226.96 69.4304 221.59 70.208 217.799 67.3776C214.008 64.5464 213.23 59.1776 216.06 55.3856C218.892 51.5944 224.261 50.816 228.053 53.648C231.844 56.4792 232.623 61.848 229.791 65.6392Z" fill="#296ED3"/>
<path d="M235.78 46.9055L231.429 43.6559L229.142 46.2223C227.659 45.5535 226.1 45.1687 224.524 45.0511L223.74 41.7039L218.369 42.4823L218.568 45.9143C217.09 46.4751 215.705 47.2863 214.472 48.3479L211.551 46.5367L208.301 50.8887L210.867 53.1759C210.203 54.6535 209.815 56.2175 209.695 57.7927L206.348 58.5775L207.127 63.9471L210.559 63.7495C211.119 65.2271 211.931 66.6127 212.993 67.8447L211.182 70.7663L215.533 74.0167L217.82 71.4495C219.298 72.1151 220.862 72.5031 222.439 72.6215L223.223 75.9679L228.592 75.1895L228.395 71.7583C229.872 71.1967 231.261 70.3807 232.49 69.3231L235.411 71.1343L238.662 66.7831L236.095 64.4959C236.764 63.0127 237.149 61.4535 237.267 59.8775L240.613 59.0935L239.835 53.7231L236.403 53.9215C235.843 52.4439 235.026 51.0551 233.969 49.8263L235.78 46.9055ZM230.346 63.9631C227.515 67.7543 222.146 68.5327 218.355 65.7015C214.563 62.8703 213.785 57.5015 216.616 53.7103C219.448 49.9191 224.817 49.1407 228.609 51.9719C232.399 54.8031 233.178 60.1719 230.346 63.9631Z" fill="#214F6F"/>
<path d="M70.8329 59.116H127.172C128.61 59.116 129.777 60.284 129.777 61.7232V89.02C129.777 90.4584 128.61 91.6264 127.172 91.6264H70.8329C69.3937 91.6264 68.2273 90.4584 68.2273 89.02V61.7224C68.2281 60.284 69.3937 59.116 70.8329 59.116Z" fill="#214F6F"/>
<path d="M68.228 66.7871V93.5679C68.228 95.0063 69.3944 96.1751 70.8336 96.1751H127.173C128.611 96.1751 129.778 95.0071 129.778 93.5679V66.7871H68.228Z" fill="#AACAF9"/>
<path d="M77.74 63.0951C77.74 64.1991 76.8448 65.0935 75.7416 65.0935C74.6376 65.0935 73.7424 64.1991 73.7424 63.0951C73.7424 61.9903 74.6376 61.0959 75.7416 61.0959C76.8448 61.0959 77.74 61.9911 77.74 63.0951Z" fill="#214F6F"/>
<path d="M85.3512 63.0951C85.3512 64.1991 84.456 65.0935 83.352 65.0935C82.248 65.0935 81.3528 64.1991 81.3528 63.0951C81.3528 61.9903 82.248 61.0959 83.352 61.0959C84.4568 61.0959 85.3512 61.9911 85.3512 63.0951Z" fill="#214F6F"/>
<path d="M91.2937 95.4612C89.7454 95.4612 88.5717 95.07 87.7725 94.2875C86.9734 93.5217 86.5738 92.4228 86.5738 90.9911V86.4709C86.5738 86.0714 86.4739 85.78 86.2741 85.5969C86.0744 85.3971 85.808 85.2972 85.475 85.2972H84.6509V82.2505H85.475C85.808 82.2505 86.0744 82.1506 86.2741 81.9508C86.4739 81.751 86.5738 81.4597 86.5738 81.0767V76.5566C86.5738 75.1082 86.9734 74.001 87.7725 73.2352C88.5717 72.4693 89.7454 72.0864 91.2937 72.0864H92.7422V75.1331H92.2927C91.6933 75.1331 91.2355 75.2913 90.9191 75.6076C90.6195 75.9239 90.4696 76.3818 90.4696 76.9811V80.9768C90.4696 81.7094 90.3697 82.2838 90.17 82.7C89.9702 83.1162 89.6538 83.4159 89.221 83.599C88.8048 83.7821 88.2637 83.9153 87.5977 83.9986V83.5491C88.2637 83.6157 88.8048 83.7489 89.221 83.9486C89.6538 84.1318 89.9702 84.4315 90.17 84.8477C90.3697 85.2639 90.4696 85.8383 90.4696 86.5708V90.5665C90.4696 91.1659 90.6195 91.6237 90.9191 91.94C91.2355 92.2564 91.6933 92.4145 92.2927 92.4145H92.7422V95.4612H91.2937ZM96.3789 90.8162C95.7129 90.8162 95.1386 90.5915 94.6557 90.142C94.1896 89.6758 93.9565 89.0848 93.9565 88.3689C93.9565 87.653 94.1896 87.0786 94.6557 86.6457C95.1386 86.1962 95.7129 85.9715 96.3789 85.9715C97.0615 85.9715 97.6359 86.1962 98.102 86.6457C98.5682 87.0786 98.8013 87.653 98.8013 88.3689C98.8013 89.0848 98.5682 89.6758 98.102 90.142C97.6359 90.5915 97.0615 90.8162 96.3789 90.8162ZM102.915 90.8162C102.249 90.8162 101.674 90.5915 101.192 90.142C100.726 89.6758 100.492 89.0848 100.492 88.3689C100.492 87.653 100.726 87.0786 101.192 86.6457C101.674 86.1962 102.249 85.9715 102.915 85.9715C103.597 85.9715 104.172 86.1962 104.638 86.6457C105.104 87.0786 105.337 87.653 105.337 88.3689C105.337 89.0848 105.104 89.6758 104.638 90.142C104.172 90.5915 103.597 90.8162 102.915 90.8162ZM109.451 90.8162C108.785 90.8162 108.21 90.5915 107.728 90.142C107.261 89.6758 107.028 89.0848 107.028 88.3689C107.028 87.653 107.261 87.0786 107.728 86.6457C108.21 86.1962 108.785 85.9715 109.451 85.9715C110.133 85.9715 110.708 86.1962 111.174 86.6457C111.64 87.0786 111.873 87.653 111.873 88.3689C111.873 89.0848 111.64 89.6758 111.174 90.142C110.708 90.5915 110.133 90.8162 109.451 90.8162ZM85.1753 125.461H83.7269V122.415H84.1764C84.7758 122.415 85.2253 122.256 85.525 121.94C85.8413 121.624 85.9994 121.166 85.9994 120.567V116.571C85.9994 115.838 86.0993 115.264 86.2991 114.848C86.5156 114.431 86.8319 114.132 87.2481 113.949C87.6643 113.749 88.2054 113.616 88.8714 113.549V113.999C88.2054 113.915 87.6643 113.782 87.2481 113.599C86.8319 113.416 86.5156 113.116 86.2991 112.7C86.0993 112.284 85.9994 111.709 85.9994 110.977V106.981C85.9994 106.382 85.8413 105.924 85.525 105.608C85.2253 105.291 84.7758 105.133 84.1764 105.133H83.7269V102.086H85.1753C86.7403 102.086 87.914 102.469 88.6965 103.235C89.4957 104.001 89.8952 105.108 89.8952 106.557V111.077C89.8952 111.46 89.9951 111.751 90.1949 111.951C90.3947 112.151 90.6611 112.25 90.9941 112.25H91.8182V115.297H90.9941C90.6611 115.297 90.3947 115.397 90.1949 115.597C89.9951 115.78 89.8952 116.071 89.8952 116.471V120.991C89.8952 122.423 89.4957 123.522 88.6965 124.288C87.914 125.07 86.7403 125.461 85.1753 125.461Z" fill="#214F6F"/>
</svg>
