<svg width="400" height="400" viewBox="0 0 400 400" fill="none" xmlns="http://www.w3.org/2000/svg">
<path d="M373.91 262.943C357.389 296.256 328.09 330.791 292.442 337.429C238.578 347.463 226.345 392.263 134.457 375.737C120.13 373.162 107.102 369.167 95.3344 363.992C89.008 361.21 83.0464 358.078 77.4504 354.637C26.6312 323.469 5.47759 266.93 10.4848 211.382C17.0592 138.323 67.8936 109.844 100.635 93.5639C133.377 77.2839 180.037 3.53674 270.502 19.0039C284.294 21.3687 297.847 25.2847 310.718 31.0511C340.102 44.1967 368.529 68.4119 382.696 100.169C383.759 102.554 384.753 104.983 385.687 107.447C403.887 155.651 396.435 217.529 373.91 262.943Z" fill="#214F6F"/>
<path opacity="0.7" d="M373.91 262.943C357.389 296.256 328.09 330.791 292.442 337.429C238.578 347.463 226.345 392.263 134.457 375.737C120.13 373.162 107.102 369.167 95.3344 363.992C89.008 361.21 83.0464 358.078 77.4504 354.637C26.6312 323.469 5.47759 266.93 10.4848 211.382C17.0592 138.323 67.8936 109.844 100.635 93.5639C133.377 77.2839 180.037 3.53674 270.502 19.0039C284.294 21.3687 297.847 25.2847 310.718 31.0511C340.102 44.1967 368.529 68.4119 382.696 100.169C383.759 102.554 384.753 104.983 385.687 107.447C403.887 155.651 396.435 217.529 373.91 262.943Z" fill="white"/>
<path d="M377.443 365.182H388.163" stroke="#263238" stroke-miterlimit="10" stroke-linecap="round" stroke-linejoin="round"/>
<path d="M10.8433 365.182H369.582" stroke="#263238" stroke-miterlimit="10" stroke-linecap="round" stroke-linejoin="round"/>
<g opacity="0.2">
<path d="M264.509 44.1927C266.887 46.7151 274.106 49.5999 274.112 49.6023C274.187 49.6319 274.57 44.2671 274.555 43.9255C274.384 39.9751 271.731 32.4431 267.462 31.2687C264.386 30.4231 261.53 32.6447 261.02 35.6623C260.498 38.7439 262.482 42.0439 264.509 44.1927Z" fill="black"/>
<path d="M336.16 76.5759C336.206 76.6423 339.485 72.3783 339.661 72.0855C341.697 68.6967 343.64 60.9511 340.726 57.6159C338.628 55.2143 335.02 55.4903 332.93 57.7263C330.794 60.0095 330.629 63.8567 331.134 66.7663C331.727 70.1823 336.157 76.5711 336.16 76.5759Z" fill="black"/>
<path d="M368.54 59.7576C364.675 57.5968 357.499 61.0968 354.603 63.7888C354.352 64.0216 350.857 68.1104 350.932 68.1416C350.932 68.1416 351.002 68.1704 351.019 68.1776C349.881 68.7208 348.668 69.3176 347.356 69.9952C344.943 71.2664 342.227 72.7256 339.379 74.512C336.529 76.2896 333.481 78.3024 330.463 80.7112C327.434 83.1216 324.371 85.812 321.574 88.9928C321.542 89.0288 321.514 89.0704 321.482 89.1064C322.01 87.9224 323.38 84.5616 323.456 84.2912C324.526 80.4848 324.354 72.5008 320.664 70.0536C318.005 68.2912 314.599 69.5104 313.172 72.2192C311.717 74.9856 312.572 78.7392 313.828 81.4128C315.243 84.4272 320.744 89.1064 321.183 89.4776C318.547 92.5304 316.09 95.8784 313.789 99.4024C312.472 101.416 311.207 103.485 309.966 105.575C310.391 104.537 310.763 103.605 310.8 103.469C311.87 99.6624 311.698 91.6784 308.008 89.232C305.349 87.4688 301.943 88.6888 300.517 91.3968C299.061 94.1632 299.917 97.9168 301.172 100.59C302.446 103.302 307.055 107.386 308.29 108.45C307.822 109.258 307.346 110.058 306.882 110.866C304.651 114.746 302.443 118.628 300.159 122.369C299.355 123.688 298.515 124.957 297.679 126.23C298.055 125.306 298.365 124.526 298.399 124.402C299.469 120.595 299.298 112.612 295.607 110.165C292.948 108.402 289.541 109.622 288.115 112.33C286.66 115.095 287.516 118.85 288.771 121.523C289.986 124.111 294.208 127.918 295.669 129.19C294.773 130.467 293.879 131.749 292.954 132.946C292.303 133.75 291.733 134.569 291.035 135.339C290.36 136.117 289.692 136.886 289.03 137.649C287.701 139.07 286.339 140.545 285.008 141.898C284.09 142.847 283.197 143.734 282.301 144.63C283.117 143.328 284.659 140.742 284.763 140.512C285.849 138.119 286.664 133.826 286.133 130.337C286.295 129.985 286.426 129.619 286.52 129.242C287.258 126.272 285.526 123.094 282.368 122.642C277.985 122.013 272.545 127.858 270.811 131.412C270.708 131.622 269.853 134.02 269.337 135.542C269.504 134.601 269.676 133.69 269.836 132.719C270.165 130.802 270.437 128.88 270.738 126.812C270.847 125.809 270.959 124.795 271.07 123.772C271.203 122.759 271.214 121.673 271.292 120.613C271.42 118.153 271.431 115.654 271.386 113.134C273.065 113.418 279.043 114.341 281.915 113.602C284.775 112.866 288.214 111.134 289.419 108.25C290.598 105.426 289.368 102.022 286.315 101.096C282.078 99.8104 275.815 104.765 273.562 108.014C273.421 108.217 272.067 110.73 271.35 112.126C271.311 110.611 271.279 109.101 271.19 107.571C270.933 103.155 270.535 98.6928 270.159 94.2392C270.042 92.8752 269.943 91.5152 269.838 90.1528C270.435 90.2608 277.516 91.5104 280.734 90.6832C283.594 89.948 287.033 88.216 288.238 85.3312C289.417 82.5072 288.186 79.104 285.134 78.1776C280.896 76.892 274.634 81.8464 272.381 85.0952C272.211 85.34 270.268 88.9592 269.819 89.904C269.59 86.9056 269.388 83.9144 269.311 80.9584C269.197 76.8792 269.31 72.8712 269.709 68.996C269.986 69.0464 277.371 70.3848 280.667 69.5376C283.527 68.8024 286.967 67.0704 288.171 64.1856C289.351 61.3616 288.119 57.9576 285.067 57.032C280.83 55.7464 274.567 60.7008 272.315 63.9496C272.167 64.1632 270.682 66.9208 270.007 68.2472C269.875 68.2064 269.899 68.2144 269.766 68.1736C270.242 64.0264 271.225 60.0704 272.328 56.412C272.963 54.292 273.688 52.3008 274.437 50.38C275.786 50.7704 281.975 52.4856 285.026 52.0504C287.95 51.6336 291.559 50.2896 293.073 47.5552C294.555 44.8776 293.706 41.3592 290.773 40.104C286.703 38.3616 279.934 42.5976 277.338 45.58C277.197 45.7416 275.944 47.5496 275.05 48.8792C275.402 48.0176 275.749 47.1216 276.102 46.3024C277.419 43.2248 278.816 40.4872 280.072 38.0728C280.798 36.7056 281.481 35.484 282.132 34.3472C283.657 34.0392 289.785 32.7208 292.247 30.9608C294.649 29.2432 297.232 26.388 297.316 23.264C297.398 20.204 295.023 17.4736 291.842 17.7104C287.426 18.04 283.371 24.9184 282.441 28.7616C282.361 29.0936 281.701 34.432 281.781 34.4168C281.781 34.4168 281.855 34.4024 281.873 34.3984C281.224 35.4792 280.542 36.6464 279.821 37.9352C278.51 40.3264 277.049 43.0416 275.659 46.1032C274.262 49.1584 272.83 52.5184 271.642 56.192C270.446 59.8736 269.375 63.8072 268.796 68.0032C268.79 68.0504 268.789 68.1008 268.783 68.148C268.571 66.868 267.859 63.3096 267.773 63.0424C266.565 59.2776 262.018 52.7136 257.59 52.708C254.399 52.704 252.231 55.6008 252.535 58.6472C252.847 61.7568 255.632 64.416 258.154 65.9536C260.998 67.6872 268.167 68.5552 268.738 68.6224C268.223 72.6232 268.02 76.7712 268.046 80.9792C268.057 83.3856 268.144 85.8088 268.262 88.2368C268.043 87.136 267.839 86.1536 267.796 86.0192C266.588 82.2544 262.04 75.6904 257.613 75.6848C254.422 75.6808 252.254 78.5776 252.559 81.6232C252.871 84.7336 255.656 87.3928 258.178 88.9296C260.736 90.4888 266.834 91.352 268.45 91.5592C268.506 92.4904 268.55 93.4208 268.608 94.3512C268.889 98.8176 269.188 103.274 269.347 107.653C269.404 109.197 269.403 110.718 269.409 112.242C269.214 111.264 269.041 110.442 269.002 110.32C267.794 106.555 263.247 99.9912 258.819 99.9856C255.628 99.9824 253.459 102.879 253.765 105.925C254.077 109.034 256.862 111.694 259.383 113.23C261.825 114.719 267.446 115.566 269.366 115.821C269.323 117.38 269.284 118.942 269.173 120.452C269.074 121.481 269.05 122.478 268.893 123.506C268.759 124.527 268.627 125.538 268.495 126.539C268.171 128.458 267.848 130.439 267.485 132.302C267.242 133.6 266.987 134.833 266.734 136.075C266.695 134.538 266.555 131.531 266.515 131.281C265.892 127.377 262.392 120.199 258.015 119.523C254.863 119.037 252.279 121.571 252.12 124.628C251.957 127.75 254.307 130.799 256.567 132.701C259.055 134.794 265.728 136.693 266.564 136.925C266.137 138.978 265.703 140.973 265.263 142.847C263.767 149.289 262.277 154.603 261.175 158.328L263.936 159.504C263.959 159.418 263.981 159.342 264.005 159.254C265.039 155.456 266.441 150.014 267.823 143.414C268.265 141.33 268.695 139.094 269.116 136.794C269.672 136.808 272.839 136.866 275.802 136.549C276.925 139.694 281.142 144.614 281.691 145.244C280.202 146.722 278.739 148.145 277.338 149.466C272.536 154.014 268.362 157.624 265.389 160.123L268.419 161.414C271.263 158.89 274.974 155.494 279.161 151.353C280.679 149.858 282.272 148.231 283.891 146.544C284.589 147.031 290.316 150.976 293.519 151.561C296.425 152.091 300.272 151.959 302.574 149.845C304.829 147.774 305.137 144.169 302.753 142.049C299.444 139.106 291.682 140.981 288.275 142.988C288.075 143.106 286.038 144.634 284.768 145.62C285.426 144.928 286.073 144.262 286.741 143.542C288.073 142.125 289.361 140.67 290.751 139.112C291.396 138.336 292.048 137.551 292.706 136.759C293.375 135.988 293.984 135.088 294.634 134.247C296.098 132.266 297.486 130.187 298.837 128.062C300.081 129.225 304.558 133.292 307.362 134.261C310.153 135.225 313.977 135.678 316.572 133.936C319.114 132.231 319.965 128.714 317.93 126.257C315.105 122.847 307.148 123.524 303.476 124.992C303.247 125.083 300.731 126.433 299.363 127.2C300.166 125.916 300.974 124.638 301.743 123.314C303.965 119.488 306.094 115.547 308.237 111.625C308.892 110.422 309.56 109.234 310.224 108.04C310.662 108.458 315.878 113.408 319.019 114.493C321.81 115.458 325.634 115.91 328.23 114.169C330.772 112.464 331.623 108.946 329.587 106.49C326.763 103.081 318.805 103.758 315.135 105.225C314.858 105.335 311.24 107.282 310.345 107.822C311.808 105.194 313.291 102.59 314.856 100.081C317.012 96.616 319.318 93.3352 321.787 90.3232C321.991 90.5192 327.412 95.7096 330.629 96.8208C333.42 97.7848 337.244 98.2376 339.84 96.496C342.382 94.7912 343.233 91.2736 341.198 88.8176C338.372 85.408 330.416 86.0848 326.745 87.5528C326.504 87.6488 323.747 89.1288 322.451 89.8632C322.363 89.756 322.379 89.7752 322.291 89.668C324.975 86.4728 327.977 83.716 330.915 81.2736C332.614 79.856 334.316 78.5952 336.001 77.4064C336.911 78.4768 341.127 83.3216 343.911 84.6416C346.58 85.9064 350.331 86.7768 353.102 85.3312C355.815 83.9152 357.048 80.5128 355.295 77.8472C352.861 74.148 344.878 73.9472 341.068 75.0024C340.861 75.06 338.819 75.8768 337.34 76.492C338.109 75.9672 338.892 75.4112 339.638 74.9224C342.435 73.0824 345.11 71.5696 347.49 70.2488C348.85 69.5088 350.093 68.8664 351.263 68.2776C352.705 68.8616 358.543 71.1424 361.567 71.0328C364.519 70.9256 368.248 69.9696 370.042 67.4088C371.799 64.9032 371.324 61.3144 368.54 59.7576Z" fill="black"/>
</g>
<g opacity="0.2">
<path d="M136.742 45.7393C134.364 48.2617 127.145 51.1465 127.139 51.1489C127.064 51.1785 126.682 45.8137 126.696 45.4721C126.867 41.5217 129.52 33.9897 133.789 32.8153C136.864 31.9697 139.722 34.1913 140.231 37.2089C140.753 40.2913 138.769 43.5905 136.742 45.7393Z" fill="black"/>
<path d="M65.0913 78.1232C65.0457 78.1896 61.7665 73.9256 61.5905 73.6328C59.5545 70.244 57.6113 62.4984 60.5249 59.1632C62.6233 56.7616 66.2313 57.0376 68.3217 59.2736C70.4569 61.5568 70.6225 65.404 70.1177 68.3136C69.5241 71.7296 65.0945 78.1184 65.0913 78.1232Z" fill="black"/>
<path d="M32.7113 61.3048C36.5761 59.144 43.7529 62.644 46.6489 65.336C46.8993 65.5688 50.3945 69.6576 50.3193 69.6888C50.3193 69.6888 50.2497 69.7176 50.2329 69.7248C51.3705 70.268 52.5833 70.8648 53.8953 71.5424C56.3089 72.8136 59.0241 74.2728 61.8721 76.0592C64.7225 77.8368 67.7705 79.8496 70.7889 82.2584C73.8177 84.6688 76.8809 87.3592 79.6777 90.54C79.7097 90.576 79.7377 90.6176 79.7697 90.6536C79.2409 89.4696 77.8713 86.1088 77.7953 85.8384C76.7257 82.032 76.8969 74.048 80.5873 71.6008C83.2465 69.8384 86.6537 71.0576 88.0793 73.7664C89.5353 76.5328 88.6793 80.2864 87.4241 82.96C86.0089 85.9744 80.5081 90.6536 80.0689 91.0248C82.7049 94.0776 85.1625 97.4256 87.4633 100.95C88.7801 102.963 90.0449 105.032 91.2865 107.122C90.8617 106.084 90.4897 105.152 90.4521 105.016C89.3825 101.21 89.5545 93.2256 93.2441 90.7792C95.9033 89.016 99.3097 90.236 100.735 92.944C102.191 95.7104 101.335 99.464 100.08 102.138C98.8065 104.85 94.1969 108.934 92.9625 109.998C93.4305 110.805 93.9065 111.606 94.3705 112.414C96.6009 116.294 98.8097 120.176 101.093 123.917C101.897 125.236 102.737 126.505 103.573 127.778C103.197 126.854 102.887 126.074 102.853 125.95C101.783 122.143 101.954 114.16 105.646 111.713C108.304 109.95 111.711 111.17 113.137 113.878C114.593 116.644 113.736 120.398 112.481 123.071C111.266 125.659 107.044 129.466 105.583 130.738C106.479 132.015 107.374 133.297 108.298 134.494C108.949 135.298 109.519 136.116 110.217 136.887C110.892 137.665 111.56 138.434 112.222 139.197C113.551 140.618 114.913 142.093 116.244 143.446C117.162 144.395 118.055 145.282 118.951 146.178C118.135 144.876 116.593 142.29 116.489 142.06C115.403 139.667 114.588 135.374 115.119 131.885C114.957 131.533 114.826 131.167 114.732 130.79C113.994 127.82 115.726 124.642 118.884 124.19C123.267 123.561 128.707 129.406 130.442 132.96C130.544 133.17 131.399 135.568 131.915 137.09C131.748 136.149 131.576 135.238 131.416 134.267C131.087 132.35 130.815 130.428 130.514 128.36C130.405 127.357 130.294 126.343 130.182 125.32C130.049 124.307 130.038 123.221 129.96 122.161C129.832 119.701 129.822 117.202 129.866 114.683C128.187 114.967 122.21 115.89 119.336 115.15C116.477 114.415 113.038 112.682 111.833 109.798C110.654 106.974 111.883 103.571 114.937 102.645C119.174 101.359 125.437 106.314 127.69 109.563C127.83 109.766 129.185 112.279 129.902 113.674C129.941 112.16 129.972 110.65 130.062 109.12C130.318 104.703 130.716 100.242 131.093 95.788C131.21 94.424 131.308 93.064 131.414 91.7016C130.817 91.8096 123.735 93.0592 120.518 92.232C117.658 91.4968 114.218 89.7648 113.014 86.88C111.834 84.056 113.065 80.6528 116.118 79.7264C120.355 78.4408 126.618 83.3952 128.87 86.644C129.04 86.8888 130.983 90.508 131.433 91.4528C131.662 88.4544 131.863 85.4632 131.941 82.5072C132.054 78.428 131.941 74.42 131.542 70.5448C131.265 70.5952 123.88 71.9336 120.584 71.0864C117.724 70.3512 114.285 68.6192 113.081 65.7344C111.901 62.9104 113.132 59.5064 116.185 58.5808C120.422 57.2952 126.685 62.2496 128.938 65.4984C129.086 65.712 130.57 68.4696 131.245 69.796C131.378 69.7552 131.354 69.7632 131.486 69.7224C131.01 65.5752 130.027 61.6192 128.924 57.9608C128.289 55.8408 127.564 53.8496 126.815 51.9288C125.466 52.3192 119.277 54.0344 116.226 53.5992C113.302 53.1824 109.694 51.8384 108.179 49.104C106.697 46.4264 107.546 42.908 110.479 41.6528C114.55 39.9104 121.318 44.1464 123.914 47.1288C124.055 47.2904 125.308 49.0984 126.202 50.428C125.851 49.5664 125.504 48.6704 125.151 47.8512C123.834 44.7736 122.437 42.036 121.181 39.6216C120.455 38.2544 119.772 37.0328 119.121 35.896C117.596 35.588 111.468 34.2696 109.006 32.5096C106.604 30.7928 104.021 27.9368 103.937 24.8128C103.855 21.7528 106.23 19.0224 109.411 19.2592C113.827 19.588 117.882 26.4672 118.812 30.3104C118.892 30.6424 119.552 35.9808 119.472 35.9656C119.472 35.9656 119.398 35.9512 119.38 35.9472C120.029 37.028 120.711 38.1952 121.432 39.484C122.743 41.876 124.204 44.5904 125.594 47.652C126.991 50.7072 128.423 54.0672 129.611 57.7408C130.807 61.4224 131.878 65.356 132.457 69.552C132.463 69.5992 132.464 69.6496 132.47 69.6968C132.682 68.4168 133.394 64.8584 133.48 64.5912C134.688 60.8264 139.235 54.2624 143.663 54.2568C146.854 54.2528 149.022 57.1496 148.718 60.196C148.406 63.3056 145.621 65.9648 143.099 67.5024C140.255 69.236 133.086 70.104 132.515 70.1712C133.03 74.172 133.233 78.32 133.207 82.528C133.196 84.9344 133.109 87.3576 132.991 89.7856C133.21 88.6848 133.414 87.7024 133.457 87.568C134.666 83.8032 139.213 77.2392 143.64 77.2336C146.83 77.2296 148.999 80.1264 148.694 83.172C148.382 86.2824 145.597 88.9416 143.075 90.4784C140.517 92.0376 134.419 92.9008 132.802 93.108C132.747 94.0392 132.703 94.9696 132.645 95.9C132.364 100.366 132.065 104.822 131.906 109.202C131.849 110.746 131.85 112.267 131.844 113.79C132.039 112.813 132.212 111.991 132.251 111.869C133.459 108.104 138.006 101.54 142.434 101.534C145.625 101.531 147.794 104.428 147.488 107.474C147.176 110.583 144.391 113.242 141.87 114.779C139.428 116.268 133.807 117.115 131.887 117.37C131.93 118.929 131.969 120.491 132.08 122.001C132.179 123.03 132.203 124.027 132.36 125.055C132.494 126.076 132.626 127.086 132.758 128.088C133.082 130.006 133.405 131.988 133.768 133.851C134.01 135.149 134.266 136.382 134.519 137.624C134.558 136.087 134.698 133.08 134.738 132.83C135.361 128.926 138.861 121.748 143.238 121.072C146.39 120.586 148.973 123.12 149.133 126.177C149.296 129.298 146.946 132.348 144.686 134.25C142.198 136.342 135.525 138.242 134.689 138.474C135.116 140.527 135.55 142.522 135.99 144.396C137.486 150.838 138.976 156.152 140.078 159.877L137.317 161.053C137.294 160.967 137.272 160.891 137.248 160.803C136.214 157.005 134.812 151.562 133.43 144.963C132.988 142.879 132.558 140.643 132.137 138.343C131.581 138.357 128.414 138.415 125.451 138.097C124.328 141.242 120.111 146.162 119.562 146.792C121.051 148.27 122.514 149.693 123.915 151.014C128.717 155.561 132.891 159.171 135.864 161.67L132.834 162.962C129.99 160.437 126.278 157.041 122.092 152.9C120.574 151.406 118.981 149.778 117.362 148.091C116.664 148.578 110.937 152.523 107.734 153.108C104.828 153.638 100.98 153.506 98.6785 151.392C96.4241 149.322 96.1161 145.716 98.5001 143.596C101.809 140.654 109.571 142.528 112.978 144.534C113.178 144.653 115.215 146.181 116.485 147.166C115.826 146.474 115.18 145.809 114.512 145.088C113.18 143.671 111.893 142.217 110.502 140.658C109.857 139.882 109.205 139.098 108.547 138.306C107.878 137.534 107.268 136.634 106.619 135.794C105.155 133.812 103.767 131.734 102.416 129.608C101.172 130.771 96.6953 134.838 93.8913 135.807C91.1001 136.771 87.2761 137.224 84.6809 135.482C82.1393 133.778 81.2881 130.26 83.3233 127.803C86.1481 124.394 94.1049 125.07 97.7769 126.538C98.0057 126.63 100.522 127.979 101.89 128.746C101.087 127.462 100.279 126.186 99.5105 124.86C97.2881 121.035 95.1585 117.094 93.0161 113.171C92.3609 111.969 91.6929 110.78 91.0289 109.586C90.5913 110.005 85.3745 114.954 82.2337 116.039C79.4425 117.004 75.6185 117.456 73.0225 115.715C70.4809 114.01 69.6305 110.493 71.6657 108.037C74.4905 104.627 82.4473 105.304 86.1185 106.771C86.3953 106.882 90.0129 108.828 90.9089 109.369C89.4457 106.741 87.9633 104.136 86.3977 101.627C84.2417 98.1624 81.9361 94.8816 79.4665 91.8696C79.2633 92.0656 73.8417 97.256 70.6249 98.3672C67.8337 99.3312 64.0097 99.784 61.4137 98.0424C58.8721 96.3376 58.0209 92.82 60.0561 90.364C62.8817 86.9544 70.8377 87.6312 74.5089 89.0992C74.7505 89.1952 77.5065 90.6752 78.8025 91.4096C78.8913 91.3024 78.8745 91.3216 78.9633 91.2144C76.2793 88.0192 73.2769 85.2616 70.3393 82.82C68.6401 81.4024 66.9377 80.1416 65.2529 78.9528C64.3425 80.0232 60.1265 84.868 57.3425 86.188C54.6737 87.4528 50.9233 88.3232 48.1521 86.8776C45.4385 85.4616 44.2065 82.0592 45.9593 79.3936C48.3929 75.6944 56.3761 75.4936 60.1857 76.5488C60.3929 76.6064 62.4345 77.4232 63.9137 78.0384C63.1449 77.5136 62.3617 76.9576 61.6161 76.4688C58.8185 74.6288 56.1441 73.116 53.7641 71.7952C52.4041 71.0552 51.1609 70.4128 49.9905 69.824C48.5489 70.408 42.7105 72.6888 39.6865 72.5792C36.7353 72.472 33.0057 71.516 31.2121 68.9552C29.4529 66.4496 29.9273 62.8616 32.7113 61.3048Z" fill="black"/>
</g>
<path d="M380.487 136.507V140.15C380.487 141.091 379.727 141.851 378.786 141.851C377.846 141.851 377.085 141.091 377.085 140.15V136.507H367.142V140.15C367.142 141.091 366.382 141.851 365.449 141.851C364.508 141.851 363.748 141.091 363.748 140.15V136.507H353.805V140.15C353.805 141.091 353.045 141.851 352.104 141.851C351.163 141.851 350.403 141.091 350.403 140.15V136.507H340.468V140.15C340.468 141.091 339.708 141.851 338.767 141.851C337.826 141.851 337.066 141.091 337.066 140.15V136.507H327.123V140.15C327.123 140.617 326.935 141.046 326.626 141.354C326.317 141.663 325.889 141.851 325.422 141.851C324.489 141.851 323.729 141.091 323.729 140.15V136.507H319.16V183.709H385.058V136.507H380.487ZM330.042 176.896H324.909V171.77H330.042V176.896ZM330.042 169.46H324.909V164.326H330.042V169.46ZM330.042 162.016H324.909V156.89H330.042V162.016ZM330.042 154.579H324.909V149.445H330.042V154.579ZM338.253 176.896H333.12V171.77H338.253V176.896ZM338.253 169.46H333.12V164.326H338.253V169.46ZM338.253 162.016H333.12V156.89H338.253V162.016ZM338.253 154.579H333.12V149.445H338.253V154.579ZM346.458 176.896H341.333V171.77H346.458V176.896ZM346.458 169.46H341.333V164.326H346.458V169.46ZM346.458 162.016H341.333V156.89H346.458V162.016ZM346.458 154.579H341.333V149.445H346.458V154.579ZM354.67 176.896H349.537V171.77H354.67V176.896ZM354.67 169.46H349.537V164.326H354.67V169.46ZM354.67 162.016H349.537V156.89H354.67V162.016ZM354.67 154.579H349.537V149.445H354.67V154.579ZM362.881 176.896H357.748V171.77H362.881V176.896ZM362.881 169.46H357.748V164.326H362.881V169.46ZM362.881 162.016H357.748V156.89H362.881V162.016ZM362.881 154.579H357.748V149.445H362.881V154.579ZM371.094 176.896H365.96V171.77H371.094V176.896ZM371.094 169.46H365.96V164.326H371.094V169.46ZM371.094 162.016H365.96V156.89H371.094V162.016ZM371.094 154.579H365.96V149.445H371.094V154.579ZM379.298 176.896H374.173V171.77H379.298V176.896ZM379.298 169.46H374.173V164.326H379.298V169.46ZM379.298 162.016H374.173V156.89H379.298V162.016ZM379.298 154.579H374.173V149.445H379.298V154.579Z" stroke="#263238" stroke-miterlimit="10" stroke-linecap="round" stroke-linejoin="round"/>
<path d="M380.487 132.676V140.15C380.487 141.091 379.727 141.851 378.786 141.851C377.845 141.851 377.085 141.091 377.085 140.15V132.676C377.085 131.735 377.845 130.975 378.786 130.975C379.253 130.975 379.682 131.163 379.99 131.472C380.299 131.78 380.487 132.202 380.487 132.676Z" stroke="#263238" stroke-miterlimit="10" stroke-linecap="round" stroke-linejoin="round"/>
<path d="M367.142 132.676V140.15C367.142 141.091 366.382 141.851 365.449 141.851C364.508 141.851 363.748 141.091 363.748 140.15V132.676C363.748 131.735 364.508 130.975 365.449 130.975C365.915 130.975 366.337 131.163 366.645 131.472C366.954 131.78 367.142 132.202 367.142 132.676Z" stroke="#263238" stroke-miterlimit="10" stroke-linecap="round" stroke-linejoin="round"/>
<path d="M353.805 132.676V140.15C353.805 141.091 353.045 141.851 352.104 141.851C351.163 141.851 350.403 141.091 350.403 140.15V132.676C350.403 131.735 351.163 130.975 352.104 130.975C352.578 130.975 353 131.163 353.308 131.472C353.616 131.78 353.805 132.202 353.805 132.676Z" stroke="#263238" stroke-miterlimit="10" stroke-linecap="round" stroke-linejoin="round"/>
<path d="M340.466 132.676V140.15C340.466 141.091 339.706 141.851 338.766 141.851C337.825 141.851 337.065 141.091 337.065 140.15V132.676C337.065 131.735 337.825 130.975 338.766 130.975C339.24 130.975 339.662 131.163 339.97 131.472C340.278 131.78 340.466 132.202 340.466 132.676Z" stroke="#263238" stroke-miterlimit="10" stroke-linecap="round" stroke-linejoin="round"/>
<path d="M327.121 132.676V140.15C327.121 140.617 326.933 141.046 326.625 141.354C326.316 141.663 325.887 141.851 325.421 141.851C324.487 141.851 323.727 141.091 323.727 140.15V132.676C323.727 132.202 323.915 131.78 324.224 131.472C324.533 131.163 324.954 130.975 325.421 130.975C326.361 130.974 327.121 131.735 327.121 132.676Z" stroke="#263238" stroke-miterlimit="10" stroke-linecap="round" stroke-linejoin="round"/>
<path d="M57.8586 187.552C72.8144 187.552 84.9386 175.428 84.9386 160.472C84.9386 145.516 72.8144 133.392 57.8586 133.392C42.9027 133.392 30.7786 145.516 30.7786 160.472C30.7786 175.428 42.9027 187.552 57.8586 187.552Z" stroke="#263238" stroke-miterlimit="10" stroke-linecap="round" stroke-linejoin="round"/>
<path d="M63.3073 183.791C76.1903 180.784 84.1963 167.903 81.1892 155.02C78.1821 142.137 65.3006 134.131 52.4176 137.138C39.5346 140.145 31.5286 153.026 34.5357 165.909C37.5428 178.792 50.4243 186.798 63.3073 183.791Z" stroke="#263238" stroke-miterlimit="10" stroke-linecap="round" stroke-linejoin="round"/>
<path d="M57.8586 162.76C59.1222 162.76 60.1466 161.736 60.1466 160.472C60.1466 159.208 59.1222 158.184 57.8586 158.184C56.5949 158.184 55.5706 159.208 55.5706 160.472C55.5706 161.736 56.5949 162.76 57.8586 162.76Z" fill="#263238" stroke="#263238" stroke-miterlimit="10" stroke-linecap="round" stroke-linejoin="round"/>
<path d="M66.1953 164.549L57.8585 160.472L43.9585 175.667" stroke="#263238" stroke-miterlimit="10" stroke-linecap="round" stroke-linejoin="round"/>
<path d="M301.49 358.668H108.344C105.658 358.668 103.481 356.491 103.481 353.805V63.1425C103.481 60.4569 105.658 58.2793 108.344 58.2793H301.49C304.176 58.2793 306.354 60.4569 306.354 63.1425V353.805C306.353 356.491 304.176 358.668 301.49 358.668Z" fill="#263238" stroke="#263238" stroke-miterlimit="10" stroke-linecap="round" stroke-linejoin="round"/>
<path d="M296.044 65.0601H113.79V347.103H296.044V65.0601Z" fill="white" stroke="#263238" stroke-miterlimit="10" stroke-linecap="round" stroke-linejoin="round"/>
<path d="M230.367 138.225H244.52" stroke="#263238" stroke-miterlimit="10"/>
<path d="M132.216 138.225H219.411" stroke="#263238" stroke-miterlimit="10"/>
<path d="M209.368 149.182H244.52" stroke="#263238" stroke-miterlimit="10"/>
<path d="M155.498 149.182H199.781" stroke="#263238" stroke-miterlimit="10"/>
<path d="M132.216 149.182H147.281" stroke="#263238" stroke-miterlimit="10"/>
<path d="M176.042 160.138H244.52" stroke="#263238" stroke-miterlimit="10"/>
<path d="M132.216 160.138H160.976" stroke="#263238" stroke-miterlimit="10"/>
<path d="M275.673 159.822C282.051 158.306 285.993 151.907 284.477 145.529C282.961 139.152 276.563 135.21 270.185 136.726C263.807 138.241 259.866 144.64 261.381 151.018C262.897 157.396 269.296 161.337 275.673 159.822Z" stroke="#263238" stroke-miterlimit="10"/>
<path d="M146.368 187.072H132.216" stroke="#263238" stroke-miterlimit="10"/>
<path d="M244.52 187.072H157.325" stroke="#263238" stroke-miterlimit="10"/>
<path d="M167.368 198.029H132.216" stroke="#263238" stroke-miterlimit="10"/>
<path d="M221.237 198.029H176.955" stroke="#263238" stroke-miterlimit="10"/>
<path d="M244.52 198.029H229.454" stroke="#263238" stroke-miterlimit="10"/>
<path d="M200.693 208.986H132.216" stroke="#263238" stroke-miterlimit="10"/>
<path d="M244.52 208.986H215.759" stroke="#263238" stroke-miterlimit="10"/>
<path d="M275.672 208.669C282.05 207.154 285.992 200.755 284.476 194.377C282.96 188 276.562 184.058 270.184 185.574C263.806 187.089 259.865 193.488 261.38 199.866C262.896 206.244 269.295 210.185 275.672 208.669Z" stroke="#263238" stroke-miterlimit="10"/>
<path d="M230.367 235.92H244.52" stroke="#263238" stroke-miterlimit="10"/>
<path d="M132.216 235.92H219.411" stroke="#263238" stroke-miterlimit="10"/>
<path d="M209.368 246.876H244.52" stroke="#263238" stroke-miterlimit="10"/>
<path d="M155.498 246.876H199.781" stroke="#263238" stroke-miterlimit="10"/>
<path d="M132.216 246.876H147.281" stroke="#263238" stroke-miterlimit="10"/>
<path d="M176.042 257.833H244.52" stroke="#263238" stroke-miterlimit="10"/>
<path d="M132.216 257.833H160.976" stroke="#263238" stroke-miterlimit="10"/>
<path d="M281.322 254.356C285.957 249.721 285.957 242.205 281.322 237.57C276.687 232.935 269.171 232.935 264.536 237.57C259.901 242.205 259.901 249.721 264.536 254.356C269.171 258.991 276.687 258.991 281.322 254.356Z" stroke="#263238" stroke-miterlimit="10"/>
<path d="M220.261 34.6216C219.405 34.6216 218.713 33.9288 218.713 33.0736V24.3544C218.713 22.532 217.235 21.0544 215.413 21.0544H201.36C199.537 21.0544 198.06 22.532 198.06 24.3544V33.0736C198.06 33.9288 197.367 34.6216 196.512 34.6216C195.657 34.6216 194.964 35.3144 194.964 36.1696V59.788H221.809V36.1696C221.809 35.3144 221.116 34.6216 220.261 34.6216ZM208.386 33.8088C205.995 33.8088 204.057 31.8704 204.057 29.4792C204.057 27.088 205.995 25.1496 208.386 25.1496C210.777 25.1496 212.716 27.088 212.716 29.4792C212.716 31.8704 210.777 33.8088 208.386 33.8088Z" fill="#263238" stroke="#263238" stroke-miterlimit="10" stroke-linecap="round" stroke-linejoin="round"/>
<path d="M250.306 67.1568H166.466V59.2008C166.466 55.38 169.562 52.2832 173.383 52.2832H243.388C247.209 52.2832 250.306 55.3808 250.306 59.2008V67.1568H250.306Z" fill="white" stroke="#263238" stroke-miterlimit="10" stroke-linecap="round" stroke-linejoin="round"/>
<path d="M168.542 54.8552H248.23C246.786 53.2784 244.718 52.2832 242.411 52.2832H174.362C172.055 52.2832 169.986 53.2784 168.542 54.8552Z" fill="#263238" stroke="#263238" stroke-miterlimit="10" stroke-linecap="round" stroke-linejoin="round"/>
<path d="M250.306 67.0881H166.466V71.9769H250.306V67.0881Z" fill="white" stroke="#263238" stroke-miterlimit="10" stroke-linecap="round" stroke-linejoin="round"/>
<path d="M268.409 195.147L271.635 200.883L283.823 189.054" stroke="#214F6F" stroke-width="6" stroke-miterlimit="10" stroke-linecap="round"/>
<path d="M268.409 145.784L271.635 151.519L283.823 139.69" stroke="#214F6F" stroke-width="6" stroke-miterlimit="10" stroke-linecap="round"/>
<path d="M230.367 89.9351H244.52" stroke="#263238" stroke-miterlimit="10"/>
<path d="M132.216 89.9351H219.411" stroke="#263238" stroke-miterlimit="10"/>
<path d="M209.368 100.891H244.52" stroke="#263238" stroke-miterlimit="10"/>
<path d="M155.498 100.891H199.781" stroke="#263238" stroke-miterlimit="10"/>
<path d="M132.216 100.891H147.281" stroke="#263238" stroke-miterlimit="10"/>
<path d="M176.042 111.848H244.52" stroke="#263238" stroke-miterlimit="10"/>
<path d="M132.216 111.848H160.976" stroke="#263238" stroke-miterlimit="10"/>
<path d="M281.323 108.372C285.958 103.737 285.958 96.2216 281.323 91.5863C276.688 86.9509 269.172 86.9509 264.537 91.5863C259.902 96.2216 259.902 103.737 264.537 108.372C269.172 113.008 276.688 113.008 281.323 108.372Z" stroke="#263238" stroke-miterlimit="10"/>
<path d="M268.409 97.4937L271.635 103.229L283.823 91.4001" stroke="#214F6F" stroke-width="6" stroke-miterlimit="10" stroke-linecap="round"/>
<path d="M266.701 241.726L269.928 247.462L282.115 235.633" stroke="#214F6F" stroke-width="6" stroke-miterlimit="10" stroke-linecap="round"/>
<path d="M331.932 166.139C331.932 166.139 336.256 169.798 335.923 173.013C335.59 176.229 331.266 184.101 330.269 186.429C329.271 188.758 331.599 194.301 331.599 194.301L317.186 199.18C317.186 199.18 317.518 197.406 317.186 196.629C316.853 195.853 316.298 193.746 316.298 193.746C316.298 193.746 314.081 194.522 313.416 194.744C312.75 194.965 310.422 193.857 310.311 192.859C310.2 191.861 310.2 191.196 310.09 189.754C309.978 188.313 309.757 185.763 309.535 185.319C309.314 184.876 307.096 183.434 307.207 182.658C307.318 181.882 309.868 178.889 310.09 177.89C310.311 176.893 309.757 174.675 309.978 173.455C310.2 172.235 312.307 168.022 312.307 168.022C312.307 168.022 310.977 166.913 314.635 163.92C318.294 160.928 327.497 160.041 331.932 166.139Z" fill="white" stroke="#263238" stroke-miterlimit="10" stroke-linecap="round" stroke-linejoin="round"/>
<path d="M331.932 166.139C327.497 160.041 318.294 160.928 314.635 163.921C310.976 166.915 312.307 168.024 312.307 168.024L315.634 170.574C315.634 170.574 312.529 174.122 312.973 174.566C313.417 175.009 315.855 178.114 315.855 178.114L315.642 179.148L315.202 177.469C315.202 177.469 313.824 182.983 313.565 184.362C313.306 185.741 313.306 186.258 312.703 186.43C312.1 186.602 309.535 185.321 309.535 185.321C309.535 185.321 309.515 188.585 309.429 189.963C309.342 191.341 309.257 192.462 309.17 193.668C309.084 194.874 310.894 196.856 313.048 196.425C315.202 195.995 316.361 194.861 316.298 193.748C316.236 192.634 317.011 188.757 316.667 187.982C316.322 187.206 315.672 183.357 316.298 181.662C316.298 181.662 317.74 178.558 319.292 178.558C320.844 178.558 321.066 182.771 320.622 183.769C320.179 184.766 319.957 185.321 319.957 185.321C319.957 185.321 319.957 185.985 324.281 187.427C327.526 188.509 329.335 187.905 330.035 187.535C330.062 187.123 330.132 186.745 330.268 186.429C331.266 184.101 335.59 176.228 335.922 173.013C336.256 169.798 331.932 166.139 331.932 166.139Z" fill="#263238" stroke="#263238" stroke-miterlimit="10" stroke-linecap="round" stroke-linejoin="round"/>
<path d="M319.957 185.321C319.957 185.321 318.96 186.873 318.073 187.206C317.186 187.538 316.631 186.318 316.631 186.318" stroke="#263238" stroke-miterlimit="10" stroke-linecap="round" stroke-linejoin="round"/>
<path d="M310.422 178.225C310.422 179.021 310.621 179.666 310.866 179.666C311.11 179.666 311.309 179.021 311.309 178.225C311.309 177.429 311.11 176.783 310.866 176.783C310.621 176.783 310.422 177.429 310.422 178.225Z" fill="#263238"/>
<path d="M311.753 176.45C311.753 176.45 311.974 175.009 310.201 175.674" stroke="#263238" stroke-miterlimit="10" stroke-linecap="round" stroke-linejoin="round"/>
<path d="M310.695 188.523C310.695 188.523 311.915 188.19 312.358 187.636" stroke="white" stroke-miterlimit="10" stroke-linecap="round" stroke-linejoin="round"/>
<path d="M270.096 216.883H295.19L301.013 236.549H275.918L270.096 216.883Z" fill="white" stroke="#263238" stroke-miterlimit="10" stroke-linecap="round" stroke-linejoin="round"/>
<path d="M271.878 218.018H294.079L299.23 235.416H277.03L271.878 218.018Z" fill="white" stroke="#263238" stroke-miterlimit="10" stroke-linecap="round" stroke-linejoin="round"/>
<path d="M276.1 238.086H306.726V236.755H276.1V238.086Z" fill="white" stroke="#263238" stroke-miterlimit="10" stroke-linecap="round" stroke-linejoin="round"/>
<path d="M316.415 363.926C316.415 363.926 313.712 367.708 311.888 368.703C310.064 369.698 305.587 370.858 305.587 372.019C305.587 373.18 305.918 373.346 307.909 374.009C309.898 374.672 313.546 374.672 315.536 374.672C317.526 374.672 319.681 374.672 320.345 374.838C321.008 375.003 324.656 375.335 326.314 375.335C327.972 375.335 327.89 370.927 327.89 370.927L316.415 363.926Z" fill="white" stroke="#263238" stroke-miterlimit="10" stroke-linecap="round" stroke-linejoin="round"/>
<path d="M343.095 269.968C343.095 269.968 339.171 300.908 335.476 311.217C331.781 321.525 333.337 324.638 330.808 335.14C328.279 345.643 327.89 370.344 327.89 370.928C327.89 371.512 326.723 370.928 322.639 368.789C318.554 366.65 316.415 363.926 316.415 363.926C316.415 363.926 316.609 361.787 316.998 360.231C317.387 358.675 318.165 354.59 318.165 354.59C318.165 354.59 316.609 341.365 318.36 320.164C320.11 298.964 320.889 273.826 320.889 273.826C320.889 273.826 335.121 271.913 343.095 269.968Z" fill="#263238" stroke="#263238" stroke-miterlimit="10" stroke-linecap="round" stroke-linejoin="round"/>
<path d="M323.509 370.633C323.509 370.633 320.712 373.545 318.965 374.478C317.217 375.41 311.741 377.391 311.624 378.207C311.507 379.023 312.09 380.654 312.44 380.77C312.789 380.887 317.45 381.702 321.878 381.819C326.306 381.936 331.433 381.353 332.715 381.353C333.997 381.353 337.026 382.517 337.143 379.022C337.26 375.526 335.395 370.516 335.395 370.516C335.395 370.516 329.218 372.381 323.509 370.633Z" fill="white" stroke="#263238" stroke-miterlimit="10" stroke-linecap="round" stroke-linejoin="round"/>
<path d="M332.601 281.559C332.601 281.559 331.184 301.57 330.476 307.59C329.768 313.611 331.184 326.36 332.778 335.213C334.372 344.067 334.903 362.305 334.903 362.305C334.903 362.305 335.965 363.013 335.434 364.077C334.903 365.139 334.372 366.733 334.372 366.733C334.372 366.733 336.32 367.441 336.143 368.681C335.966 369.92 335.435 372.222 335.435 372.222C335.435 372.222 334.373 372.399 330.654 372.399C326.936 372.399 323.925 371.691 323.925 371.691L322.509 370.983C322.509 370.983 322.154 368.15 322.154 366.556C322.154 364.962 323.925 363.369 323.748 362.483C323.571 361.597 322.685 356.64 321.977 352.567C321.269 348.494 321.801 346.015 320.561 341.765C319.321 337.516 312.415 312.194 312.415 312.194C312.415 312.194 309.228 282.798 309.051 278.725C308.874 274.653 308.874 272.882 308.874 272.882C308.874 272.882 314.364 268.456 315.603 268.456C316.841 268.456 332.601 281.559 332.601 281.559Z" fill="#263238" stroke="#263238" stroke-miterlimit="10" stroke-linecap="round" stroke-linejoin="round"/>
<path d="M308.349 269.854C308.349 269.854 307.742 274.308 308.349 275.219C308.956 276.13 314.22 277.547 320.8 278.256C327.38 278.965 335.782 278.256 338.616 277.244C341.45 276.232 343.272 275.321 343.678 274.612C344.082 273.903 343.778 270.158 343.778 270.158C343.778 270.158 317.561 271.676 308.349 269.854Z" fill="#214F6F" stroke="#263238" stroke-miterlimit="10" stroke-linecap="round" stroke-linejoin="round"/>
<path d="M333.927 196.962C333.927 196.962 343.241 203.186 344.972 213.074C346.514 221.89 344.017 252.954 344.017 254.617C344.017 256.28 345.296 269.752 345.296 269.752C346.612 272.586 335.825 275.174 329.909 275.724C324.677 276.211 313.137 275.049 309.811 273.405C308.758 272.885 307.749 272.322 307.723 271.149C307.605 265.721 307.329 251.227 307.688 249.072C308.131 246.411 307.649 230.89 307.649 225.567C307.649 220.245 305.653 212.151 307.428 208.714C309.201 205.278 313.748 202.949 313.748 202.949C313.748 202.949 322.064 196.075 333.927 196.962Z" fill="#214F6F" stroke="#263238" stroke-miterlimit="10" stroke-linecap="round" stroke-linejoin="round"/>
<path d="M334.012 228.414C333.078 230.149 332.227 231.568 331.616 232.266" stroke="#263238" stroke-miterlimit="10" stroke-linecap="round" stroke-linejoin="round"/>
<path d="M340.348 215.152C340.348 215.152 338.214 220.012 335.949 224.622" stroke="#263238" stroke-miterlimit="10" stroke-linecap="round" stroke-linejoin="round"/>
<path d="M335.982 230.521L331.267 236.807" stroke="#263238" stroke-miterlimit="10" stroke-linecap="round" stroke-linejoin="round"/>
<path d="M334.038 192.417L336.145 197.738C336.145 197.738 331.71 197.96 327.607 198.514C323.505 199.069 313.748 202.95 313.748 202.95C313.748 202.95 314.746 198.958 315.522 198.182C316.298 197.406 319.181 194.522 324.724 193.303C330.269 192.084 334.038 192.417 334.038 192.417Z" fill="#214F6F" stroke="#263238" stroke-miterlimit="10" stroke-linecap="round" stroke-linejoin="round"/>
<path d="M317.993 242.9C317.993 242.9 317.283 251.276 316.362 251.686C315.44 252.096 292.59 244.129 290.952 243.31C289.313 242.491 288.391 242.593 288.084 242.491C287.777 242.389 285.011 242.389 283.987 241.877C282.963 241.365 281.938 240.033 281.631 239.828C281.324 239.623 278.866 239.521 278.149 239.009C277.432 238.497 276.51 238.087 277.125 237.78C277.739 237.473 280.812 236.858 280.812 236.858C280.812 236.858 280.914 235.424 282.143 235.219C283.372 235.014 282.962 235.526 285.933 233.785C288.903 232.044 288.596 233.477 291.157 235.321C293.718 237.165 294.946 239.213 295.254 239.316C295.561 239.418 304.882 242.901 304.882 242.901H317.993V242.9Z" fill="white" stroke="#263238" stroke-miterlimit="10" stroke-linecap="round" stroke-linejoin="round"/>
<path d="M280.812 236.857L285.83 236.242" stroke="#263238" stroke-miterlimit="10" stroke-linecap="round" stroke-linejoin="round"/>
<path d="M297.618 240.131C297.618 240.131 296.205 238.914 295.254 239.315C294.302 239.717 292.921 241.512 292.783 243.722C292.645 245.933 296.236 246.209 296.236 246.209L297.618 240.131Z" fill="#214F6F" stroke="#263238" stroke-miterlimit="10" stroke-linecap="round" stroke-linejoin="round"/>
<path d="M316.49 203.953C314.644 203.953 309.776 205.295 308.265 206.974C306.755 208.653 306.587 213.521 307.09 220.067C307.593 226.598 310.157 238.868 310.169 238.926C310.141 238.788 309.853 239.575 309.773 239.717C309.437 240.316 310.293 240.417 309.497 240.545C309.213 240.591 307.672 240.751 307.391 240.703C306.218 240.502 305.045 240.304 303.873 240.108C301.974 239.791 298.696 239.354 296.762 239.354C296.015 239.354 294.047 245.37 295.169 246.678C296.29 247.987 318.528 256.626 320.024 256.252C321.519 255.878 324.377 236.224 324.333 236.132C324.77 230.745 325.293 224.422 325.387 223.76" fill="#214F6F"/>
<path d="M316.49 203.953C314.644 203.953 309.776 205.295 308.265 206.974C306.755 208.653 306.587 213.521 307.09 220.067C307.593 226.598 310.157 238.868 310.169 238.926C310.141 238.788 309.853 239.575 309.773 239.717C309.437 240.316 310.293 240.417 309.497 240.545C309.213 240.591 307.672 240.751 307.391 240.703C306.218 240.502 305.045 240.304 303.873 240.108C301.974 239.791 298.696 239.354 296.762 239.354C296.015 239.354 294.047 245.37 295.169 246.678C296.29 247.987 318.528 256.626 320.024 256.252C321.519 255.878 324.377 236.224 324.333 236.132C324.77 230.745 325.293 224.422 325.387 223.76" stroke="#263238" stroke-miterlimit="10" stroke-linecap="round" stroke-linejoin="round"/>
<path d="M309.497 240.545C309.497 240.545 311.983 243.169 314.193 244.827" stroke="#263238" stroke-miterlimit="10" stroke-linecap="round" stroke-linejoin="round"/>
<path d="M311.569 244.413C311.569 244.413 313.502 246.209 314.884 246.761" stroke="#263238" stroke-miterlimit="10" stroke-linecap="round" stroke-linejoin="round"/>
<path d="M228.608 190.073C228.15 187.325 226.318 185.492 225.86 183.813C225.402 182.134 224.334 180.148 224.334 180.148C224.334 180.148 221.642 185.606 220.754 190.15L220.35 189.202L212.765 195.152L212.318 208.39L224.62 208.97C224.62 208.97 224.116 206.778 223.946 205.151C223.777 203.522 224.01 200.945 224.225 200.342C224.225 200.342 227.7 200.421 228.006 199.199C228.312 197.978 229.066 192.821 228.608 190.073Z" fill="white" stroke="#263238" stroke-miterlimit="10" stroke-linecap="round" stroke-linejoin="round"/>
<path d="M226.628 185.203C226.628 185.203 227.614 185.562 228.062 185.562C228.51 185.562 229.316 185.651 229.047 186.726C228.778 187.802 228.151 188.16 228.151 188.16L226.628 185.203Z" fill="white" stroke="#263238" stroke-miterlimit="10" stroke-linecap="round" stroke-linejoin="round"/>
<path d="M222.974 338.179C222.974 338.179 221.294 366.769 221.294 367.222C221.294 367.674 219.179 374.774 219.482 375.83C219.783 376.888 222.2 377.19 223.862 377.341C225.523 377.492 228.997 377.945 230.356 377.945C231.715 377.945 236.549 377.642 237.454 377.341C238.361 377.038 239.569 376.133 238.512 375.378C237.454 374.622 234.887 374.32 231.866 370.846C228.846 367.373 228.09 365.862 228.09 365.862L234.454 338.481L222.974 338.179Z" fill="white" stroke="#263238" stroke-miterlimit="10" stroke-linecap="round" stroke-linejoin="round"/>
<path d="M180.534 332.893C180.534 332.893 168.769 362.166 167.862 363.375C166.956 364.583 160.85 372.302 160.699 373.812C160.548 375.322 168.363 375.466 169.722 374.56C171.082 373.654 172.695 365.792 173.602 364.13C174.508 362.469 194.58 335.007 194.58 335.007L180.534 332.893Z" fill="white" stroke="#263238" stroke-miterlimit="10" stroke-linecap="round" stroke-linejoin="round"/>
<path d="M200.349 247.773L200.126 252.686C200.126 252.686 194.004 265.903 188.038 282.316C181.543 300.185 173.099 331.086 173.099 331.086C173.099 331.086 178.683 336.224 193.872 338.681C209.061 341.137 218.511 342.178 226.771 341.928C236.757 341.625 249.489 338.904 249.489 338.904C249.489 338.904 242.342 295.125 236.534 275.245C230.726 255.366 229.345 253.39 229.345 253.39L227.366 242.308L200.349 247.773Z" fill="#8F8F8F" stroke="#263238" stroke-miterlimit="10" stroke-linecap="round" stroke-linejoin="round"/>
<path d="M209.829 281.599L208.166 340.245" stroke="#263238" stroke-miterlimit="10" stroke-linecap="round" stroke-linejoin="round"/>
<path d="M209.953 277.257L209.887 279.562" stroke="#263238" stroke-miterlimit="10" stroke-linecap="round" stroke-linejoin="round"/>
<path d="M222.636 253.833C223.569 253.638 224.484 253.406 225.365 253.134" stroke="#263238" stroke-miterlimit="10" stroke-linecap="round" stroke-linejoin="round"/>
<path d="M202.805 254.25C202.805 254.25 211.103 255.375 219.217 254.389" stroke="#263238" stroke-miterlimit="10" stroke-linecap="round" stroke-linejoin="round"/>
<path d="M256.005 190.003C256.005 190.003 255.349 187.05 255.24 185.081C255.13 183.112 253.271 180.486 253.489 179.393C253.708 178.299 254.802 178.408 255.349 178.737C255.896 179.065 256.552 180.158 256.552 180.158C256.552 180.158 258.083 175.454 258.083 173.377C258.083 171.298 259.396 171.518 259.942 172.939C260.49 174.362 259.724 179.83 259.724 179.83C259.724 179.83 261.802 180.378 262.786 180.814C263.771 181.252 265.63 182.127 265.302 184.862C264.974 187.596 264.646 189.128 263.989 189.128C263.333 189.128 262.786 188.253 262.786 188.253C262.786 188.253 262.786 191.206 261.802 192.082C260.817 192.957 258.848 193.066 258.848 193.066C258.848 193.066 259.069 190.878 256.005 190.003Z" fill="white" stroke="#263238" stroke-miterlimit="10" stroke-linecap="round" stroke-linejoin="round"/>
<path d="M262.788 188.253C262.788 188.253 263.444 185.737 263.444 185.409" stroke="#263238" stroke-miterlimit="10" stroke-linecap="round" stroke-linejoin="round"/>
<path d="M256.553 180.158L255.897 183.222" stroke="#263238" stroke-miterlimit="10" stroke-linecap="round" stroke-linejoin="round"/>
<path d="M253.286 193.064L255.347 189.577C255.347 189.577 256.14 188.467 258.042 189.102C258.062 189.108 258.08 189.114 258.099 189.121C259.826 189.704 260.782 191.551 260.312 193.312L259.786 195.284C259.786 195.284 255.664 192.906 253.286 193.064Z" fill="#214F6F" stroke="#263238" stroke-miterlimit="10" stroke-linecap="round" stroke-linejoin="round"/>
<path d="M167.284 262.979C167.284 262.979 167.782 265.592 168.03 267.458C168.279 269.325 169.523 273.058 170.394 273.555C171.266 274.053 172.385 274.675 171.141 275.048C169.897 275.422 169.15 275.546 168.03 274.674C166.91 273.803 166.164 272.808 166.164 272.808C166.164 272.808 165.293 276.666 164.671 278.532C164.049 280.398 162.182 283.385 162.182 283.385C162.182 283.385 162.122 284.382 161.375 284.754C160.629 285.128 160.097 283.642 160.097 283.642C160.097 283.642 159.096 285.978 158.45 283.509C158.196 282.538 157.33 276.043 157.454 274.799C157.579 273.555 162.61 262.022 162.61 262.022L167.284 262.979Z" fill="white" stroke="#263238" stroke-miterlimit="10" stroke-linecap="round" stroke-linejoin="round"/>
<path d="M160.214 276.667C159.818 277.391 159.445 278.305 159.445 278.657C159.445 279.154 160.096 283.643 160.096 283.643" stroke="#263238" stroke-miterlimit="10" stroke-linecap="round" stroke-linejoin="round"/>
<path d="M162.182 283.386L161.542 279.029L162.68 276.169" stroke="#263238" stroke-miterlimit="10" stroke-linecap="round" stroke-linejoin="round"/>
<path d="M163.053 281.892C163.053 281.892 163.104 279.547 163.265 278.473C163.426 277.398 163.698 277.593 164.048 276.293" stroke="#263238" stroke-miterlimit="10" stroke-linecap="round" stroke-linejoin="round"/>
<path d="M164.297 270.445C164.297 270.445 164.173 271.565 163.302 272.435C162.431 273.306 160.689 274.55 160.689 274.55" stroke="#263238" stroke-miterlimit="10" stroke-linecap="round" stroke-linejoin="round"/>
<path d="M197.644 210.026C197.644 210.026 187.498 214.941 186.864 216.209C186.23 217.477 173.548 240.146 171.804 242.366C170.06 244.585 164.67 247.438 164.036 249.658C163.402 251.877 163.878 257.901 163.878 257.901L162.61 262.022C162.61 262.022 162.768 263.449 164.987 263.925C167.206 264.4 167.206 264.4 167.206 264.4L171.011 260.754C171.011 260.754 179.254 258.693 182.583 254.73C185.912 250.766 193.997 232.219 193.997 232.219L192.729 244.742C192.729 244.742 200.972 246.01 210.801 245.218C220.63 244.426 231.409 242.841 231.409 242.841L229.982 228.257C229.982 228.257 253.444 224.452 254.712 223.342C255.98 222.233 257.09 219.221 257.249 218.111C257.407 217.002 261.37 195.759 261.37 195.759C261.37 195.759 259.944 193.382 256.614 192.747C253.286 192.113 249.956 193.857 249.798 194.808C249.639 195.759 242.822 209.55 242.822 209.55C242.822 209.55 242.347 209.234 240.603 210.026C238.859 210.819 235.789 209.579 235.789 209.579C235.789 209.579 229.666 207.807 226.178 208.124C222.69 208.441 219.361 208.917 219.361 208.917C219.361 208.917 213.178 206.063 208.581 207.331C203.985 208.6 197.644 210.026 197.644 210.026Z" fill="#214F6F" stroke="#263238" stroke-miterlimit="10" stroke-linecap="round" stroke-linejoin="round"/>
<path d="M219.521 229.683L229.983 228.257L223.008 231.902" stroke="#263238" stroke-miterlimit="10" stroke-linecap="round" stroke-linejoin="round"/>
<path d="M194.157 225.086L193.998 232.22L191.62 229.208" stroke="#263238" stroke-miterlimit="10" stroke-linecap="round" stroke-linejoin="round"/>
<path d="M165.305 258.534C165.305 258.534 165.78 260.12 169.585 260.12" stroke="#263238" stroke-miterlimit="10" stroke-linecap="round" stroke-linejoin="round"/>
<path d="M206.239 197.292C211.444 201.308 215.823 198.882 217.7 197.006C219.985 194.721 219.967 191.726 221.453 188.874C221.651 187.827 225.096 184.187 225.363 183.322C225.973 181.338 224.791 177.858 224.791 177.858C224.791 177.858 228.15 178.315 226.623 174.957C225.095 171.598 223.722 170.377 220.515 170.071C217.309 169.766 215.477 172.362 215.477 172.362C215.477 172.362 211.66 170.53 209.064 171.903C206.468 173.278 202.705 171.931 199.638 181.211C199.363 182.042 198.749 183.48 198.699 184.495C198.567 187.188 200.107 189.115 201.641 191.333C204.003 194.749 202.967 194.769 206.239 197.292Z" fill="#263238" stroke="#263238" stroke-miterlimit="10" stroke-linecap="round" stroke-linejoin="round"/>
<path d="M212.467 192.921C212.467 195.057 210.736 196.788 208.6 196.788C206.464 196.788 204.733 195.057 204.733 192.921C204.733 190.785 206.464 189.053 208.6 189.053C210.736 189.053 212.467 190.785 212.467 192.921Z" fill="white" stroke="#263238" stroke-miterlimit="10" stroke-linecap="round" stroke-linejoin="round"/>
<path d="M201.547 200.059C201.574 202.461 201.574 204.817 199.403 206.445C197.023 208.229 187.801 215.082 192.858 222.073C197.914 229.063 198.635 227.129 198.189 229.509C197.742 231.889 187.926 238.433 189.711 244.233C191.496 250.034 198.784 253.306 197.743 255.537C196.702 257.769 199.974 268.775 212.617 262.974C225.259 257.173 224.382 247.185 219.31 235.905C218.138 233.299 218.688 229.965 223.447 224.611C228.206 219.257 224.621 208.969 219.607 203.778C216.649 200.715 215.442 198.275 215.591 197.68C215.74 197.085 210.981 190.094 206.965 192.177C204.471 193.469 202.136 195.942 201.631 198.848C201.563 199.234 201.542 199.641 201.547 200.059Z" fill="#263238" stroke="#263238" stroke-miterlimit="10" stroke-linecap="round" stroke-linejoin="round"/>
<path d="M221.454 188.874C221.454 188.874 219.89 186.685 218.795 189.03C217.701 191.376 219.03 193.722 220.124 194.582C221.218 195.442 222.001 192.314 222.001 192.314" fill="white"/>
<path d="M221.454 188.874C221.454 188.874 219.89 186.685 218.795 189.03C217.701 191.376 219.03 193.722 220.124 194.582C221.218 195.442 222.001 192.314 222.001 192.314" stroke="#263238" stroke-miterlimit="10" stroke-linecap="round" stroke-linejoin="round"/>
<path d="M237.453 377.342C238.36 377.039 239.568 376.134 238.511 375.378C237.453 374.623 234.886 374.321 231.865 370.847L231.705 373.551C231.705 373.551 224.921 373.274 220.067 372.146C219.666 373.818 219.352 375.378 219.481 375.831C219.782 376.889 222.199 377.19 223.861 377.342C225.522 377.493 228.996 377.946 230.355 377.946C231.714 377.946 236.547 377.643 237.453 377.342Z" fill="#214F6F" stroke="#263238" stroke-miterlimit="10" stroke-linecap="round" stroke-linejoin="round"/>
<path d="M169.722 374.56C170.284 374.186 170.889 372.619 171.47 370.798C168.173 371.019 164.889 370.28 163.077 369.763C161.802 371.567 160.76 373.201 160.699 373.813C160.548 375.322 168.363 375.466 169.722 374.56Z" fill="#214F6F" stroke="#263238" stroke-miterlimit="10" stroke-linecap="round" stroke-linejoin="round"/>
<path d="M64.7794 300.633H58.0674V312.546H64.7794V300.633Z" fill="#263238" stroke="#263238" stroke-miterlimit="10" stroke-linecap="round" stroke-linejoin="round"/>
<path d="M65.1169 304.256H56.6953C49.7889 304.256 44.1897 298.657 44.1897 291.75V265.616C44.1897 258.71 49.7889 253.11 56.6953 253.11H65.1169C72.0233 253.11 77.6225 258.71 77.6225 265.616V291.75C77.6233 298.658 72.0241 304.256 65.1169 304.256Z" fill="#949494" stroke="#263238" stroke-miterlimit="10" stroke-linecap="round" stroke-linejoin="round"/>
<path d="M50.8849 374.979C50.8849 373.411 49.6137 372.14 48.0457 372.14C46.4777 372.14 45.2065 373.411 45.2065 374.979C45.2065 376.547 46.4777 377.818 48.0457 377.818C49.6137 377.818 50.8849 376.547 50.8849 374.979Z" fill="#263238" stroke="#263238" stroke-miterlimit="10" stroke-linecap="round" stroke-linejoin="round"/>
<path d="M106.354 374.979C106.354 373.411 105.082 372.14 103.514 372.14C101.946 372.14 100.675 373.411 100.675 374.979C100.675 376.547 101.946 377.818 103.514 377.818C105.082 377.818 106.354 376.547 106.354 374.979Z" fill="#263238" stroke="#263238" stroke-miterlimit="10" stroke-linecap="round" stroke-linejoin="round"/>
<path d="M77.1594 374.979C77.1594 373.411 76.569 372.14 75.8402 372.14C75.1114 372.14 74.521 373.411 74.521 374.979C74.521 376.547 75.1114 377.818 75.8402 377.818C76.569 377.818 77.1594 376.547 77.1594 374.979Z" fill="#263238" stroke="#263238" stroke-miterlimit="10" stroke-linecap="round" stroke-linejoin="round"/>
<path d="M78.4241 359.57V318.871H72.8513V359.737L45.3489 370.615V373.35H49.3449V371.036L75.8481 365.566L102.351 371.036V373.35H106.347V370.615L78.4241 359.57Z" fill="#263238" stroke="#263238" stroke-miterlimit="10" stroke-linecap="round" stroke-linejoin="round"/>
<path d="M74.4465 373.341H77.2337L77.8313 360.129H73.8489L74.4465 373.341Z" fill="#263238" stroke="#263238" stroke-miterlimit="10" stroke-linecap="round" stroke-linejoin="round"/>
<path d="M82.7153 317.32H68.5449V325.733H82.7153V317.32Z" fill="#263238" stroke="#263238" stroke-miterlimit="10" stroke-linecap="round" stroke-linejoin="round"/>
<path d="M95.6986 320.419H54.2337C51.6217 320.419 49.5042 318.302 49.5042 315.69V314.3C49.5042 311.688 51.6217 309.57 54.2337 309.57H95.6986C98.3106 309.57 100.428 311.688 100.428 314.3V315.69C100.428 318.302 98.3106 320.419 95.6986 320.419Z" fill="#949494" stroke="#263238" stroke-miterlimit="10" stroke-linecap="round" stroke-linejoin="round"/>
<path d="M135.894 334.728L140.122 340.994L145.134 340.68C145.134 340.68 152.482 340.773 153.735 340.459C154.988 340.146 155.458 341.242 154.831 342.495C154.205 343.748 148.748 347.658 145.929 349.382C143.11 351.105 136.99 353.837 136.206 353.993C135.423 354.15 134.483 352.583 132.761 347.727C131.038 342.871 127.905 338.016 127.905 338.016L135.894 334.728Z" fill="white" stroke="#263238" stroke-miterlimit="10" stroke-linecap="round" stroke-linejoin="round"/>
<path d="M154.831 342.496C155.458 341.243 154.988 340.146 153.735 340.46C152.482 340.774 145.134 340.681 145.134 340.681L140.122 340.994C140.279 343.814 140.906 345.223 140.906 345.223C140.906 345.223 133.857 346.946 132.761 347.73C134.484 352.585 135.423 354.151 136.206 353.995C136.99 353.838 143.11 351.106 145.929 349.384C148.749 347.659 154.205 343.749 154.831 342.496Z" fill="white" stroke="#263238" stroke-miterlimit="10" stroke-linecap="round" stroke-linejoin="round"/>
<path d="M154.614 340.525C153.584 341.614 151.846 343.142 148.914 345.071C144.11 348.231 137.48 351.1 134.598 352.287C135.262 353.61 135.761 354.084 136.207 353.995C136.99 353.838 143.11 351.106 145.93 349.383C148.749 347.66 154.206 343.75 154.832 342.497C155.275 341.608 155.16 340.81 154.614 340.525Z" fill="#214F6F" stroke="#263238" stroke-miterlimit="10" stroke-linecap="round" stroke-linejoin="round"/>
<path d="M124.926 285.017C125.514 283.709 130.194 300.829 133.947 317.164C136.478 328.181 138.698 334.79 138.698 334.79C138.698 334.79 135.11 337.861 132.918 338.957C130.725 340.053 126.966 341.464 126.966 341.464C126.966 341.464 121.366 329.288 118.233 323.179C115.1 317.07 114.223 312.985 111.717 308.441C109.21 303.899 108.575 295.719 108.575 295.719C108.575 295.719 107.009 287.888 112.961 285.851C118.913 283.815 123.203 282.824 124.926 285.017Z" fill="#214F6F" stroke="#263238" stroke-miterlimit="10" stroke-linecap="round" stroke-linejoin="round"/>
<path d="M108.366 350.909C108.366 350.909 107.284 357.623 106.554 360.073C105.823 362.522 103.805 366.979 104.439 368.089C105.075 369.198 108.415 370.332 110.121 370.473C111.827 370.614 114.008 373.402 117.182 374.556C120.356 375.71 124.543 375.394 124.447 374.561C124.351 373.727 115.056 363.482 114.6 361.002C114.144 358.52 115.777 350.729 115.777 350.729L108.366 350.909Z" fill="white" stroke="#263238" stroke-miterlimit="10" stroke-linecap="round" stroke-linejoin="round"/>
<path d="M113.441 362.654C113.185 363.36 113.185 363.36 113.185 363.36C113.185 363.36 108.886 362.884 105.935 361.901C105.071 364.303 103.943 367.22 104.44 368.088C105.075 369.198 108.416 370.331 110.122 370.472C111.827 370.613 114.008 373.402 117.183 374.555C120.357 375.709 124.544 375.394 124.447 374.56C124.351 373.726 115.057 363.482 114.601 361.001C114.601 361.001 113.697 361.949 113.441 362.654Z" fill="white" stroke="#263238" stroke-miterlimit="10" stroke-linecap="round" stroke-linejoin="round"/>
<path d="M116.99 372.888C114.482 371.658 112.211 369.555 108.871 368.421C106.694 367.682 105.183 367.083 104.391 366.755C104.287 367.347 104.284 367.818 104.439 368.089C105.075 369.198 108.415 370.332 110.121 370.473C111.827 370.614 114.007 373.402 117.182 374.556C120.208 375.656 124.147 375.419 124.424 374.672C122.334 374.362 118.715 373.734 116.99 372.888Z" fill="#214F6F" stroke="#263238" stroke-miterlimit="10" stroke-linecap="round" stroke-linejoin="round"/>
<path d="M106.705 300.454C106.705 300.454 119.078 301.863 120.018 308.129C120.958 314.394 118.766 353.395 118.766 353.395C118.766 353.395 115.79 353.552 113.283 353.082C110.777 352.612 106.548 351.672 106.548 351.672C106.548 351.672 105.922 338.358 105.138 333.033C104.355 327.707 103.729 312.201 103.729 312.201C103.729 312.201 83.0537 310.478 81.1737 309.225C79.2945 307.972 106.705 300.454 106.705 300.454Z" fill="#214F6F" stroke="#263238" stroke-miterlimit="10" stroke-linecap="round" stroke-linejoin="round"/>
<path d="M122.986 296.033C122.986 296.033 92.4513 308.129 85.4025 310.477C78.3545 312.827 70.6793 312.201 65.8233 310.634C60.9673 309.068 58.5857 302.833 58.5857 302.833C58.5857 302.833 57.3649 301.393 57.9913 299.983C58.6177 298.573 68.6425 289.645 74.7513 288.079C80.8601 286.513 91.9089 287.197 91.9089 287.197C91.9089 287.197 118.599 280.369 121.889 280.839C125.178 281.309 127.792 293.014 128.262 294.581" fill="#214F6F"/>
<path d="M122.986 296.033C122.986 296.033 92.4513 308.129 85.4025 310.477C78.3545 312.827 70.6793 312.201 65.8233 310.634C60.9673 309.068 58.5857 302.833 58.5857 302.833C58.5857 302.833 57.3649 301.393 57.9913 299.983C58.6177 298.573 68.6425 289.645 74.7513 288.079C80.8601 286.513 91.9089 287.197 91.9089 287.197C91.9089 287.197 118.599 280.369 121.889 280.839C125.178 281.309 127.792 293.014 128.262 294.581" stroke="#263238" stroke-miterlimit="10" stroke-linecap="round" stroke-linejoin="round"/>
<path d="M65.6672 304.056C65.6672 304.056 67.86 295.442 73.6552 291.838" stroke="#263238" stroke-miterlimit="10" stroke-linecap="round" stroke-linejoin="round"/>
<path d="M64.4146 298.261C64.4146 298.261 66.7642 294.658 69.897 293.875" stroke="#263238" stroke-miterlimit="10" stroke-linecap="round" stroke-linejoin="round"/>
<path d="M88.8776 240.451C88.8776 240.451 91.0424 242.797 93.568 248.93C96.0936 255.064 100.191 273.634 100.191 273.634C100.191 273.634 98.116 274.497 96.492 274.497C94.868 274.497 92.7088 274.716 91.8064 273.634C90.904 272.551 88.336 264.085 88.336 264.085C88.336 264.085 87.0736 253.802 86.712 248.57C86.3512 243.338 84.7272 242.255 86.3512 240.632C87.9752 239.008 88.8776 240.451 88.8776 240.451Z" fill="white" stroke="#263238" stroke-miterlimit="10" stroke-linecap="round" stroke-linejoin="round"/>
<path d="M82.6872 236.758C82.6872 236.758 87.34 237.888 88.8776 240.451C90.416 243.014 89.7304 248.877 89.7304 248.877C89.7304 248.877 93.832 260.796 93.0624 263.616C92.2936 266.436 89.2176 270.537 89.2176 270.537C89.2176 270.537 89.4736 279.765 90.2432 281.559C91.012 283.354 91.9096 287.198 91.9096 287.198C91.9096 287.198 89.7304 288.737 82.5536 289.762C75.3768 290.787 69.4808 291.3 67.0456 293.222C64.6104 295.145 59.2272 302.45 58.5864 302.835C57.9456 303.22 57.4288 301.785 56.916 300.759C56.4032 299.734 56.528 296.648 57.6816 292.034C58.8352 287.419 59.4424 274.022 57.8344 265.551C56.092 256.37 55.1256 255.042 56.1504 249.019C57.176 242.995 71.408 233.811 73.4592 233.427C75.5096 233.042 82.6872 236.758 82.6872 236.758Z" fill="white" stroke="#263238" stroke-miterlimit="10" stroke-linecap="round" stroke-linejoin="round"/>
<path d="M60.0281 295.128C60.0281 295.128 63.9441 290.586 65.8233 289.802C67.7033 289.019 80.8601 289.019 80.8601 289.019" stroke="white" stroke-miterlimit="10" stroke-linecap="round" stroke-linejoin="round"/>
<path d="M62.8481 289.333C62.8481 289.333 65.0409 288.08 66.7641 287.767C68.4873 287.453 73.0297 287.767 73.0297 287.767" stroke="white" stroke-miterlimit="10" stroke-linecap="round" stroke-linejoin="round"/>
<path d="M69.7393 273.67C69.7393 273.67 75.6913 271.634 81.1737 266.308" stroke="#263238" stroke-miterlimit="10" stroke-linecap="round" stroke-linejoin="round"/>
<path d="M82.8937 204.612C82.8937 204.612 84.6241 208.303 85.2009 209.457C85.7777 210.61 85.5473 212.571 86.0081 214.186C86.4697 215.801 89.1225 216.839 89.1225 217.762C89.1225 218.685 88.0841 220.531 88.0841 220.531C88.0841 220.531 87.5073 227.683 86.5849 228.49C85.6625 229.297 81.8553 229.529 81.8553 229.529L81.5337 236.375L83.7129 237.657C83.7129 237.657 84.0977 245.218 83.7129 247.91C83.3281 250.601 82.1297 251.168 78.7089 249.134C74.9121 246.877 69.9993 240.861 69.4865 239.58C68.9737 238.298 70.5513 233.797 68.2449 226.415C65.9377 219.033 71.0137 212.342 74.3585 209.228C77.7025 206.111 79.3177 204.035 82.8937 204.612Z" fill="white" stroke="#263238" stroke-miterlimit="10" stroke-linecap="round" stroke-linejoin="round"/>
<path d="M82.8936 204.612C82.7784 202.536 82.5472 201.728 78.2792 201.267C74.0112 200.806 64.8984 200.46 61.3232 206.804C57.7472 213.148 57.7472 226.99 57.7472 226.99C57.7472 226.99 48.4672 232.786 47.8256 237.4C47.1848 242.014 50.2608 246.372 55.1312 247.91C55.2232 247.938 55.3208 247.961 55.4168 247.986C55.844 246.146 56.632 243.811 58.0784 242.076C60.8496 238.751 63.2512 239.12 66.7616 238.197C70.3272 237.258 72.508 237.034 73.0264 233.026C73.5488 228.994 73.3944 226.514 73.0888 222.838C72.9736 221.454 74.4728 219.377 74.4728 219.377C74.4728 219.377 78.0488 220.3 80.356 214.07C82.6624 207.842 83.0088 206.688 82.8936 204.612Z" fill="#263238" stroke="#263238" stroke-miterlimit="10" stroke-linecap="round" stroke-linejoin="round"/>
<path d="M75.9719 221.107C75.9719 221.107 74.8183 215.801 71.8191 217.878C68.8199 219.954 73.3183 225.837 74.0111 225.952C74.7031 226.067 75.8567 225.375 75.8567 225.375" fill="white"/>
<path d="M75.9719 221.107C75.9719 221.107 74.8183 215.801 71.8191 217.878C68.8199 219.954 73.3183 225.837 74.0111 225.952C74.7031 226.067 75.8567 225.375 75.8567 225.375" stroke="#263238" stroke-miterlimit="10" stroke-linecap="round" stroke-linejoin="round"/>
<path d="M81.8553 229.527L78.2793 229.066L81.6465 229.658L81.8553 229.527Z" fill="#263238" stroke="#263238" stroke-miterlimit="10" stroke-linecap="round" stroke-linejoin="round"/>
<path d="M85.6504 215.508C85.8008 216.29 85.644 216.978 85.3 217.044C84.956 217.11 84.5552 216.53 84.4048 215.748C84.2544 214.966 84.4112 214.278 84.7552 214.212C85.0984 214.146 85.4992 214.726 85.6504 215.508Z" fill="#263238"/>
<path d="M67.2831 252.234L66.0823 250.737" stroke="#263238" stroke-miterlimit="10" stroke-linecap="round" stroke-linejoin="round"/>
<path d="M62.9928 238.024C62.9928 238.024 58.5216 237.87 55.1296 242.65C51.7376 247.43 52.9712 253.442 53.896 255.91C54.8208 258.377 62.2224 272.87 63.3016 274.721C64.3808 276.571 68.236 279.192 69.1608 279.501C70.0856 279.809 73.1696 262.849 72.8616 261.306C72.5536 259.765 65.4608 248.971 65.4608 248.971" fill="white"/>
<path d="M62.9928 238.024C62.9928 238.024 58.5216 237.87 55.1296 242.65C51.7376 247.43 52.9712 253.442 53.896 255.91C54.8208 258.377 62.2224 272.87 63.3016 274.721C64.3808 276.571 68.236 279.192 69.1608 279.501C70.0856 279.809 73.1696 262.849 72.8616 261.306C72.5536 259.765 65.4608 248.971 65.4608 248.971" stroke="#263238" stroke-miterlimit="10" stroke-linecap="round" stroke-linejoin="round"/>
<path d="M66.0832 278.7C66.0832 278.7 63.1785 278.365 62.0425 278.524C60.9065 278.683 61.1641 278.875 61.7793 279.49C62.3945 280.105 63.7121 279.841 63.7121 279.841L66.0832 278.7Z" stroke="#263238" stroke-miterlimit="10" stroke-linecap="round" stroke-linejoin="round"/>
<path d="M98.5609 269.653C99.7785 270.783 102.474 278.174 97.2569 279.218C92.0401 280.261 78.3025 278.87 77.7801 279.391C77.2585 279.913 72.9105 283.304 71.9545 283.999C70.9977 284.695 68.8241 285.478 68.8241 285.478C68.8241 285.478 66.8241 287.042 66.3025 286.695C65.7809 286.348 66.8241 285.478 66.8241 285.478C66.8241 285.478 64.7377 286.695 64.0417 286.782C63.3465 286.869 63.4329 285.825 63.4329 285.825C63.0849 286.086 62.3897 285.998 62.3897 285.998C62.3897 285.998 62.1289 285.216 62.7377 284.52C63.3465 283.825 66.3025 280.955 66.3025 280.955C66.3025 280.955 64.4769 281.564 64.3025 281.825C64.1289 282.086 63.0849 282.781 62.4769 283.303C61.8681 283.825 61.3465 283.738 61.1729 283.303C60.9993 282.869 61.9425 281.402 62.9457 280.399C63.9497 279.395 69.1353 277.388 70.1393 277.388C71.1433 277.388 79.6745 274.711 79.6745 274.711C79.6745 274.711 95.3441 269.305 95.7785 269.13" fill="white"/>
<path d="M98.5609 269.653C99.7785 270.783 102.474 278.174 97.2569 279.218C92.0401 280.261 78.3025 278.87 77.7801 279.391C77.2585 279.913 72.9105 283.304 71.9545 283.999C70.9977 284.695 68.8241 285.478 68.8241 285.478C68.8241 285.478 66.8241 287.042 66.3025 286.695C65.7809 286.348 66.8241 285.478 66.8241 285.478C66.8241 285.478 64.7377 286.695 64.0417 286.782C63.3465 286.869 63.4329 285.825 63.4329 285.825C63.0849 286.086 62.3897 285.998 62.3897 285.998C62.3897 285.998 62.1289 285.216 62.7377 284.52C63.3465 283.825 66.3025 280.955 66.3025 280.955C66.3025 280.955 64.4769 281.564 64.3025 281.825C64.1289 282.086 63.0849 282.781 62.4769 283.303C61.8681 283.825 61.3465 283.738 61.1729 283.303C60.9993 282.869 61.9425 281.402 62.9457 280.399C63.9497 279.395 69.1353 277.388 70.1393 277.388C71.1433 277.388 79.6745 274.711 79.6745 274.711C79.6745 274.711 95.3441 269.305 95.7785 269.13" stroke="#263238" stroke-miterlimit="10" stroke-linecap="round" stroke-linejoin="round"/>
<path d="M85.0256 272.894C85.0256 272.894 86.8752 275.606 84.532 279.182" stroke="#263238" stroke-miterlimit="10" stroke-linecap="round" stroke-linejoin="round"/>
<path d="M63.4329 285.825L66.6985 283.092L68.4553 281.686" stroke="#263238" stroke-miterlimit="10" stroke-linecap="round" stroke-linejoin="round"/>
<path d="M66.824 285.477C66.824 285.477 69.4216 283.355 69.6848 283.267" stroke="#263238" stroke-miterlimit="10" stroke-linecap="round" stroke-linejoin="round"/>
<path d="M63.3008 267.782C63.4472 270.948 62.4992 275.515 67.132 278.433C69.3592 279.835 72.6624 281.159 74.3656 277.499C76.0688 273.838 77.2368 241 77.2368 241C77.2368 241 77.2368 241 79.1848 240.469C81.132 239.938 82.2056 236.728 82.2056 236.728C82.2056 236.728 81.3088 237.813 82.1944 238.698C83.0792 239.584 86.6208 235.866 86.7976 234.803C86.9744 233.741 84.496 230.377 84.496 230.377C84.496 230.377 85.5584 229.846 85.3816 228.43C85.2048 227.013 80.3024 228.397 80.3024 228.397L77.4144 232.147C77.4144 232.147 73.1656 237.636 72.8112 239.052C72.5168 240.228 68.4704 252.99 66.1408 258.657" fill="white"/>
<path d="M63.3008 267.782C63.4472 270.948 62.4992 275.515 67.132 278.433C69.3592 279.835 72.6624 281.159 74.3656 277.499C76.0688 273.838 77.2368 241 77.2368 241C77.2368 241 77.2368 241 79.1848 240.469C81.132 239.938 82.2056 236.728 82.2056 236.728C82.2056 236.728 81.3088 237.813 82.1944 238.698C83.0792 239.584 86.6208 235.866 86.7976 234.803C86.9744 233.741 84.496 230.377 84.496 230.377C84.496 230.377 85.5584 229.846 85.3816 228.43C85.2048 227.013 80.3024 228.397 80.3024 228.397L77.4144 232.147C77.4144 232.147 73.1656 237.636 72.8112 239.052C72.5168 240.228 68.4704 252.99 66.1408 258.657" stroke="#263238" stroke-miterlimit="10" stroke-linecap="round" stroke-linejoin="round"/>
<path d="M69.8591 248.604L76.2711 251.07" stroke="#263238" stroke-miterlimit="10" stroke-linecap="round" stroke-linejoin="round"/>
</svg>
