<svg width="400" height="400" viewBox="0 0 400 400" fill="none" xmlns="http://www.w3.org/2000/svg">
<path d="M63.0864 0H62.2864V108.427H63.0864V0Z" fill="#C7C7C7"/>
<path d="M100.337 144.72L97.3089 151.377H28.0561L25.0369 144.72L54.5201 124.312H70.8537L100.337 144.72Z" fill="#EBEBEB"/>
<path d="M72.9002 104.65L70.8538 124.312H54.5202L52.4746 104.65H72.9002Z" fill="#DBDBDB"/>
<path d="M100.334 144.722L97.3057 151.38H28.0529L25.0337 144.722H100.334Z" fill="#DBDBDB"/>
<path d="M143.928 0H143.128V86.9504H143.928V0Z" fill="#C7C7C7"/>
<path d="M181.178 123.243L178.15 129.9H108.898L105.878 123.243L135.362 102.836H151.695L181.178 123.243Z" fill="#EBEBEB"/>
<path d="M153.741 83.1736L151.695 102.836H135.362L133.315 83.1736H153.741Z" fill="#DBDBDB"/>
<path d="M181.175 123.246L178.147 129.903H108.894L105.875 123.246H181.175Z" fill="#DBDBDB"/>
<path d="M38.7992 178.675L30.904 191.403L34.8256 193.832C35.9696 194.541 36.568 195.84 36.4544 197.181C36.3928 197.906 36.3688 198.635 36.384 199.366C36.4112 200.724 35.724 201.996 34.5264 202.638L30.4856 204.806L37.5672 218.01L41.6072 215.844C42.7688 215.221 44.188 215.285 45.268 216.042C45.9216 216.5 46.5984 216.919 47.296 217.298C48.4576 217.928 49.1504 219.172 49.1088 220.493L48.9632 225.076L63.9344 225.542L64.0728 220.942C64.1128 219.614 64.9024 218.432 66.1048 217.869C66.4552 217.705 66.8016 217.53 67.1456 217.346C67.4888 217.162 67.8264 216.97 68.156 216.769C69.2848 216.082 70.6992 216.077 71.8232 216.773L75.7496 219.205L83.6448 206.477L79.7128 204.036C78.572 203.328 77.9752 202.03 78.0912 200.691C78.1536 199.968 78.1784 199.24 78.1648 198.51C78.1392 197.153 78.8256 195.883 80.0224 195.242L84.064 193.074L76.9824 179.87L72.9408 182.038C71.7448 182.679 70.3064 182.549 69.1904 181.777C68.5904 181.362 67.9712 180.98 67.3344 180.632C66.156 179.988 65.4032 178.774 65.4448 177.43L65.5872 172.804L50.6168 172.338L50.4736 176.934C50.432 178.278 49.6088 179.446 48.3944 180.021C48.0608 180.178 47.7296 180.346 47.4 180.522C47.0744 180.697 46.7536 180.879 46.44 181.07C45.2848 181.767 43.8504 181.806 42.704 181.094L38.7992 178.675ZM50.1136 188.973C56.7104 184.285 65.8432 187.041 68.7448 194.595C70.72 199.738 68.9248 205.713 64.4352 208.906C57.8408 213.598 48.684 210.834 45.7864 203.278C43.8136 198.135 45.6232 192.164 50.1136 188.973Z" fill="#EBEBEB"/>
<path d="M367.174 54.396C366.486 53.9992 366.106 53.2432 366.147 52.4496C366.158 52.2344 366.164 52.0176 366.164 51.8008C366.164 51.5808 366.158 51.3632 366.147 51.1472C366.107 50.3568 366.484 49.6032 367.17 49.208L369.515 47.8552L365.109 40.2176L362.765 41.5688C362.077 41.9656 361.231 41.9264 360.566 41.492C360.201 41.2528 359.822 41.0328 359.43 40.8336C358.725 40.4744 358.272 39.7624 358.272 38.9712V36.2712H349.452V38.9712C349.452 39.7624 348.999 40.4744 348.294 40.8336C347.903 41.0328 347.523 41.2528 347.158 41.492C346.493 41.9264 345.647 41.9656 344.959 41.5688L342.615 40.2176L338.209 47.8552L340.563 49.2152C341.248 49.6104 341.624 50.3624 341.584 51.152C341.573 51.3672 341.567 51.584 341.567 51.8008C341.567 52.0184 341.573 52.2344 341.584 52.4496C341.625 53.2432 341.246 53.9984 340.558 54.3944L338.21 55.7464L342.616 63.3832L344.954 62.0328C345.641 61.6352 346.486 61.6736 347.151 62.1072C347.518 62.3472 347.9 62.5672 348.294 62.7672C348.999 63.1256 349.453 63.8384 349.453 64.6304V67.3296H358.273V64.6304C358.273 63.8384 358.726 63.1256 359.432 62.7672C359.826 62.5672 360.206 62.3472 360.574 62.1072C361.238 61.6736 362.084 61.6352 362.771 62.0328L365.108 63.3832L369.514 55.7464L367.174 54.396ZM353.865 59.0264C349.876 59.0264 346.638 55.7888 346.638 51.8C346.638 47.8112 349.876 44.5808 353.865 44.5808C357.854 44.5808 361.084 47.8112 361.084 51.8C361.085 55.7888 357.854 59.0264 353.865 59.0264Z" fill="#EBEBEB"/>
<path d="M168.733 255.089C168.101 254.734 167.705 254.022 167.696 253.3C167.694 252.939 167.724 252.581 167.704 252.222C167.695 251.865 167.659 251.496 167.765 251.145C167.858 250.794 168.041 250.467 168.297 250.209C168.55 249.942 168.889 249.79 169.193 249.605L171.058 248.519L171.046 248.564L166.604 240.947L166.705 240.974L164.254 242.414C163.812 242.639 163.29 242.703 162.803 242.595C162.302 242.494 161.902 242.178 161.498 241.97L160.885 241.624C160.663 241.506 160.458 241.355 160.286 241.171C159.938 240.806 159.717 240.318 159.679 239.809L159.646 236.963L159.831 237.148L151.011 237.234L151.282 236.963L151.305 239.818C151.274 240.36 151.049 240.888 150.682 241.286C150.5 241.488 150.282 241.654 150.045 241.786L149.444 242.141L148.842 242.498C148.612 242.642 148.358 242.753 148.09 242.812C147.556 242.938 146.977 242.874 146.481 242.63L143.998 241.217L144.482 241.086L140.105 248.74L139.962 248.209L142.441 249.634C142.916 249.946 143.267 250.434 143.426 250.969C143.51 251.236 143.542 251.516 143.535 251.794L143.515 252.493L143.53 253.192C143.534 253.468 143.5 253.747 143.416 254.013C143.254 254.545 142.903 255.026 142.432 255.334L139.95 256.756L140.086 256.254L144.457 263.911L144.01 263.791L146.499 262.392C146.987 262.156 147.555 262.098 148.076 262.225C148.338 262.285 148.585 262.394 148.81 262.535L149.413 262.893L150.016 263.249C150.248 263.377 150.462 263.539 150.639 263.736C150.998 264.126 151.218 264.641 151.248 265.17L151.226 268.021L151.01 267.806L159.83 267.893L159.702 268.021L159.735 265.179C159.772 264.684 159.986 264.208 160.326 263.852C160.669 263.483 161.136 263.307 161.527 263.065C161.938 262.854 162.33 262.547 162.815 262.444C163.29 262.335 163.799 262.394 164.234 262.611L166.69 264.037L166.629 264.053L171.065 256.433L171.069 256.447L168.733 255.089ZM168.733 255.089L171.079 256.43L171.088 256.435L171.082 256.444L166.706 264.098L166.684 264.136L166.645 264.114L164.186 262.71C163.772 262.508 163.29 262.456 162.842 262.562C162.39 262.658 162.021 262.962 161.6 263.19C161.196 263.45 160.754 263.629 160.454 263.97C160.147 264.305 159.961 264.744 159.936 265.193L159.959 268.022L159.96 268.149L159.83 268.15L151.01 268.238L150.798 268.24L150.795 268.022L150.763 265.203C150.731 264.787 150.55 264.388 150.263 264.088C150.122 263.936 149.95 263.813 149.767 263.716L149.142 263.364L148.518 263.01C148.341 262.905 148.149 262.824 147.948 262.783C147.548 262.694 147.123 262.748 146.763 262.931L144.337 264.36L144.056 264.526L143.89 264.241L139.448 256.624L139.264 256.308L139.583 256.122L142.013 254.706C142.332 254.493 142.57 254.164 142.68 253.791C142.738 253.606 142.76 253.409 142.755 253.214L142.735 252.495L142.75 251.777C142.754 251.582 142.73 251.386 142.67 251.202C142.557 250.833 142.318 250.511 142.001 250.305L139.573 248.885L139.236 248.688L139.43 248.354L143.866 240.734L144.046 240.426L144.352 240.604L146.786 242.015C147.137 242.192 147.55 242.242 147.938 242.154C148.133 242.112 148.319 242.034 148.491 241.932L149.115 241.577L149.742 241.223C149.919 241.129 150.085 241.009 150.222 240.862C150.502 240.57 150.676 240.183 150.707 239.78L150.739 236.964L150.742 236.69L151.01 236.693L159.83 236.779L160.017 236.781L160.015 236.964L159.992 239.789C160.016 240.225 160.196 240.651 160.494 240.977C160.782 241.307 161.217 241.485 161.627 241.747C162.054 241.98 162.417 242.277 162.854 242.37C163.288 242.476 163.759 242.428 164.163 242.232L166.63 240.846L166.694 240.81L166.73 240.874L171.102 248.531L171.118 248.56L171.09 248.577L169.216 249.648C168.908 249.833 168.573 249.98 168.324 250.238C168.071 250.49 167.89 250.81 167.795 251.154C167.689 251.499 167.722 251.862 167.727 252.222C167.745 252.582 167.713 252.942 167.711 253.301C167.716 254.017 168.103 254.728 168.733 255.089Z" fill="#EBEBEB"/>
<path d="M155.424 259.719C153.531 259.732 151.648 258.969 150.278 257.643C148.895 256.329 148.041 254.446 147.999 252.498C147.943 250.555 148.691 248.575 150.071 247.148C151.442 245.713 153.422 244.874 155.42 244.875C157.418 244.871 159.4 245.707 160.773 247.142C162.155 248.568 162.901 250.549 162.846 252.493C162.803 254.441 161.952 256.326 160.571 257.641C159.201 258.969 157.318 259.732 155.424 259.719ZM155.424 259.719C157.319 259.719 159.193 258.925 160.491 257.562C161.795 256.206 162.498 254.333 162.443 252.493C162.4 250.648 161.592 248.871 160.284 247.63C158.987 246.378 157.211 245.661 155.42 245.673C153.63 245.663 151.853 246.379 150.555 247.633C149.246 248.874 148.439 250.652 148.397 252.497C148.343 254.337 149.049 256.21 150.356 257.563C151.655 258.926 153.53 259.719 155.424 259.719Z" fill="#EBEBEB"/>
<path d="M24.6104 350.212L68.4576 350.018L112.305 349.946L200 349.813L287.695 349.946L331.542 350.016L375.39 350.212L331.542 350.407L287.695 350.478L200 350.611L112.305 350.477L68.4576 350.406L24.6104 350.212Z" fill="#263238"/>
<path d="M368.219 72.0056H235.582V206.066H368.219V72.0056Z" fill="#EBEBEB"/>
<path d="M296.569 63.9194C300.993 58.729 308.549 57.477 315.895 58.957C323.241 60.437 332.003 64.1386 332.815 76.3946C333.474 86.3449 330.389 96.0514 330.44 107.152C330.49 118.253 343.007 145.305 322.894 158.503C304.828 170.359 268.207 159.472 267.081 135.067C266.188 115.719 289.136 97.8337 291.555 90.1721C293.974 82.5113 291.719 69.609 296.569 63.9194Z" fill="#263238"/>
<path d="M293.266 74.8394C293.126 80.3762 292.331 85.9746 290.032 91.2042C289.465 92.5074 288.661 93.7714 287.753 94.8754C286.86 95.9938 285.916 97.045 284.977 98.093C283.075 100.166 281.191 102.224 279.416 104.363C275.851 108.616 272.746 113.228 270.569 118.271C268.392 123.307 267.225 128.76 267.058 134.303C266.809 131.535 266.932 128.738 267.306 125.967C267.724 123.203 268.456 120.479 269.439 117.842C271.399 112.548 274.576 107.751 278.173 103.399C279.989 101.228 281.923 99.1626 283.837 97.1146C285.757 95.0538 287.703 93.1026 288.896 90.6818C290.15 88.2738 291.002 85.637 291.672 82.9714C292.397 80.3098 292.875 77.5842 293.266 74.8394Z" fill="#263238"/>
<path d="M332.297 84.7554C332.157 90.4034 331.802 96.0402 331.954 101.647C332.059 104.448 332.212 107.243 332.657 109.992C333.072 112.708 333.885 115.431 334.565 118.184C335.238 120.942 335.853 123.727 336.303 126.547C336.707 129.372 336.949 132.235 336.849 135.099C336.703 137.965 336.207 140.815 335.261 143.533C334.187 146.213 332.587 148.659 330.549 150.684C332.313 148.428 333.721 145.971 334.519 143.295C335.284 140.618 335.627 137.851 335.623 135.074C335.537 129.508 334.402 123.997 333.017 118.536C332.373 115.792 331.557 113.068 331.167 110.186C330.801 107.342 330.66 104.488 330.733 101.648C330.837 95.9642 331.502 90.3482 332.297 84.7554Z" fill="#263238"/>
<path d="M303.228 132.244C284.797 152.504 269.818 162.231 255.018 162.231C240.942 162.232 210.877 128.065 208.67 123.557C206.77 119.674 231.45 98.4032 235.244 101.046C241.606 105.478 262.172 131.135 264.345 131.259C266.608 131.379 274.534 126.083 293.837 117.042C305.538 111.561 315.994 118.211 303.228 132.244Z" fill="#EB9481"/>
<path d="M211.503 126.93C208.773 123.985 197.451 109.382 195.209 104.614C192.967 99.8448 187.51 85.6552 190.988 83.568C194.465 81.4808 196.395 85.5072 196.395 85.5072C196.395 85.5072 195.04 79.1504 198.732 77.368C202.424 75.5856 205.22 81.9488 205.22 81.9488C205.22 81.9488 204.305 75.3192 208.114 73.8048C211.924 72.2904 213.664 79.1592 213.664 79.1592C213.664 79.1592 212.544 73.1368 216.208 73.2096C220.615 73.2976 221.425 84.6336 224.295 89.712C224.947 90.8656 239.168 112.147 239.168 112.147L211.503 126.93Z" fill="#EB9481"/>
<path d="M213.502 78.572C214.118 86.9072 215.829 90.4472 220.721 97.0624C220.817 97.1912 220.646 97.3632 220.534 97.2368C215.153 91.1952 212.367 87.064 213.097 78.5808C213.133 78.1664 213.473 78.1752 213.502 78.572Z" fill="#263238"/>
<path d="M205.183 81.2847C206.579 89.8855 208.401 93.7423 213.015 101.047C213.081 101.15 212.913 101.272 212.837 101.173C207.711 94.3847 205.025 90.1999 204.76 81.4223C204.748 81.0263 205.119 80.8919 205.183 81.2847Z" fill="#263238"/>
<path d="M196.641 85.8705C198.593 94.1009 200.409 98.4145 205.8 104.931C205.927 105.085 205.715 105.285 205.573 105.143C199.43 99.0329 197.125 93.6657 196.398 85.9561C196.349 85.4313 196.519 85.3529 196.641 85.8705Z" fill="#263238"/>
<path d="M245.506 114.141C245.506 114.141 245.322 103.67 244.226 99.088C243.13 94.5064 232.762 78.9328 229.271 80.9816C224.764 83.6264 228.978 93.7952 231.694 98.5064C231.694 98.5064 221.262 104.614 222.708 112.567C224.154 120.52 245.506 114.141 245.506 114.141Z" fill="#EB9481"/>
<path d="M228.271 82.1144C225.902 87.4904 229.864 93.4448 232.156 98.2112C232.33 98.5736 232.1 98.8416 231.797 98.92C227.596 101.772 222.5 107.018 222.436 112.378C222.434 112.534 222.211 112.554 222.192 112.395C221.479 106.638 226.066 101.074 230.867 98.2456C228.44 93.3936 224.728 87.248 228.221 82.088C228.24 82.06 228.286 82.08 228.271 82.1144Z" fill="#263238"/>
<path d="M271.475 125.366L286.257 152.952C286.257 152.952 306.306 133.486 309.503 125.366C312.7 117.246 309.256 111.354 294.992 115.7C280.729 120.045 271.475 125.366 271.475 125.366Z" fill="#263238"/>
<path d="M289.675 147.189C288.941 145.694 288.303 144.148 287.545 142.661C286.792 141.182 286.021 139.707 285.231 138.247C283.634 135.3 282.04 132.355 280.365 129.451C279.423 127.816 278.434 126.199 277.404 124.619C277.358 124.549 277.225 124.599 277.262 124.683C279.973 130.753 283.263 136.57 286.543 142.346C287.493 144.019 288.578 145.608 289.568 147.254C289.61 147.325 289.709 147.26 289.675 147.189Z" fill="#263238"/>
<path d="M309.504 125.368C306.304 133.488 286.256 152.952 286.256 152.952L276.296 134.368L309.152 116.2C311.04 118.2 311.016 121.536 309.504 125.368Z" fill="#263238"/>
<path d="M274.842 171.808C274.842 171.808 266.709 191.264 269.586 206.066H359.161C356.249 165.829 336.193 131.253 324.348 120.066C314.789 111.038 304.733 111.845 297.739 116.465C296.085 117.557 277.903 142.689 275.934 146.666C268.168 162.354 274.842 171.808 274.842 171.808Z" fill="#263238"/>
<path d="M298.365 115.28C298.365 115.28 292.745 131.382 296.013 132.223C304.097 134.303 314.937 121.109 315.584 119.771C315.746 119.427 316.461 110.406 316.997 103.391C317.343 98.8787 317.61 95.1963 317.61 95.1963L297.672 102.03L298.313 114.395L298.365 115.28Z" fill="#EB9481"/>
<path d="M297.673 102.029L298.314 114.394C302.371 113.827 311.288 111.622 316.997 103.39C317.343 98.8777 317.61 95.1953 317.61 95.1953L315.11 95.9657L297.673 102.029Z" fill="#263238"/>
<path d="M282.821 84.7289C282.588 91.0065 283.21 96.0873 284.74 99.4601C288.484 107.717 296.296 109.377 299.611 109.497C301.995 109.583 308.921 108.949 313.918 105.143C317.805 102.183 320.15 96.8441 321.48 87.4601C324.518 66.0113 314.708 58.7929 305.034 57.9297C295.36 57.0673 283.628 63.0809 282.821 84.7289Z" fill="#EB9481"/>
<path d="M288.367 79.9401C288.874 79.8753 289.332 79.7305 289.827 79.6137C290.386 79.4825 290.845 79.4353 291.253 78.9969C291.472 78.7617 291.449 78.2905 291.241 78.0561C290.755 77.5105 290.031 77.5017 289.352 77.6321C288.614 77.7737 288.083 78.0721 287.601 78.6457C287.135 79.2033 287.697 80.0257 288.367 79.9401Z" fill="#263238"/>
<path d="M302.503 80.4794C301.996 80.4106 301.54 80.2626 301.045 80.1434C300.486 80.0082 300.029 79.9586 299.623 79.517C299.405 79.2802 299.432 78.809 299.642 78.5762C300.131 78.0338 300.856 78.029 301.534 78.1642C302.27 78.3106 302.801 78.6122 303.277 79.1898C303.739 79.7498 303.172 80.569 302.503 80.4794Z" fill="#263238"/>
<path d="M298.971 85.8856C298.985 85.8304 299.083 85.9608 299.078 86.0216C298.96 87.4928 299.072 89.1968 300.382 89.7504C300.423 89.7672 300.415 89.8416 300.366 89.832C298.75 89.524 298.623 87.26 298.971 85.8856Z" fill="#263238"/>
<path d="M300.36 84.4096C302.739 84.344 302.695 89.1056 300.492 89.1664C298.323 89.2264 298.367 84.4648 300.36 84.4096Z" fill="#263238"/>
<path d="M301.293 84.6704C301.707 84.9432 302.11 85.4225 302.611 85.4769C303.191 85.5393 303.633 85.0448 304.016 84.5688C304.056 84.5192 304.097 84.5616 304.097 84.6248C304.103 85.5376 303.743 86.4697 302.764 86.5969C301.87 86.7129 301.236 85.8992 301.017 84.98C300.976 84.8096 301.127 84.56 301.293 84.6704Z" fill="#263238"/>
<path d="M291.087 85.2655C291.076 85.2087 290.972 85.3351 290.973 85.3959C291.018 86.8703 290.821 88.5679 289.486 89.0559C289.445 89.0711 289.449 89.1447 289.498 89.1383C291.127 88.9111 291.366 86.6551 291.087 85.2655Z" fill="#263238"/>
<path d="M289.773 83.7232C287.401 83.54 287.208 88.2976 289.405 88.4672C291.568 88.6344 291.761 83.8768 289.773 83.7232Z" fill="#263238"/>
<path d="M288.768 83.9961C288.381 84.2329 287.991 84.6761 287.541 84.6873C287.019 84.7001 286.655 84.1705 286.342 83.6633C286.309 83.6113 286.271 83.6496 286.266 83.712C286.205 84.62 286.467 85.58 287.333 85.7896C288.124 85.9816 288.741 85.2248 288.994 84.3272C289.041 84.1616 288.923 83.9009 288.768 83.9961Z" fill="#263238"/>
<path d="M298.822 97.3433C298.481 97.7009 298.147 98.1889 297.613 98.2537C297.102 98.3153 296.493 98.1057 296.016 97.9401C295.969 97.9233 295.923 97.9745 295.955 98.0177C296.358 98.5697 297.177 98.8945 297.855 98.7505C298.518 98.6097 298.827 98.0209 298.967 97.4049C298.986 97.3185 298.872 97.2913 298.822 97.3433Z" fill="#263238"/>
<path d="M292.769 91.8841C292.769 91.8841 292.418 94.0801 292.396 95.1193C292.394 95.2169 292.645 95.2681 292.997 95.2961C293.013 95.3017 293.023 95.3089 293.037 95.2985C294.865 95.6233 296.726 95.0281 297.873 93.5545C297.946 93.4545 297.817 93.3449 297.721 93.4073C296.33 94.3841 294.811 94.6121 293.184 94.6049C293.117 94.3153 293.909 90.8641 293.745 90.8481C293.178 90.7873 292.052 91.1505 291.375 91.3329C291.972 86.7369 293.301 82.2745 293.827 77.6897C293.843 77.5257 293.609 77.4721 293.557 77.6169C291.833 82.1953 291.03 87.4697 290.291 92.1993C290.194 92.7873 292.349 92.0521 292.769 91.8841Z" fill="#263238"/>
<path d="M293.697 94.7528C293.697 94.7528 294.519 96.0624 295.741 96.6064C296.192 96.8088 296.685 96.9128 297.218 96.8136C298.313 96.6144 298.416 95.632 298.285 94.7736C298.179 94.068 297.904 93.4456 297.904 93.4456C297.904 93.4456 296.223 94.792 293.697 94.7528Z" fill="#263238"/>
<path d="M295.741 96.6062C296.192 96.8086 296.685 96.9126 297.218 96.8134C298.313 96.6142 298.416 95.6318 298.285 94.7734C297.125 94.803 295.925 95.4958 295.741 96.6062Z" fill="#FF98B9"/>
<path d="M321.085 85.5368C318.728 85.6112 312.034 79.716 310.815 68.4096C310.815 68.4096 312.612 78.4872 313.512 79.9072C314.412 81.3272 309.768 76.588 308.656 67.4824C308.656 67.4824 303.932 71.5936 299.73 73.196C295.528 74.7976 292.885 74.9976 292.549 74.7136C292.212 74.4296 298.376 71.852 299.912 69.7168C299.912 69.7168 288.927 76.0952 283.676 76.9808C283.068 77.0832 284.093 67.632 291.781 61.5496C299.468 55.4664 310.042 56.9896 313.83 60.0352C313.83 60.0352 317.972 60.244 322.967 65.8864C327.963 71.528 323.624 85.4568 321.085 85.5368Z" fill="#263238"/>
<path d="M317.976 88.9945C317.976 88.9945 322.365 82.0073 325.513 83.5401C328.66 85.0729 325.593 95.0377 322.061 96.5545C318.53 98.0713 317.061 94.8297 317.061 94.8297L317.976 88.9945Z" fill="#EB9481"/>
<path d="M324.563 86.3753C324.62 86.3673 324.636 86.4481 324.587 86.4705C322.115 87.6169 320.902 90.0217 320.092 92.4929C320.796 91.5225 321.792 90.9609 323.087 91.7913C323.155 91.8345 323.097 91.9409 323.025 91.9297C321.981 91.7593 321.244 91.9753 320.587 92.8369C320.121 93.4473 319.82 94.2049 319.5 94.8985C319.392 95.1305 318.98 95.0289 319.052 94.7657C319.058 94.7465 319.065 94.7257 319.07 94.7065C318.848 91.4937 321.125 86.8697 324.563 86.3753Z" fill="#263238"/>
<path d="M331.321 124.455C340.185 134.687 365.034 171.73 359.273 181.738C353.745 191.34 341.212 194.038 333.99 181.147C328.819 171.918 320.069 144.402 317.902 131.208C316.145 120.511 323.126 114.995 331.321 124.455Z" fill="#EB9481"/>
<path d="M323.039 157.252L352.414 146.453C352.414 146.453 335.927 123.89 328.332 119.594C320.737 115.298 314.423 117.888 316.741 132.618C319.058 147.349 323.039 157.252 323.039 157.252Z" fill="#263238"/>
<path d="M347.183 142.267C345.601 142.786 343.981 143.203 342.403 143.746C340.834 144.286 339.266 144.843 337.711 145.423C334.57 146.594 331.431 147.763 328.322 149.017C326.573 149.723 324.834 150.477 323.126 151.278C323.05 151.314 323.081 151.452 323.169 151.427C329.556 149.587 335.774 147.139 341.95 144.695C343.74 143.987 345.465 143.133 347.233 142.382C347.309 142.35 347.258 142.243 347.183 142.267Z" fill="#263238"/>
<path d="M324.694 156.561C324.115 156.666 323.548 156.886 322.991 157.086C322.185 155.35 320.299 147.719 319.858 145.763C318.978 141.854 318.244 137.913 317.334 134.011C317.307 133.9 317.117 133.927 317.132 134.043C317.409 136.207 317.743 138.365 318.122 140.516C317.722 139.49 317.344 138.455 317.006 137.411C316.987 137.354 316.899 137.38 316.916 137.439C317.282 138.749 317.736 140.015 318.259 141.262C318.571 145.252 322.21 157.975 322.314 157.927C322.903 157.656 324.206 157.035 324.746 156.675C324.808 156.632 324.762 156.548 324.694 156.561Z" fill="#263238"/>
<path d="M310.165 81.2551L301.808 116.944C301.446 117.993 301.984 118.831 303.009 118.814L318.969 122.065C319.993 122.048 321.119 121.181 321.481 120.132L329.838 84.4431C330.201 83.3919 329.662 82.5551 328.639 82.5727L312.679 79.3223C311.653 79.3391 310.529 80.2039 310.165 81.2551Z" fill="#A6A6A6"/>
<path d="M311.535 81.4557L303.177 117.145C302.815 118.193 303.353 119.033 304.378 119.015L320.338 122.265C321.362 122.249 322.488 121.381 322.85 120.333L331.208 84.6438C331.57 83.5926 331.032 82.7558 330.008 82.7734L314.048 79.5229C313.023 79.5405 311.897 80.4053 311.535 81.4557Z" fill="#DBDBDB"/>
<path d="M316.59 82.9959C316.585 83.8567 315.884 84.5503 315.024 84.5463C314.163 84.5415 313.469 83.8407 313.473 82.9799C313.478 82.1191 314.179 81.4255 315.04 81.4295C315.901 81.4335 316.594 82.1351 316.59 82.9959Z" fill="#263238"/>
<path d="M338.257 184.376C343.449 194.008 357.194 188.505 359.273 181.737C364.151 165.854 361.125 139.453 358.215 124.714C357.278 119.971 325.054 124.671 325.244 129.837C325.473 136.037 328.077 165.493 338.257 184.376Z" fill="#EB9481"/>
<path d="M357.859 131.757C357.859 131.757 360.589 121.559 358.141 110.466C356.447 102.794 350.901 86.5167 328.612 79.2359C323.325 77.5087 314.567 78.7983 322.177 84.7543C327.583 88.9855 332.289 90.0351 334.985 93.0687C334.985 93.0687 324.04 96.0303 322.517 101.394C321.837 103.791 320.132 110.378 319.536 115.694C319.536 115.694 320.659 116.135 322.162 116.492C322.162 116.492 321.092 123.053 325.244 129.837L357.859 131.757Z" fill="#EB9481"/>
<path d="M355.355 103.403C352.042 100.958 344.934 95.8935 337.679 93.7735C329.62 91.4183 313.46 89.0527 311.783 95.0199C310.553 99.3951 316.643 100.841 316.643 100.841C316.643 100.841 309.757 101.271 309.511 105.466C309.286 109.289 314.064 110.125 314.064 110.125C314.064 110.125 309.932 111.105 310.426 114.829C311.019 119.309 319.58 116.521 324.101 120.54C325.116 121.441 355.355 103.403 355.355 103.403Z" fill="#EB9481"/>
<path d="M336.61 102.703C333.118 100.914 324.144 98.8871 316.767 100.717C316.6 100.758 316.541 100.907 316.702 100.902C325.252 100.612 333.235 101.991 336.588 102.779C336.632 102.79 336.649 102.723 336.61 102.703Z" fill="#263238"/>
<path d="M333.996 110.769C330.824 109.536 321.48 107.86 314.069 109.97C313.904 110.017 313.855 110.17 314.016 110.158C322.936 109.488 330.584 110.26 333.979 110.847C334.024 110.854 334.037 110.785 333.996 110.769Z" fill="#263238"/>
<path d="M335.311 177.686C335.074 176.907 334.837 176.13 334.58 175.357C334.057 173.782 333.597 172.184 333.132 170.591C332.19 167.372 331.284 164.143 330.495 160.883C328.919 154.376 327.71 147.78 326.9 141.134C326.676 139.297 326.491 137.456 326.286 135.618C326.079 133.765 326.02 131.864 325.675 130.033C325.656 129.934 324.739 128.529 324.368 127.832C323.984 127.11 323.659 126.36 323.37 125.594C322.772 124.014 322.368 122.408 322.159 120.728C322.151 120.665 322.062 120.666 322.059 120.73C321.965 122.439 322.181 124.68 322.762 126.296C323.3 127.794 324.054 129.214 325.244 130.309C325.216 130.554 325.292 133.497 325.39 135.17C325.486 136.828 325.639 138.48 325.824 140.13C326.196 143.443 326.664 146.746 327.245 150.029C328.418 156.655 329.962 163.242 332.006 169.655C332.04 169.76 332.077 169.862 332.111 169.966C332.104 170.206 332.095 170.446 332.095 170.687C332.095 171.278 332.165 171.874 332.239 172.459C332.386 173.634 332.712 174.758 333.092 175.876C333.12 175.956 333.241 175.92 333.218 175.838C332.895 174.694 332.774 173.496 332.641 172.318C332.596 171.912 332.544 171.506 332.494 171.101C332.936 172.4 333.396 173.693 333.856 174.987C334.172 175.877 334.508 176.753 334.874 177.623C335.229 178.466 335.528 179.348 335.96 180.154C335.995 180.219 336.088 180.17 336.072 180.103C335.876 179.284 335.556 178.494 335.311 177.686Z" fill="#263238"/>
<path d="M235.582 206.066V184.557L211.145 206.066H235.582Z" fill="#EBEBEB"/>
<path d="M109.979 251.652C117.014 282.286 131.579 319.006 137.794 324.965C145.655 332.503 197.679 346.325 200.274 346.606C206.701 347.255 219.573 301 212.731 300.011C202.314 298.507 164.442 296.447 162.173 294.115C159.818 291.679 143.834 271.522 127.398 248.747C116.053 233.009 105.614 232.645 109.979 251.652Z" fill="#AD6359"/>
<path d="M195.116 344.112C195.882 344.5 206.751 349.967 213.473 351.915C218.487 353.369 233.034 357.166 235.182 351.804C236.653 348.149 228.361 344.909 222.549 342.487C219.487 341.211 215.714 338.007 216.616 336.038C218.194 332.597 226.076 336.053 231.259 339.065C241.283 344.89 254.635 355.373 260.759 350.288C263.071 348.366 260.384 344.865 256.452 341.433C262.832 345.433 269.637 348.715 272.29 346.681C273.813 345.523 273.883 343.933 273.035 342.117C275.005 342.757 276.746 342.632 277.959 341.349C280.034 339.179 279.022 335.975 276.754 332.691C277.481 332.615 278.135 332.245 278.637 331.454C283.029 324.759 261.05 305.535 253.447 303.735C231.082 298.419 207.517 299.408 207.517 299.408C198.734 306.428 195.098 344.097 195.116 344.112Z" fill="#AD6359"/>
<path d="M228.002 323.525C233.269 324.35 238.454 326.32 242.919 329.267C248.589 333.008 252.35 337.389 257.106 341.8C257.231 341.916 257.055 342.113 256.93 341.997C254.662 339.9 245.27 332.018 242.844 330.227C238.397 326.944 233.43 324.639 227.982 323.616C227.924 323.604 227.944 323.516 228.002 323.525Z" fill="#263238"/>
<path d="M232.169 314.035C238.047 315.642 244.07 317.267 249.525 320.047C255.496 323.09 260.168 328.05 264.761 332.823C267.52 335.69 270.219 338.614 272.844 341.603C272.953 341.729 272.786 341.927 272.667 341.801C268.005 336.87 263.198 332.073 258.244 327.436C253.583 323.074 248.385 319.735 242.415 317.461C239.052 316.179 235.597 315.158 232.146 314.139C232.083 314.12 232.104 314.017 232.169 314.035Z" fill="#263238"/>
<path d="M238.449 305.736C244.159 306.909 249.142 307.911 254.198 310.972C260.893 315.023 267.356 321.85 269.623 324.27C272.128 326.943 274.541 329.697 276.912 332.489C277.009 332.603 276.814 332.774 276.714 332.661C271.294 326.557 265.455 320.76 259.292 315.407C256.346 312.85 253.146 310.622 249.551 309.073C245.998 307.542 242.19 306.675 238.441 305.775C238.416 305.769 238.424 305.731 238.449 305.736Z" fill="#263238"/>
<path d="M203.918 297.515L187.918 348.198C187.918 348.198 144.602 335.834 136.686 327.295C128.771 318.757 114.162 274.678 109.864 253.313C105.566 231.948 116.37 232.476 126.299 245.947C136.228 259.418 160.946 292.066 162.328 292.774C163.71 293.485 203.918 297.515 203.918 297.515Z" fill="#263238"/>
<path opacity="0.1" d="M203.918 297.515L187.918 348.198C187.918 348.198 144.602 335.834 136.686 327.295C128.771 318.757 114.162 274.678 109.864 253.313C105.566 231.948 116.37 232.476 126.299 245.947C136.228 259.418 160.946 292.066 162.328 292.774C163.71 293.485 203.918 297.515 203.918 297.515Z" fill="black"/>
<path d="M183.762 325.682C185.7 319.707 187.685 313.745 189.402 307.696C190.377 304.26 191.372 300.827 192.314 297.382C192.35 297.251 192.133 297.172 192.085 297.301C189.902 303.222 187.727 309.165 185.816 315.185C183.914 321.174 181.963 327.148 180.139 333.163C179.102 336.583 178.171 340.022 177.343 343.502C177.326 343.571 177.437 343.612 177.464 343.545C179.846 337.692 181.811 331.7 183.762 325.682Z" fill="#263238"/>
<path d="M166.072 341.232C165.432 341.008 164.792 340.784 164.152 340.56C160.544 339.272 156.864 337.888 153.4 336.472C152.952 336.296 152.512 336.112 152.08 335.928C151.384 335.64 150.688 335.344 150.016 335.048C149.672 334.904 149.344 334.752 149.008 334.608C148.888 334.552 148.768 334.504 148.648 334.448C148.296 334.288 147.952 334.128 147.608 333.968C146.232 333.336 144.928 332.704 143.712 332.064C143.432 331.92 143.144 331.768 142.872 331.616C140.656 330.416 138.816 329.232 137.528 328.104C137.376 327.968 137.224 327.832 137.088 327.696C136.936 327.56 136.808 327.424 136.688 327.296C128.768 318.76 114.16 274.68 109.864 253.312C109.816 253.064 109.768 252.816 109.72 252.576C109.712 252.52 109.704 252.472 109.696 252.416C109.408 250.792 109.152 248.784 108.944 246.608V246.584C108.344 235.952 113.376 234.216 119.592 238.888C135.152 272.168 158.888 327.12 166.072 341.232Z" fill="#263238"/>
<path d="M143.603 349.741L49.1799 350.242C49.2559 348.212 62.6991 288.768 73.3847 266.832C87.0855 238.705 94.1519 236.446 98.3727 234.93C103.771 232.99 113.382 233.954 115.666 235.03C118.254 236.237 126.494 250.626 129.446 261.175C135.373 282.362 144.93 348.45 143.603 349.741Z" fill="#EBEBEB"/>
<path d="M93.5552 237.153C93.5552 237.153 105.533 281.59 106.153 284.542C107.054 288.834 113.039 350.014 113.039 350.014L47.24 350.242C47.24 350.242 61.6296 293.602 72.2912 268.758C83.9528 241.584 93.5552 237.153 93.5552 237.153Z" fill="#263238"/>
<g opacity="0.1">
<path d="M93.5552 237.153C93.5552 237.153 105.533 281.59 106.153 284.542C107.054 288.834 113.039 350.014 113.039 350.014L47.24 350.242C47.24 350.242 61.6296 293.602 72.2912 268.758C83.9528 241.584 93.5552 237.153 93.5552 237.153Z" fill="black"/>
</g>
<path d="M116.55 235.72C116.904 237.138 127.972 273.242 128.739 282.236C129.591 292.222 137.16 350.212 137.16 350.212H146.738C146.738 350.212 132.843 266.854 129.024 258.05C121.241 240.108 116.55 235.72 116.55 235.72Z" fill="#263238"/>
<path opacity="0.1" d="M116.55 235.72C116.904 237.138 127.972 273.242 128.739 282.236C129.591 292.222 137.16 350.212 137.16 350.212H146.738C146.738 350.212 132.843 266.854 129.024 258.05C121.241 240.108 116.55 235.72 116.55 235.72Z" fill="black"/>
<path d="M81.1313 247.541C65.3177 264.478 26.8841 328.734 39.0801 340.453C51.3625 352.255 118.96 336.397 137.972 327.339C143.627 324.645 122.137 289.386 115.49 288.562C109.956 287.877 81.6633 300.819 80.8449 299.191C79.9201 297.352 84.4145 283.774 91.2209 259.194C99.0681 230.852 88.1161 240.06 81.1313 247.541Z" fill="#AD6359"/>
<path d="M143.586 277.182C157.331 275.268 161.154 276.886 171.896 269.11C178.946 264.008 185.229 266.319 181.207 274.427C174.629 287.689 157.414 293.883 150.827 294.312L143.586 277.182Z" fill="#AD6359"/>
<path d="M107.076 290.414C107.076 290.414 122.52 281.838 136.967 278.349C146.956 275.936 169.275 273.11 190.631 295.131C195.695 300.354 199.209 311.39 187.838 305.863C179.761 301.938 175.825 297.008 170.711 295.58C170.711 295.58 173.513 310.147 168.083 315.017C165.655 317.194 158.892 322.978 152.984 326.732C152.984 326.732 151.821 325.665 150.539 324.103C150.539 324.103 145.037 328.174 134.678 327.187L107.076 290.414Z" fill="#AD6359"/>
<path d="M146.868 277.569C151.644 280.06 161.679 285.507 168.337 292.819C175.733 300.941 187.791 318.578 181.739 323.976C177.301 327.934 172.106 321.605 172.106 321.605C172.106 321.605 175.553 329.946 170.763 332.644C166.398 335.103 162.671 329.966 162.671 329.966C162.671 329.966 163.892 335.385 159.232 336.943C153.626 338.818 151.987 327.154 144.667 324.146C143.024 323.47 146.868 277.569 146.868 277.569Z" fill="#AD6359"/>
<path d="M158.452 299.202C162.56 302.28 170.095 311.666 172.179 321.388C172.227 321.608 172.086 321.762 171.999 321.57C167.431 311.354 161.227 302.761 158.375 299.272C158.338 299.225 158.407 299.167 158.452 299.202Z" fill="#263238"/>
<path d="M150.471 306.906C153.743 309.926 161.077 319.947 162.851 329.871C162.891 330.093 162.739 330.238 162.662 330.042C158.328 319.171 153.03 310.624 150.391 306.971C150.355 306.922 150.429 306.866 150.471 306.906Z" fill="#263238"/>
<path d="M170.713 295.489C175.192 296.807 178.106 299.006 181.886 301.63C183.756 302.929 185.651 304.201 187.656 305.285C189.482 306.272 192.172 307.763 194.115 306.218C195.197 305.358 195.181 303.792 194.941 302.558C194.671 301.172 193.301 298.612 192.479 297.462C192.437 297.403 192.538 297.329 192.581 297.387C193.339 298.41 194.832 300.726 195.273 301.925C195.672 303.011 195.983 304.272 195.678 305.421C195.019 307.891 192.107 308.215 190.044 307.536C188.811 307.13 187.642 306.474 186.519 305.83C185.432 305.206 184.377 304.532 183.339 303.831C181.21 302.393 179.166 300.833 177.053 299.37C174.732 297.763 173.129 296.976 170.645 295.638C170.562 295.594 170.624 295.463 170.713 295.489Z" fill="#263238"/>
<path d="M180.093 311.249C178.935 308.694 172.657 298.057 170.621 295.595C170.569 295.532 170.654 295.45 170.713 295.507C174.204 298.817 179.815 307.607 181.123 310.424C182.415 313.207 183.904 316.765 183.904 319.867C183.905 324.547 180.8 325.434 179.653 325.663C178.283 325.936 176.9 325.649 175.67 325.011C174.301 324.302 172.976 322.83 172.059 321.618C172.011 321.554 172.096 321.467 172.151 321.53C173.773 323.374 176.467 325.194 179.011 324.859C180.114 324.714 181.231 324.212 181.905 323.298C182.697 322.222 182.76 320.809 182.653 319.528C182.411 316.629 181.283 313.873 180.093 311.249Z" fill="#263238"/>
<path d="M107.076 290.414L128.739 335.989C128.739 335.989 44.0001 355.022 36.6881 340.271C29.3761 325.521 62.2864 267.788 77.116 250.976C94.3024 231.492 96.4976 238.118 92.7104 255.389C88.7456 273.47 81.0912 299.618 81.0912 299.618L107.076 290.414Z" fill="#263238"/>
<path opacity="0.1" d="M107.076 290.414L128.739 335.989C128.739 335.989 44.0001 355.022 36.6881 340.271C29.3761 325.521 62.2864 267.788 77.116 250.976C94.3024 231.492 96.4976 238.118 92.7104 255.389C88.7456 273.47 81.0912 299.618 81.0912 299.618L107.076 290.414Z" fill="black"/>
<path d="M55.3344 311.752C59.2464 309.008 63.4272 306.641 67.6912 304.493C71.916 302.365 76.3488 300.702 80.8344 299.219C83.3968 298.372 85.9912 297.652 88.5856 296.913C88.6648 296.89 88.696 297.012 88.6176 297.036C84.092 298.453 79.6704 300.274 75.3416 302.203C71.0296 304.124 66.76 306.119 62.5216 308.197C60.124 309.373 57.7832 310.661 55.4272 311.917C55.3184 311.977 55.2352 311.821 55.3344 311.752Z" fill="#263238"/>
<path d="M106.848 290.282C106.422 290.394 83.2488 298.045 82.488 298.399C82.5848 298.05 86.7416 285.727 87.364 283.923C87.4264 283.743 87.4792 283.562 87.54 283.382C87.9624 282.578 88.3896 281.776 88.78 280.954C89.2808 279.902 89.7736 278.845 90.2672 277.789C90.2824 277.757 90.2352 277.73 90.2184 277.762C89.6768 278.792 89.1344 279.821 88.5984 280.854C88.3504 281.333 88.1192 281.818 87.8896 282.304C88.2976 281.03 88.6896 279.751 89.0808 278.468C89.7048 276.421 90.2624 274.362 90.8136 272.294C90.8312 272.227 90.732 272.205 90.7104 272.269C89.4808 275.863 88.1384 279.416 86.8984 283.006C85.6608 286.59 80.8904 299.822 80.9272 299.811C80.9696 299.846 106.451 290.805 106.943 290.599C107.136 290.518 107.058 290.227 106.848 290.282Z" fill="#263238"/>
<path d="M108.412 320.011C106.027 314.925 103.682 309.817 101.108 304.818C99.6456 301.978 98.1984 299.129 96.7088 296.303C96.6528 296.196 96.4624 296.277 96.5096 296.39C98.7008 301.59 100.911 306.801 103.34 311.9C105.757 316.973 108.131 322.067 110.614 327.11C112.026 329.977 113.519 332.792 115.104 335.571C115.135 335.626 115.232 335.585 115.209 335.525C113.19 330.247 110.813 325.133 108.412 320.011Z" fill="#263238"/>
<path d="M129.832 336.702C128.983 335.299 127.912 333.277 127.006 331.91C126.766 331.55 126.488 331.625 126.68 332.003C127.326 333.277 127.861 334.71 128.499 336.016C127.31 336.253 126.115 336.464 124.927 336.713C123.554 337.001 122.181 337.295 120.806 337.578C118.114 338.134 115.418 338.661 112.714 339.16C107.241 340.171 101.746 341.066 96.2352 341.846C85.188 343.406 74.0552 344.567 62.9024 344.974C59.7832 345.089 56.6584 345.142 53.5376 345.099C50.3672 345.055 46.9416 344.989 44.32 344.657C44.2368 344.646 44.2192 344.788 44.3032 344.806C47.0224 345.365 49.5528 345.71 52.3208 345.846C55.1456 345.985 57.9769 346.046 60.8057 346.014C66.4385 345.95 72.0665 345.586 77.6753 345.07C88.7961 344.049 99.8784 342.543 110.875 340.602C113.957 340.058 117.032 339.477 120.1 338.861C121.648 338.55 123.197 338.238 124.738 337.898C126.28 337.558 129.977 336.941 129.832 336.702Z" fill="#263238"/>
<path d="M116.568 252.305C110.963 253.851 100.94 245.569 96.849 238.708C96.5714 238.236 97.121 233.15 97.4954 226.937C97.7082 223.166 97.8562 218.962 97.7146 215.116C97.6818 214.326 122.052 220.087 122.052 220.087C122.052 220.087 119.979 228.236 120.267 234.939C120.297 235.499 120.371 236.019 120.491 236.511C120.502 236.583 120.526 236.67 120.535 236.771C121.135 239.751 121.984 250.808 116.568 252.305Z" fill="#AD6359"/>
<path d="M99.2009 215.162C100.559 221.622 105.183 237.182 118.066 236.999C118.963 236.988 119.783 236.913 120.529 236.774C120.531 236.666 120.502 236.588 120.488 236.511C120.375 236.014 120.294 235.502 120.259 234.945C119.973 228.229 122.052 220.081 122.052 220.081C122.052 220.081 104.471 215.925 99.2009 215.162Z" fill="#263238"/>
<path d="M124.958 203.561C124.691 209.465 128.673 214.442 133.854 214.677C139.034 214.911 143.451 210.314 143.718 204.41C143.985 198.505 140.003 193.529 134.822 193.294C129.641 193.06 125.225 197.657 124.958 203.561Z" fill="#455A64"/>
<path d="M121.901 203.796C121.603 210.365 126.034 215.901 131.798 216.162C137.561 216.423 142.474 211.309 142.771 204.741C143.069 198.172 138.638 192.635 132.875 192.374C127.111 192.113 122.198 197.227 121.901 203.796Z" fill="#C7C7C7"/>
<path d="M100.887 184.469C96.6962 192.374 96.4322 217.507 101.36 224.077C108.505 233.601 122.544 237.097 131.227 227.974C139.644 219.131 139.408 186.371 133.685 180.16C125.256 171.011 107.079 172.789 100.887 184.469Z" fill="#AD6359"/>
<path d="M121.782 203.899C121.767 203.835 121.651 203.983 121.655 204.052C121.746 205.743 121.566 207.696 120.047 208.292C120.001 208.31 120.007 208.395 120.064 208.387C121.927 208.082 122.14 205.487 121.782 203.899Z" fill="#263238"/>
<path d="M120.231 202.166C117.504 202.02 117.413 207.484 119.939 207.619C122.426 207.752 122.516 202.288 120.231 202.166Z" fill="#263238"/>
<path d="M131.255 204.108C131.27 204.043 131.386 204.19 131.383 204.259C131.302 205.951 131.493 207.902 133.014 208.49C133.062 208.508 133.055 208.593 132.999 208.584C131.134 208.29 130.907 205.697 131.255 204.108Z" fill="#263238"/>
<path d="M132.796 202.365C135.522 202.204 135.645 207.667 133.119 207.817C130.634 207.964 130.512 202.5 132.796 202.365Z" fill="#263238"/>
<path d="M117.783 197.802C118.55 197.761 119.25 197.595 120.004 197.477C120.854 197.343 121.546 197.324 122.206 196.714C122.559 196.387 122.578 195.679 122.292 195.305C121.627 194.435 120.545 194.34 119.514 194.459C118.395 194.589 117.567 194.975 116.783 195.781C116.023 196.562 116.773 197.855 117.783 197.802Z" fill="#263238"/>
<path d="M135.37 198.418C134.615 198.282 133.94 198.03 133.207 197.818C132.379 197.579 131.697 197.474 131.119 196.786C130.808 196.418 130.879 195.714 131.209 195.378C131.977 194.598 133.063 194.639 134.071 194.886C135.164 195.154 135.938 195.641 136.615 196.538C137.271 197.407 136.366 198.597 135.37 198.418Z" fill="#263238"/>
<path d="M118.695 219.581C119.094 219.984 119.489 220.536 120.102 220.599C120.69 220.658 121.385 220.404 121.929 220.203C121.983 220.183 122.035 220.241 122 220.291C121.55 220.934 120.619 221.325 119.836 221.175C119.072 221.028 118.704 220.359 118.53 219.655C118.506 219.556 118.635 219.523 118.695 219.581Z" fill="#263238"/>
<path d="M120.558 214.543C121.481 216.027 122.86 216.854 124.362 217.171C125.032 217.318 125.739 217.353 126.434 217.301C126.57 217.3 126.706 217.287 126.83 217.262C126.954 217.249 127.066 217.236 127.202 217.211C127.401 217.185 127.512 217.024 127.549 216.838L127.548 216.826C127.548 216.764 127.548 216.714 127.535 216.652C127.535 216.652 127.535 216.652 127.535 216.639L127.534 216.491C127.592 215.188 127.498 213.203 127.498 213.203C127.97 213.45 130.38 214.582 130.353 213.9C130.11 208.258 129.84 201.983 128.406 196.421C128.369 196.234 128.084 196.273 128.097 196.459C128.116 201.891 129.09 207.283 129.196 212.739C128.426 212.432 127.171 211.866 126.49 211.868C126.304 211.918 126.738 215.699 126.666 216.282C126.666 216.282 126.666 216.307 126.654 216.345C124.46 216.588 122.821 215.899 120.719 214.394C120.594 214.295 120.458 214.407 120.558 214.543Z" fill="#263238"/>
<path d="M125.676 216.627C125.676 216.627 124.494 218.167 122.902 218.703C122.317 218.903 121.687 218.975 121.032 218.789C119.686 218.411 119.673 217.17 119.939 216.113C120.155 215.243 120.572 214.499 120.572 214.499C120.572 214.499 122.514 216.379 125.676 216.627Z" fill="#263238"/>
<path d="M122.902 218.703C122.317 218.903 121.687 218.975 121.032 218.789C119.686 218.411 119.673 217.17 119.939 216.113C121.385 216.285 122.803 217.293 122.902 218.703Z" fill="#FF98B9"/>
<path opacity="0.2" d="M97.7417 202.219C99.3953 201.955 103.337 196.378 105.013 194.16C106.775 191.862 107.654 180.063 107.808 177.374C104.931 179.043 102.498 181.409 100.883 184.465C99.0049 188.002 97.9297 194.981 97.7417 202.219Z" fill="#263238"/>
<path d="M128.251 187.173C126.259 189.33 123.294 190.375 120.393 189.81C117.567 189.26 114.811 187.207 113.879 184.422C113.851 184.339 113.722 184.382 113.75 184.465C114.747 187.444 117.055 189.945 120.253 190.488C123.254 190.997 126.537 189.713 128.408 187.315C128.49 187.209 128.344 187.073 128.251 187.173Z" fill="#263238"/>
<path d="M120.116 165.904C115.185 165.855 110.575 168.439 108.667 171.739C107.507 173.744 107.278 175.81 107.541 177.926C107.552 178.012 107.728 178 107.723 177.914C107.547 174.568 109.315 170.82 112.963 168.605C116.469 166.477 121.049 165.928 124.949 167.55C126.985 168.395 128.613 169.757 129.419 171.377C129.509 171.558 129.882 171.454 129.808 171.269C128.57 168.15 124.579 165.948 120.116 165.904Z" fill="#263238"/>
<path d="M148.397 177.494C147.696 175.043 146.067 172.909 143.952 171.505C140.988 169.538 137.56 169.705 134.159 169.942C134.067 169.948 134.075 170.091 134.167 170.085C137.064 169.893 140.014 169.867 142.627 171.31C144.756 172.486 146.51 174.392 147.403 176.666C149.255 181.386 147.183 187.1 142.679 189.46C140.129 190.797 137.019 191.015 134.311 190.045C134.204 190.006 134.12 190.162 134.228 190.205C139.174 192.126 145.134 190.033 147.56 185.25C148.758 182.89 149.129 180.053 148.397 177.494Z" fill="#263238"/>
<path d="M99.1001 189.31C99.1001 189.31 94.7393 180.329 98.8345 175.368C101.155 172.557 108.495 173.203 108.495 173.203C108.495 173.203 111.019 169.061 117.161 167.888C123.368 166.703 130.555 170.563 130.555 170.563C130.555 170.563 136.522 167.43 141.884 170.758C149.36 175.398 147.982 186.993 140.162 190.452C134.67 192.881 127.517 187.838 127.517 187.838C126.809 187.908 119.435 191.995 114.216 185.359C114.216 185.359 109.639 189.138 105.76 186.231C105.76 186.231 103.599 190.155 99.1001 189.31Z" fill="#263238"/>
<path d="M102.245 205.255C102.245 205.255 98.0976 196.424 94.1832 197.77C90.268 199.117 92.436 211.253 96.3632 213.541C100.29 215.829 102.479 212.236 102.479 212.236L102.245 205.255Z" fill="#AD6359"/>
<path d="M94.8912 201.234C94.8248 201.217 94.7952 201.309 94.8496 201.343C97.5864 203.044 98.664 206.041 99.2592 209.058C98.572 207.818 97.484 207.014 95.8448 207.804C95.7592 207.846 95.812 207.978 95.8976 207.975C97.148 207.926 97.9808 208.285 98.6288 209.391C99.0872 210.174 99.332 211.107 99.608 211.967C99.7008 212.254 100.2 212.196 100.152 211.875C100.148 211.852 100.143 211.826 100.139 211.803C100.863 208.063 98.8544 202.309 94.8912 201.234Z" fill="#263238"/>
<path d="M111.299 222.977L103.414 219.578L97.0784 211.686L98.296 210.708L104.39 218.298L111.917 221.542L111.299 222.977Z" fill="#C7C7C7"/>
<path d="M110.457 221.718C111.227 219.425 117.663 220.27 116.496 223.747C115.326 227.232 109.683 224.022 110.457 221.718Z" fill="#37474F"/>
<path d="M94.0664 197.53C94.0664 197.53 93.2056 184.626 96.9864 177.509C101.195 169.586 118.634 162.043 130.555 170.564C130.555 170.564 111.133 167.091 102.088 178.078C98.2776 182.707 98.3744 197.875 98.3744 197.875L94.0664 197.53Z" fill="#C7C7C7"/>
<path d="M95.8249 216.075C101.594 216.018 106.218 210.641 106.153 204.066C106.088 197.49 101.358 192.205 95.5892 192.263C89.8202 192.32 85.1963 197.697 85.2614 204.272C85.3265 210.848 90.056 216.132 95.8249 216.075Z" fill="#C7C7C7"/>
<path d="M103.106 203.711C103.164 209.621 99.0081 214.455 93.8225 214.506C88.6369 214.557 84.3857 209.807 84.3273 203.897C84.2689 197.987 88.4241 193.154 93.6097 193.102C98.7953 193.051 103.046 197.8 103.106 203.711Z" fill="#455A64"/>
<path d="M120.442 236.383L114.797 250.62L97.0585 232.717L92.0801 238.509C92.0801 238.509 109.48 267 109.583 265.71L115.386 253.434L123.879 261.919L123.098 240.526L120.442 236.383Z" fill="#EBEBEB"/>
<path d="M124.09 251.322C123.843 247.794 123.693 244.235 123.282 240.722C123.268 240.598 123.072 240.543 123.042 240.69C122.35 244.101 123.368 257.586 123.367 260.821C123.355 260.809 123.341 260.796 123.33 260.784C122.976 260.417 115.461 253.32 115.387 253.434C114.126 255.384 109.867 264.323 109.577 265.136C106.826 260.61 95.1513 242.772 91.8993 238.495C91.8057 238.373 91.6153 238.475 91.6881 238.618C94.1225 243.4 109.206 266.941 109.418 266.878C109.564 266.989 114.857 255.978 115.486 253.9C116.759 255.448 124.348 263.461 124.372 262.936C124.53 259.395 124.338 254.854 124.09 251.322Z" fill="#263238"/>
<path d="M314.274 198.94H289.528C284.533 198.94 280.483 194.89 280.483 189.895C280.483 184.9 284.533 180.85 289.528 180.85H314.274C319.269 180.85 323.318 184.9 323.318 189.895C323.318 194.89 319.269 198.94 314.274 198.94Z" fill="#F4A623"/>
<path d="M294.938 189.74C294.942 189.434 295.056 189.169 295.211 188.919C295.28 188.808 295.357 188.701 295.43 188.593L295.905 188.117C296.089 187.985 296.269 187.845 296.458 187.721C297.218 187.216 298.065 186.926 298.953 186.75C301.019 186.341 303.086 186.352 305.152 186.758C306.028 186.93 306.863 187.218 307.614 187.714C307.81 187.844 307.996 187.986 308.186 188.124L308.646 188.582C308.76 188.764 308.892 188.938 308.983 189.13C309.069 189.311 309.111 189.512 309.178 189.721C309.106 189.728 309.072 189.733 309.038 189.733C307.734 189.735 306.429 189.735 305.123 189.739C305.043 189.74 305.004 189.713 304.966 189.645C304.712 189.194 304.33 188.94 303.808 188.907C302.628 188.833 301.448 188.831 300.268 188.909C299.746 188.943 299.366 189.2 299.113 189.652C299.082 189.705 299.057 189.745 298.98 189.745C297.655 189.743 296.33 189.745 295.005 189.746C294.985 189.745 294.965 189.742 294.938 189.74Z" fill="white"/>
<path d="M294.934 192.029C294.934 191.569 294.934 191.109 294.934 190.649C294.934 190.613 294.937 190.578 294.938 190.553C296.276 190.551 297.607 190.55 298.95 190.548C298.946 190.637 298.937 190.739 298.937 190.841C298.936 191.233 298.938 191.626 298.938 192.018C298.937 192.359 298.768 192.528 298.427 192.529C297.43 192.53 296.434 192.531 295.438 192.531C295.104 192.532 294.935 192.363 294.934 192.029Z" fill="white"/>
<path d="M305.148 192.05C305.154 191.547 305.173 191.044 305.186 190.543C306.471 190.542 307.802 190.539 309.141 190.538C309.142 190.561 309.146 190.592 309.146 190.623C309.147 191.091 309.149 191.559 309.149 192.027C309.148 192.345 308.977 192.518 308.66 192.518C307.652 192.52 306.643 192.522 305.635 192.52C305.33 192.521 305.145 192.349 305.148 192.05Z" fill="white"/>
<path d="M212.75 351.197H207.26V354.781H212.75V351.197Z" fill="#455A64"/>
<path d="M219.869 350.96H214.379V354.544H219.869V350.96Z" fill="#455A64"/>
<path d="M226.987 350.723H221.498V354.307H226.987V350.723Z" fill="#455A64"/>
<path d="M234.106 350.487H228.617V354.071H234.106V350.487Z" fill="#455A64"/>
<path d="M241.226 350.25H235.736V353.834H241.226V350.25Z" fill="#455A64"/>
<path d="M248.344 350.013H242.854V353.597H248.344V350.013Z" fill="#455A64"/>
<path d="M255.463 349.776H249.974V353.36H255.463V349.776Z" fill="#455A64"/>
<path d="M262.582 349.539H257.093V353.123H262.582V349.539Z" fill="#455A64"/>
<path d="M269.701 349.302H264.211V352.886H269.701V349.302Z" fill="#455A64"/>
<path d="M271.046 356.843H205.916V352.482L271.046 350.666V356.843Z" fill="#37474F"/>
<path d="M334.613 339.645H227.094L244.193 259.6H351.712L334.613 339.645Z" fill="#455A64"/>
<path d="M338.59 339.645H231.071L248.17 259.6H355.689L338.59 339.645Z" fill="#37474F"/>
<path d="M302.672 294.984C302.09 298.655 298.643 301.632 294.971 301.632C291.3 301.632 288.795 298.656 289.377 294.984C289.958 291.313 293.405 288.336 297.077 288.336C300.749 288.336 303.253 291.313 302.672 294.984Z" fill="#263238"/>
<path d="M308.181 360.55H255.301V356.443L308.181 354.734V360.55Z" fill="#455A64"/>
<path d="M322.559 360.544H294.167L277.068 315.691H305.46L322.559 360.544Z" fill="#455A64"/>
<path d="M327.232 360.544H298.84L281.74 315.691H310.132L327.232 360.544Z" fill="#263238"/>
<path d="M203.906 361.641C203.906 361.641 154.041 361.641 149.386 361.641C144.732 361.641 151.466 348.393 168.446 343.31C185.426 338.227 209.262 356.671 203.906 361.641Z" fill="#37474F"/>
<path d="M182.511 361.641C182.543 360.139 182.816 358.641 183.254 357.195C183.689 355.746 184.315 354.351 185.091 353.042C185.863 351.729 186.855 350.543 187.984 349.527C189.085 348.467 190.454 347.74 191.817 347.143C191.23 347.623 190.566 347.958 190.032 348.482L189.19 349.193L188.417 349.976C187.42 351.043 186.504 352.187 185.774 353.455C185.017 354.703 184.383 356.03 183.842 357.399C183.318 358.773 182.85 360.182 182.511 361.641Z" fill="#263238"/>
<path d="M188.971 349.035C190.593 349.533 192.152 350.207 193.675 350.956C195.199 351.704 196.667 352.573 198.062 353.558C199.445 354.553 200.77 355.665 201.861 357.003C202.399 357.675 202.889 358.391 203.268 359.167C203.622 359.951 203.89 360.789 203.906 361.641C203.71 360.816 203.377 360.046 202.923 359.354C202.492 358.65 201.97 358.006 201.399 357.409C200.249 356.223 198.96 355.167 197.598 354.209C196.249 353.231 194.819 352.361 193.384 351.495C192.665 351.063 191.933 350.651 191.194 350.249C190.464 349.825 189.716 349.44 188.971 349.035Z" fill="#263238"/>
<path d="M207.81 179.912C206.419 193.215 194.5 202.877 181.197 201.486C175.82 200.923 171.041 198.642 167.34 195.233L155.222 197.011L161.285 186.535C159.814 182.956 159.194 178.973 159.623 174.872C161.014 161.569 172.934 151.907 186.237 153.299C199.54 154.69 209.202 166.609 207.81 179.912Z" fill="white"/>
<path d="M207.81 179.912C207.304 184.335 205.687 188.669 202.922 192.191C202.286 193.114 201.468 193.885 200.727 194.719C199.885 195.452 199.099 196.256 198.17 196.883C196.398 198.247 194.408 199.317 192.327 200.136C190.257 201.008 188.028 201.424 185.806 201.691C184.685 201.751 183.563 201.854 182.44 201.755C181.315 201.73 180.195 201.61 179.088 201.407C174.655 200.604 170.458 198.529 167.105 195.49L167.391 195.578L155.285 197.436L154.406 197.571L154.851 196.797L160.879 186.3L160.851 186.715C157.915 179.8 158.576 171.567 162.342 165.125C164.22 161.899 166.838 159.119 169.929 157.047C173.018 154.967 176.599 153.664 180.266 153.167C183.937 152.68 187.714 153.015 191.22 154.179C194.721 155.359 197.931 157.341 200.562 159.907C205.909 164.992 208.597 172.619 207.81 179.912ZM207.81 179.912C208.546 172.612 205.806 165.032 200.456 160.017C197.8 157.509 194.585 155.608 191.115 154.506C187.64 153.418 183.922 153.159 180.342 153.698C176.764 154.247 173.3 155.579 170.338 157.65C167.383 159.725 164.891 162.439 163.091 165.555C161.255 168.664 160.304 172.227 160.016 175.804C159.79 179.393 160.375 183.024 161.721 186.356L161.808 186.573L161.693 186.771L155.594 197.227L155.16 196.587L167.29 194.889L167.457 194.866L167.576 194.978C170.782 197.987 174.84 200.089 179.175 200.952C180.258 201.171 181.356 201.308 182.462 201.351C183.565 201.468 184.67 201.386 185.776 201.347C187.97 201.121 190.181 200.75 192.246 199.922C194.319 199.146 196.322 198.127 198.088 196.773C199.017 196.156 199.802 195.361 200.646 194.637C201.39 193.812 202.21 193.05 202.85 192.135C205.629 188.645 207.274 184.331 207.81 179.912Z" fill="#263238"/>
<path d="M197.221 178.128C197.221 179.747 195.908 181.06 194.289 181.06C192.67 181.06 191.357 179.747 191.357 178.128C191.357 176.509 192.67 175.196 194.289 175.196C195.908 175.196 197.221 176.509 197.221 178.128Z" fill="#F4A623"/>
<path d="M186.713 178.128C186.713 179.747 185.4 181.06 183.781 181.06C182.162 181.06 180.849 179.747 180.849 178.128C180.849 176.509 182.162 175.196 183.781 175.196C185.4 175.196 186.713 176.509 186.713 178.128Z" fill="#F4A623"/>
<path d="M176.204 178.128C176.204 179.747 174.891 181.06 173.272 181.06C171.653 181.06 170.34 179.747 170.34 178.128C170.34 176.509 171.653 175.196 173.272 175.196C174.891 175.196 176.204 176.509 176.204 178.128Z" fill="#F4A623"/>
<path d="M218.071 54.2937C219.463 67.5969 231.382 77.2585 244.685 75.8673C250.062 75.3049 254.841 73.0233 258.542 69.6145L270.66 71.3929L264.597 60.9169C266.068 57.3377 266.688 53.3545 266.259 49.2537C264.867 35.9505 252.948 26.2889 239.645 27.6801C226.341 29.0721 216.679 40.9905 218.071 54.2937Z" fill="white"/>
<path d="M225.321 34.2897C227.951 31.7233 231.162 29.7409 234.663 28.5617C238.168 27.3969 241.945 27.0625 245.616 27.5497C249.283 28.0457 252.865 29.3497 255.954 31.4289C259.044 33.5017 261.663 36.2809 263.54 39.5073C267.307 45.9497 267.968 54.1825 265.032 61.0969L265.004 60.6825L271.031 71.1793L271.476 71.9537L270.598 71.8185L258.491 69.9601L258.778 69.8721C255.425 72.9113 251.227 74.9865 246.795 75.7889C245.687 75.9921 244.567 76.1121 243.443 76.1377C242.32 76.2361 241.198 76.1337 240.077 76.0737C237.855 75.8065 235.627 75.3905 233.555 74.5185C231.475 73.7001 229.484 72.6297 227.712 71.2657C226.783 70.6385 225.998 69.8345 225.156 69.1009C224.415 68.2665 223.596 67.4961 222.961 66.5737C220.195 63.0513 218.579 58.7177 218.072 54.2945C217.284 47.0009 219.973 39.3737 225.321 34.2897ZM223.032 66.5169C223.671 67.4321 224.492 68.1937 225.235 69.0185C226.079 69.7425 226.864 70.5369 227.794 71.1545C229.559 72.5089 231.563 73.5273 233.636 74.3033C235.701 75.1313 237.912 75.5017 240.106 75.7281C241.212 75.7681 242.317 75.8497 243.42 75.7329C244.525 75.6889 245.623 75.5513 246.707 75.3337C251.042 74.4697 255.099 72.3689 258.306 69.3593L258.425 69.2473L258.592 69.2705L270.722 70.9689L270.288 71.6081L264.189 61.1529L264.074 60.9545L264.161 60.7377C265.507 57.4057 266.093 53.7737 265.866 50.1857C265.578 46.6089 264.627 43.0457 262.791 39.9361C260.991 36.8193 258.499 34.1057 255.544 32.0313C252.583 29.9601 249.118 28.6281 245.54 28.0793C241.96 27.5401 238.243 27.7993 234.767 28.8873C231.297 29.9897 228.082 31.8897 225.426 34.3985C220.076 39.4137 217.335 46.9937 218.071 54.2937C218.607 58.7137 220.252 63.0273 223.032 66.5169Z" fill="#214F6F"/>
<path d="M244.321 54.7328V57.7568C244.321 59.0592 243.343 60.036 242.041 60.036C240.831 60.036 239.761 59.0592 239.761 57.7568V52.9184C239.761 52.872 239.808 52.872 239.808 52.8256C239.761 52.7792 239.761 52.7792 239.761 52.7328C239.761 51.5232 240.831 50.4536 242.041 50.4536C244.971 50.4536 247.344 48.128 247.344 45.2432C247.344 42.3128 244.971 40.0328 242.041 40.0328C240.133 40.0328 238.459 41.056 237.575 42.5912C236.924 43.708 235.528 44.08 234.412 43.4288C233.343 42.7776 232.971 41.4288 233.621 40.312C235.295 37.428 238.459 35.4736 242.041 35.4736C247.437 35.4736 251.856 39.8464 251.856 45.2424C251.856 49.848 248.647 53.7096 244.321 54.7328ZM244.321 64.9208V65.7584C244.321 67.0608 243.343 68.0376 242.041 68.0376C240.831 68.0376 239.761 67.0608 239.761 65.7584V64.9208C239.761 63.6648 240.831 62.6416 242.041 62.6416C243.344 62.6408 244.321 63.6648 244.321 64.9208Z" fill="#214F6F"/>
</svg>
