<svg width="48" height="49" viewBox="0 0 48 49" fill="none" xmlns="http://www.w3.org/2000/svg">
<path d="M32.25 12.875C32.25 12.6687 32.0813 12.5 31.875 12.5H13.875C13.6688 12.5 13.5 12.6687 13.5 12.875V15.125C13.5 15.3313 13.6688 15.5 13.875 15.5H31.875C32.0813 15.5 32.25 15.3313 32.25 15.125V12.875ZM31.875 19.25H13.875C13.6688 19.25 13.5 19.4187 13.5 19.625V21.875C13.5 22.0813 13.6688 22.25 13.875 22.25H31.875C32.0813 22.25 32.25 22.0813 32.25 21.875V19.625C32.25 19.4187 32.0813 19.25 31.875 19.25ZM22.5 26H13.875C13.6688 26 13.5 26.1687 13.5 26.375V28.625C13.5 28.8313 13.6688 29 13.875 29H22.5C22.7063 29 22.875 28.8313 22.875 28.625V26.375C22.875 26.1687 22.7063 26 22.5 26ZM20.25 40.4375H9.75V7.4375H36V23.5625C36 23.7688 36.1688 23.9375 36.375 23.9375H39C39.2063 23.9375 39.375 23.7688 39.375 23.5625V5.5625C39.375 4.73281 38.7047 4.0625 37.875 4.0625H7.875C7.04531 4.0625 6.375 4.73281 6.375 5.5625V42.3125C6.375 43.1422 7.04531 43.8125 7.875 43.8125H20.25C20.4563 43.8125 20.625 43.6438 20.625 43.4375V40.8125C20.625 40.6062 20.4563 40.4375 20.25 40.4375ZM36.975 36.95C38.3344 35.7172 39.1875 33.9359 39.1875 31.9531C39.1875 28.2266 36.1641 25.2031 32.4375 25.2031C28.7109 25.2031 25.6875 28.2266 25.6875 31.9531C25.6875 33.9359 26.5406 35.7172 27.9 36.95C25.2281 38.4734 23.3906 41.2953 23.25 44.5484C23.2406 44.7594 23.4141 44.9375 23.625 44.9375H25.8797C26.0766 44.9375 26.2406 44.7828 26.2547 44.5813C26.4375 41.3375 29.1422 38.75 32.4375 38.75C35.7328 38.75 38.4375 41.3375 38.6203 44.5813C38.6297 44.7781 38.7938 44.9375 38.9953 44.9375H41.25C41.4656 44.9375 41.6344 44.7594 41.625 44.5484C41.4891 41.2906 39.6469 38.4734 36.975 36.95ZM32.4375 28.2031C34.5094 28.2031 36.1875 29.8812 36.1875 31.9531C36.1875 34.025 34.5094 35.7031 32.4375 35.7031C30.3656 35.7031 28.6875 34.025 28.6875 31.9531C28.6875 29.8812 30.3656 28.2031 32.4375 28.2031Z" fill="#232323"/>
</svg>
