<svg width="48" height="48" viewBox="0 0 48 48" fill="none" xmlns="http://www.w3.org/2000/svg">
<path d="M38.6344 32.8078C37.4611 31.6336 36.0901 30.6752 34.5844 29.9766C36.7078 28.2562 38.0625 25.6313 38.0625 22.6875C38.0625 17.4938 33.7312 13.2328 28.5375 13.3125C23.4234 13.3922 19.3031 17.5594 19.3031 22.6875C19.3031 25.6313 20.6625 28.2562 22.7812 29.9766C21.2752 30.6747 19.9042 31.6331 18.7312 32.8078C16.1719 35.3719 14.7187 38.7562 14.625 42.3656C14.6237 42.4157 14.6325 42.4654 14.6508 42.512C14.6691 42.5586 14.6965 42.6011 14.7315 42.6369C14.7664 42.6727 14.8082 42.7012 14.8543 42.7206C14.9004 42.74 14.9499 42.75 15 42.75H17.625C17.8266 42.75 17.9953 42.5906 18 42.3891C18.0891 39.6703 19.1906 37.125 21.1266 35.1937C22.1172 34.1978 23.2956 33.4083 24.5934 32.8708C25.8912 32.3333 27.2828 32.0586 28.6875 32.0625C31.5422 32.0625 34.2281 33.1734 36.2484 35.1937C38.1797 37.125 39.2812 39.6703 39.375 42.3891C39.3797 42.5906 39.5484 42.75 39.75 42.75H42.375C42.425 42.75 42.4746 42.74 42.5207 42.7206C42.5668 42.7012 42.6086 42.6727 42.6435 42.6369C42.6785 42.6011 42.7059 42.5586 42.7242 42.512C42.7425 42.4654 42.7512 42.4157 42.75 42.3656C42.6562 38.7562 41.2031 35.3719 38.6344 32.8078ZM28.6875 28.6875C27.0844 28.6875 25.575 28.0641 24.4453 26.9297C23.8784 26.3672 23.4305 25.6963 23.1285 24.957C22.8265 24.2177 22.6765 23.4251 22.6875 22.6266C22.7016 21.0891 23.3156 19.6031 24.3891 18.5016C25.5141 17.3484 27.0187 16.7063 28.6266 16.6875C30.2156 16.6734 31.7578 17.2922 32.8922 18.4031C34.0547 19.5422 34.6922 21.0656 34.6922 22.6875C34.6922 24.2906 34.0687 25.7953 32.9344 26.9297C32.3778 27.4889 31.7159 27.9322 30.987 28.2339C30.258 28.5356 29.4764 28.6898 28.6875 28.6875ZM16.9453 23.925C16.9031 23.5172 16.8797 23.1047 16.8797 22.6875C16.8797 21.9422 16.95 21.2156 17.0812 20.5078C17.1141 20.3391 17.025 20.1656 16.8703 20.0953C16.2328 19.8094 15.6469 19.4156 15.1406 18.9188C14.5441 18.3403 14.0747 17.6439 13.7623 16.874C13.45 16.104 13.3016 15.2774 13.3266 14.4469C13.3687 12.9422 13.9734 11.5125 15.0281 10.4344C16.1859 9.24844 17.7422 8.60156 19.3969 8.62031C20.8922 8.63438 22.3359 9.21094 23.4281 10.2328C23.7984 10.5797 24.1172 10.9641 24.3844 11.3766C24.4781 11.5219 24.6609 11.5828 24.8203 11.5266C25.6453 11.2406 26.5172 11.0391 27.4125 10.9453C27.675 10.9172 27.825 10.6359 27.7078 10.4016C26.1844 7.3875 23.0719 5.30625 19.4719 5.25C14.2734 5.17031 9.94218 9.43125 9.94218 14.6203C9.94218 17.5641 11.2969 20.1891 13.4203 21.9094C11.9297 22.5984 10.5562 23.55 9.36562 24.7406C6.79687 27.3047 5.34375 30.6891 5.25 34.3031C5.24874 34.3532 5.25752 34.4029 5.2758 34.4495C5.29409 34.4961 5.32151 34.5386 5.35646 34.5744C5.39141 34.6102 5.43317 34.6387 5.47929 34.6581C5.52541 34.6775 5.57495 34.6875 5.625 34.6875H8.25468C8.45625 34.6875 8.625 34.5281 8.62968 34.3266C8.71875 31.6078 9.82031 29.0625 11.7562 27.1313C13.1344 25.7531 14.8219 24.7969 16.6641 24.3328C16.8469 24.2859 16.9687 24.1125 16.9453 23.925Z" fill="#263238"/>
</svg>
