<svg width="294" height="546" viewBox="0 0 294 546" fill="none" xmlns="http://www.w3.org/2000/svg">
<path d="M15.1805 545.574C16.0499 546.255 17.307 546.103 17.9884 545.234L29.0915 531.066C29.7729 530.197 29.6204 528.94 28.751 528.258C27.8816 527.577 26.6245 527.729 25.9432 528.599L16.0737 541.192L3.4803 531.323C2.61091 530.641 1.35379 530.794 0.672444 531.663C-0.00889874 532.533 0.143546 533.79 1.01294 534.471L15.1805 545.574ZM215.914 230L216.164 231.984L215.914 230ZM18.3997 543.759C18.245 542.484 18.0967 541.19 17.9551 539.877L13.9782 540.306C14.1216 541.636 14.2719 542.948 14.4288 544.241L18.3997 543.759ZM17.2017 531.948C16.9872 529.351 16.7989 526.695 16.6388 523.985L12.6458 524.221C12.8077 526.961 12.9982 529.648 13.2152 532.277L17.2017 531.948ZM16.2579 516.041C16.1616 513.439 16.0912 510.794 16.0486 508.11L12.0491 508.174C12.0922 510.885 12.1632 513.558 12.2606 516.189L16.2579 516.041ZM16.0043 500.148C16.0167 497.517 16.0557 494.854 16.123 492.161L12.1242 492.061C12.0563 494.781 12.0168 497.471 12.0043 500.129L16.0043 500.148ZM16.4009 484.217C16.5189 481.594 16.6639 478.947 16.8372 476.28L12.8456 476.02C12.6706 478.715 12.5241 481.388 12.405 484.038L16.4009 484.217ZM17.434 468.324C17.6575 465.699 17.9087 463.057 18.1889 460.399L14.211 459.98C13.9279 462.664 13.6742 465.333 13.4485 467.985L17.434 468.324ZM19.1028 452.503C19.4335 449.881 19.7929 447.247 20.1821 444.603L16.2248 444.021C15.8314 446.692 15.4683 449.353 15.1342 452.003L19.1028 452.503ZM21.4236 436.746C21.8632 434.143 22.3324 431.533 22.8322 428.919L18.9033 428.168C18.3981 430.811 17.9238 433.449 17.4795 436.08L21.4236 436.746ZM24.415 421.108C24.9682 418.526 25.5521 415.942 26.1675 413.358L22.2763 412.431C21.6537 415.045 21.0632 417.659 20.5038 420.27L24.415 421.108ZM28.1003 405.641C28.7738 403.081 29.4792 400.522 30.2176 397.968L26.3749 396.857C25.6274 399.443 24.9134 402.033 24.2319 404.624L28.1003 405.641ZM32.5174 390.365C33.3154 387.841 34.1467 385.324 35.0121 382.814L31.2306 381.51C30.3538 384.053 29.5117 386.603 28.7035 389.159L32.5174 390.365ZM37.7019 375.336C38.6305 372.859 39.5936 370.392 40.5923 367.937L36.8871 366.43C35.8743 368.92 34.8977 371.421 33.9565 373.931L37.7019 375.336ZM43.691 360.618C44.7567 358.199 45.8584 355.793 46.997 353.402L43.3857 351.682C42.2298 354.109 41.1117 356.551 40.0304 359.006L43.691 360.618ZM50.52 346.287C51.7297 343.936 52.9769 341.602 54.2626 339.286L50.7657 337.344C49.459 339.697 48.1918 342.069 46.9631 344.457L50.52 346.287ZM58.2259 332.416C59.5841 330.149 60.9814 327.903 62.4185 325.679L59.059 323.508C57.5969 325.77 56.1757 328.055 54.7946 330.361L58.2259 332.416ZM66.8359 319.097C68.3447 316.932 69.8938 314.792 71.484 312.677L68.2869 310.273C66.6674 312.427 65.0902 314.607 63.5543 316.81L66.8359 319.097ZM76.3664 306.427C78.0258 304.382 79.7264 302.365 81.4692 300.377L78.4611 297.74C76.6845 299.767 74.9513 301.823 73.2605 303.906L76.3664 306.427ZM86.81 294.515C88.6191 292.606 90.4702 290.727 92.3643 288.879L89.5713 286.016C87.6392 287.9 85.7511 289.817 83.9063 291.764L86.81 294.515ZM98.1408 283.466C100.097 281.704 102.096 279.976 104.139 278.281L101.585 275.203C99.5008 276.932 97.4608 278.696 95.4645 280.493L98.1408 283.466ZM110.321 273.362C112.415 271.764 114.552 270.2 116.733 268.673L114.438 265.397C112.213 266.955 110.031 268.551 107.894 270.182L110.321 273.362ZM123.285 264.28C125.496 262.862 127.749 261.479 130.046 260.134L128.024 256.683C125.681 258.055 123.381 259.466 121.125 260.913L123.285 264.28ZM136.948 256.274C139.259 255.042 141.612 253.846 144.006 252.688L142.264 249.087C139.823 250.268 137.423 251.488 135.066 252.745L136.948 256.274ZM151.211 249.374C153.605 248.328 156.038 247.319 158.512 246.348L157.05 242.624C154.53 243.614 152.05 244.642 149.61 245.708L151.211 249.374ZM165.966 243.58C168.426 242.718 170.924 241.892 173.46 241.103L172.273 237.283C169.691 238.086 167.148 238.927 164.643 239.805L165.966 243.58ZM181.106 238.871C183.618 238.185 186.167 237.534 188.752 236.919L187.827 233.028C185.199 233.653 182.607 234.314 180.052 235.013L181.106 238.871ZM196.532 235.204C199.087 234.683 201.677 234.197 204.301 233.747L203.624 229.804C200.96 230.262 198.33 230.755 195.733 231.284L196.532 235.204ZM212.159 232.519C213.485 232.332 214.821 232.154 216.164 231.984L215.664 228.016C214.301 228.188 212.946 228.368 211.6 228.558L212.159 232.519ZM216.164 231.984C217.525 231.813 218.881 231.635 220.233 231.452L219.694 227.488C218.355 227.67 217.012 227.846 215.664 228.016L216.164 231.984ZM228.286 230.279C230.973 229.861 233.642 229.419 236.292 228.954L235.6 225.014C232.976 225.475 230.333 225.912 227.671 226.326L228.286 230.279ZM244.305 227.467C246.971 226.945 249.618 226.399 252.245 225.831L251.399 221.921C248.797 222.484 246.177 223.024 243.537 223.541L244.305 227.467ZM260.201 224.026C262.842 223.398 265.464 222.748 268.065 222.075L267.063 218.202C264.488 218.869 261.892 219.513 259.277 220.134L260.201 224.026ZM275.946 219.95C278.56 219.216 281.153 218.46 283.725 217.682L282.566 213.853C280.02 214.624 277.453 215.372 274.865 216.098L275.946 219.95ZM291.513 215.237C294.095 214.397 296.657 213.535 299.196 212.651L297.881 208.874C295.368 209.748 292.832 210.602 290.276 211.433L291.513 215.237ZM306.873 209.89C309.421 208.944 311.946 207.976 314.449 206.987L312.979 203.267C310.502 204.245 308.002 205.203 305.481 206.14L306.873 209.89ZM322 203.912C324.508 202.86 326.994 201.787 329.456 200.694L327.833 197.038C325.396 198.12 322.936 199.182 320.453 200.224L322 203.912ZM336.864 197.313C339.33 196.157 341.772 194.98 344.189 193.784L342.416 190.199C340.023 191.382 337.606 192.547 335.166 193.692L336.864 197.313ZM351.44 190.104C353.859 188.845 356.253 187.566 358.622 186.27L356.702 182.761C354.357 184.044 351.987 185.31 349.593 186.556L351.44 190.104ZM365.702 182.3C368.071 180.939 370.414 179.561 372.73 178.166L370.667 174.739C368.374 176.12 366.055 177.485 363.71 178.831L365.702 182.3ZM379.631 173.914C381.944 172.456 384.231 170.982 386.49 169.492L384.288 166.153C382.051 167.627 379.788 169.087 377.498 170.531L379.631 173.914ZM393.225 164.952C395.47 163.405 397.688 161.843 399.879 160.268L397.543 157.02C395.374 158.58 393.178 160.127 390.955 161.658L393.225 164.952ZM406.438 155.448C408.612 153.816 410.758 152.172 412.875 150.516L410.411 147.365C408.314 149.005 406.19 150.633 404.037 152.249L406.438 155.448ZM419.251 145.424C421.361 143.704 423.442 141.973 425.493 140.232L422.904 137.183C420.873 138.906 418.813 140.621 416.724 142.324L419.251 145.424ZM431.643 134.906C433.691 133.097 435.707 131.279 437.692 129.454L434.984 126.509C433.019 128.317 431.022 130.117 428.995 131.908L431.643 134.906ZM443.604 123.909C445.583 122.016 447.529 120.117 449.442 118.214L446.621 115.378C444.726 117.263 442.799 119.144 440.84 121.018L443.604 123.909ZM455.152 112.419C457.044 110.461 458.901 108.501 460.724 106.538L457.793 103.816C455.988 105.759 454.149 107.701 452.276 109.639L455.152 112.419ZM466.22 100.503C468.043 98.4613 469.829 96.4195 471.579 94.3796L468.543 91.7753C466.81 93.7952 465.042 95.8172 463.236 97.8392L466.22 100.503ZM476.796 88.1743C478.542 86.0562 480.248 83.9422 481.914 81.8345L478.777 79.3535C477.126 81.4403 475.437 83.5334 473.709 85.6307L476.796 88.1743ZM486.904 75.3906C488.561 73.2052 490.176 71.029 491.748 68.8644L488.511 66.5138C486.955 68.6563 485.357 70.8105 483.717 72.9739L486.904 75.3906ZM496.443 62.2563C498.016 59.9911 499.543 57.7416 501.022 55.5107L497.689 53.2999C496.225 55.5068 494.715 57.7325 493.158 59.9741L496.443 62.2563ZM505.455 48.6631C506.932 46.3248 508.355 44.0111 509.726 41.7253L506.295 39.6686C504.94 41.9277 503.533 44.2151 502.073 46.5273L505.455 48.6631ZM513.827 34.6927C515.197 32.2759 516.504 29.8964 517.75 27.5586L514.22 25.6776C512.991 27.9843 511.7 30.3334 510.347 32.7203L513.827 34.6927ZM521.481 20.3145C522.731 17.7999 523.904 15.3432 525 12.9507L521.364 11.2845C520.285 13.6376 519.131 16.0563 517.899 18.5343L521.481 20.3145ZM528.273 5.45868C528.799 4.1925 529.3 2.94865 529.777 1.72827L526.052 0.27173C525.585 1.46597 525.094 2.68447 524.579 3.92612L528.273 5.45868Z" fill="#214F6F"/>
</svg>
