<svg width="48" height="48" viewBox="0 0 48 48" fill="none" xmlns="http://www.w3.org/2000/svg">
<path d="M37.0781 24.9609C37.7188 26.0859 38.1953 27.2578 38.5078 28.4766C38.8203 29.6953 38.9844 30.9531 39 32.25V34.6641L24 42.1875L9 34.6641C9 33.7266 9.00781 32.8516 9.02344 32.0391C9.03906 31.2266 9.10937 30.4375 9.23438 29.6719C9.35938 28.9062 9.54687 28.1406 9.79688 27.375C10.0469 26.6094 10.4219 25.8047 10.9219 24.9609L6 22.5V36.2578C6.45313 36.4141 6.85938 36.6328 7.21875 36.9141C7.57812 37.1953 7.89844 37.5234 8.17969 37.8984C8.46094 38.2734 8.66406 38.6797 8.78906 39.1172C8.91406 39.5547 8.98437 40.0156 9 40.5V48H0V40.5C0 40.0312 0.0703125 39.5781 0.210938 39.1406C0.351562 38.7031 0.554688 38.2891 0.820312 37.8984C1.08594 37.5078 1.39844 37.1797 1.75781 36.9141C2.11719 36.6484 2.53125 36.4297 3 36.2578V21L0 19.5L24 7.5L48 19.5L37.0781 24.9609ZM6 40.5C6 40.0937 5.85156 39.7422 5.55469 39.4453C5.25781 39.1484 4.90625 39 4.5 39C4.09375 39 3.74219 39.1484 3.44531 39.4453C3.14844 39.7422 3 40.0937 3 40.5V45H6V40.5ZM6.70312 19.5L24 28.1484L41.2969 19.5L24 10.8516L6.70312 19.5ZM36 32.8125C36 31.6094 35.8828 30.4922 35.6484 29.4609C35.4141 28.4297 35 27.375 34.4062 26.2969L24 31.5L13.5938 26.2969C13.0781 27.2031 12.6875 28.1562 12.4219 29.1562C12.1563 30.1563 12.0156 31.1875 12 32.25V32.8125L24 38.8125L36 32.8125Z" fill="#263238"/>
</svg>
