<svg width="290" height="370" viewBox="0 0 290 370" fill="none" xmlns="http://www.w3.org/2000/svg">
<g opacity="0.5">
<path d="M188.336 108.143L135.563 87.4696C127.973 84.4963 119.464 88.1017 116.556 95.5225L107.498 118.645C104.591 126.066 108.387 134.492 115.977 137.465L168.75 158.139C176.34 161.112 184.849 157.507 187.756 150.086L196.815 126.964C199.722 119.543 195.926 111.117 188.336 108.143Z" fill="#F4A623"/>
<path d="M162.145 174.999L109.372 154.325C101.782 151.352 93.2729 154.957 90.3658 162.378L81.3076 185.501C78.4005 192.922 82.1966 201.348 89.7864 204.321L142.559 224.995C150.149 227.968 158.659 224.363 161.566 216.942L170.624 193.819C173.531 186.399 169.735 177.972 162.145 174.999Z" fill="#F4A623"/>
<path d="M130.719 255.22L77.9458 234.546C70.356 231.572 61.8465 235.178 58.9394 242.599L49.8812 265.721C46.9741 273.142 50.7702 281.568 58.36 284.541L111.133 305.215C118.723 308.189 127.232 304.583 130.139 297.162L139.198 274.04C142.105 266.619 138.309 258.193 130.719 255.22Z" fill="#F4A623"/>
<path d="M323.78 74.5981L273.279 54.8143C265.689 51.841 257.179 55.4464 254.272 62.8672L245.528 85.1887C242.621 92.6095 246.417 101.036 254.007 104.009L304.508 123.793C312.097 126.766 320.607 123.161 323.514 115.74L332.258 93.4184C335.166 85.9976 331.369 77.5714 323.78 74.5981Z" fill="#F4A623"/>
<path d="M264.74 224.977L214.5 205.295C206.91 202.322 198.401 205.927 195.493 213.348L186.506 236.289C183.599 243.709 187.396 252.135 194.985 255.109L245.226 274.79C252.815 277.764 261.325 274.158 264.232 266.737L273.219 243.797C276.126 236.376 272.33 227.95 264.74 224.977Z" fill="#F4A623"/>
<path d="M227.513 51.1231L218.255 74.7554C215.345 82.1837 206.846 85.7846 199.249 82.8083L148.077 62.7618C138.878 59.1581 135.718 47.9239 141.669 40.3007C147.671 32.6555 155.081 26.5701 164.551 23.0134C172.518 20.0023 183.011 20.081 191.478 22.2639C200.844 24.673 209.883 28.4661 219.369 32.4341C226.746 35.5342 230.366 43.8404 227.513 51.1231Z" fill="#F4A623"/>
<path d="M27.426 327.317C28.8734 318.14 38.4404 312.69 47.267 316.147C64.3614 322.844 81.493 329.555 98.5874 336.252C106.185 339.228 109.976 347.644 107.066 355.072L97.4088 379.724C94.727 386.57 87.1934 390.339 79.958 388.303C41.2372 377.376 22.8652 356.066 27.4118 327.354L27.426 327.317Z" fill="#F4A623"/>
<path d="M300.047 254.265L290.79 277.898C287.879 285.326 291.671 293.741 299.268 296.718L349.956 316.574C358.41 319.886 367.86 315.062 369.64 306.351C373.94 285.397 362.911 263.435 341.571 255.075C334.123 252.158 326.712 249.254 319.04 246.249C311.368 243.243 302.943 246.873 300.033 254.302L300.047 254.265Z" fill="#F4A623"/>
<path d="M340.768 341.452L289.708 321.45C282.118 318.476 273.609 322.082 270.702 329.502L261.558 352.843C258.651 360.264 262.447 368.69 270.037 371.664L321.096 391.666C328.686 394.64 337.196 391.034 340.103 383.613L349.247 360.272C352.154 352.852 348.358 344.425 340.768 341.452Z" fill="#F4A623"/>
<path d="M203.971 380.098L153.731 360.416C146.141 357.443 137.632 361.048 134.725 368.469L125.738 391.41C122.831 398.831 126.627 407.257 134.217 410.23L184.457 429.912C192.047 432.885 200.556 429.279 203.463 421.859L212.45 398.918C215.357 391.497 211.561 383.071 203.971 380.098Z" fill="#F4A623"/>
<path d="M176.336 103.143L123.563 82.4696C115.973 79.4963 107.464 83.1017 104.556 90.5225L95.4982 113.645C92.5911 121.066 96.3872 129.492 103.977 132.465L156.75 153.139C164.34 156.112 172.849 152.507 175.756 145.086L184.815 121.964C187.722 114.543 183.926 106.117 176.336 103.143Z" fill="white"/>
<path d="M150.145 169.999L97.3722 149.325C89.7824 146.352 81.2729 149.957 78.3658 157.378L69.3076 180.501C66.4005 187.922 70.1966 196.348 77.7864 199.321L130.559 219.995C138.149 222.968 146.659 219.363 149.566 211.942L158.624 188.819C161.531 181.399 157.735 172.972 150.145 169.999Z" fill="white"/>
<path d="M118.719 250.22L65.9458 229.546C58.356 226.572 49.8465 230.178 46.9394 237.599L37.8812 260.721C34.9741 268.142 38.7702 276.568 46.36 279.541L99.133 300.215C106.723 303.189 115.232 299.583 118.139 292.162L127.198 269.04C130.105 261.619 126.309 253.193 118.719 250.22Z" fill="white"/>
<path d="M311.78 69.5981L261.279 49.8143C253.689 46.841 245.179 50.4464 242.272 57.8672L233.528 80.1887C230.621 87.6095 234.417 96.0356 242.007 99.0089L292.508 118.793C300.097 121.766 308.607 118.161 311.514 110.74L320.258 88.4184C323.166 80.9976 319.369 72.5714 311.78 69.5981Z" fill="white"/>
<path d="M252.74 219.977L202.5 200.295C194.91 197.322 186.401 200.927 183.493 208.348L174.506 231.289C171.599 238.709 175.396 247.135 182.985 250.109L233.226 269.79C240.815 272.764 249.325 269.158 252.232 261.737L261.219 238.797C264.126 231.376 260.33 222.95 252.74 219.977Z" fill="white"/>
<path d="M215.513 46.1231L206.255 69.7554C203.345 77.1837 194.846 80.7846 187.249 77.8083L136.077 57.7618C126.878 54.1581 123.718 42.9239 129.669 35.3007C135.671 27.6555 143.081 21.5701 152.551 18.0134C160.518 15.0023 171.011 15.081 179.478 17.2639C188.844 19.673 197.883 23.4661 207.369 27.4341C214.746 30.5342 218.366 38.8404 215.513 46.1231Z" fill="white"/>
<path d="M15.426 322.317C16.8734 313.14 26.4404 307.69 35.267 311.147C52.3614 317.844 69.493 324.555 86.5874 331.252C94.1849 334.228 97.9763 342.644 95.0662 350.072L85.4088 374.724C82.727 381.57 75.1934 385.339 67.958 383.303C29.2372 372.376 10.8652 351.066 15.4118 322.354L15.426 322.317Z" fill="white"/>
<path d="M288.047 249.265L278.79 272.898C275.879 280.326 279.671 288.741 287.268 291.718L337.956 311.574C346.41 314.886 355.86 310.062 357.64 301.351C361.94 280.397 350.911 258.435 329.571 250.075C322.123 247.158 314.712 244.254 307.04 241.249C299.368 238.243 290.943 241.873 288.033 249.302L288.047 249.265Z" fill="white"/>
<path d="M328.768 336.452L277.708 316.45C270.118 313.476 261.609 317.082 258.702 324.502L249.558 347.843C246.651 355.264 250.447 363.69 258.037 366.664L309.096 386.666C316.686 389.64 325.196 386.034 328.103 378.613L337.247 355.272C340.154 347.852 336.358 339.425 328.768 336.452Z" fill="white"/>
<path d="M191.971 375.098L141.731 355.416C134.141 352.443 125.632 356.048 122.725 363.469L113.738 386.41C110.831 393.831 114.627 402.257 122.217 405.23L172.457 424.912C180.047 427.885 188.556 424.279 191.463 416.859L200.45 393.918C203.357 386.497 199.561 378.071 191.971 375.098Z" fill="white"/>
</g>
</svg>
