<svg width="1440" height="553" viewBox="0 0 1440 553" fill="none" xmlns="http://www.w3.org/2000/svg">
<g clip-path="url(#clip0_1159_422)">
<path d="M-83 302.766H220.87" stroke="#214F6F" stroke-opacity="0.24"/>
<path d="M-83 255.883H220.87" stroke="#214F6F" stroke-opacity="0.24"/>
<path d="M-83 209H220.87" stroke="#214F6F" stroke-opacity="0.24"/>
<path d="M165.305 209V624" stroke="#214F6F" stroke-opacity="0.24"/>
<path d="M220.87 209V624" stroke="#214F6F" stroke-opacity="0.24"/>
<path d="M114.95 209V624" stroke="#214F6F" stroke-opacity="0.24"/>
<path d="M64.594 209V624" stroke="#214F6F" stroke-opacity="0.24"/>
<path d="M14.2385 209V624" stroke="#214F6F" stroke-opacity="0.24"/>
<path d="M-83 349.648H220.87" stroke="#214F6F" stroke-opacity="0.24"/>
<path d="M-83 395H220.87" stroke="#214F6F" stroke-opacity="0.24"/>
<path d="M-83 439.941H220.87" stroke="#214F6F" stroke-opacity="0.24"/>
<path d="M-83 485.088H220.87" stroke="#214F6F" stroke-opacity="0.24"/>
<path d="M-83 530.234H220.87" stroke="#214F6F" stroke-opacity="0.24"/>
</g>
<g clip-path="url(#clip1_1159_422)">
<path d="M1306 94.7656H1609.87" stroke="#214F6F" stroke-opacity="0.24"/>
<path d="M1306 47.8828H1609.87" stroke="#214F6F" stroke-opacity="0.24"/>
<path d="M1306 1H1609.87" stroke="#214F6F" stroke-opacity="0.24"/>
<path d="M1403.24 1V416" stroke="#214F6F" stroke-opacity="0.24"/>
<path d="M1352.88 1V416" stroke="#214F6F" stroke-opacity="0.24"/>
<path d="M1306 1V416" stroke="#214F6F" stroke-opacity="0.24"/>
<path d="M1306 141.648H1609.87" stroke="#214F6F" stroke-opacity="0.24"/>
<path d="M1306 187H1609.87" stroke="#214F6F" stroke-opacity="0.24"/>
<path d="M1306 231.941H1609.87" stroke="#214F6F" stroke-opacity="0.24"/>
<path d="M1306 277.088H1609.87" stroke="#214F6F" stroke-opacity="0.24"/>
<path d="M1306 322.234H1609.87" stroke="#214F6F" stroke-opacity="0.24"/>
<path d="M1306 367.381H1609.87" stroke="#214F6F" stroke-opacity="0.24"/>
<path d="M1306 416H1609.87" stroke="#214F6F" stroke-opacity="0.24"/>
<path d="M1402.94 251L1405.25 259.295C1407.34 266.765 1413.17 272.598 1420.64 274.686L1428.94 277L1420.64 279.314C1413.17 281.402 1407.34 287.235 1405.25 294.705L1402.94 303L1400.62 294.705C1398.53 287.235 1392.7 281.402 1385.23 279.314L1376.94 277L1385.23 274.686C1392.7 272.598 1398.53 266.765 1400.62 259.295L1402.94 251Z" fill="#F4A623" stroke="#DDEBFF" stroke-width="2" stroke-linecap="round" stroke-linejoin="round"/>
</g>
<defs>
<clipPath id="clip0_1159_422">
<rect width="259" height="417" fill="white" transform="translate(-37 208)"/>
</clipPath>
<clipPath id="clip1_1159_422">
<rect width="149" height="417" fill="white" transform="translate(1305)"/>
</clipPath>
</defs>
</svg>
