<svg width="500" height="500" viewBox="0 0 500 500" fill="none" xmlns="http://www.w3.org/2000/svg">
<path d="M500 382.398H0V382.648H500V382.398Z" fill="#E0E0E0"/>
<path d="M377.667 392.989H343.263V393.239H377.667V392.989Z" fill="#E0E0E0"/>
<path d="M111.04 393.114H91.681V393.364H111.04V393.114Z" fill="#E0E0E0"/>
<path d="M251 392.528H211.761V392.778H251V392.528Z" fill="#E0E0E0"/>
<path d="M210.761 388.972H193.22V389.222H210.761V388.972Z" fill="#E0E0E0"/>
<path d="M424.555 389.097H371.57V389.347H424.555V389.097Z" fill="#E0E0E0"/>
<path d="M237.014 337.8H43.915C40.768 337.8 38.207 335.239 38.207 332.092V60.6599C38.207 57.5129 40.768 54.9519 43.915 54.9519H237.014C240.16 54.9519 242.721 57.5129 242.721 60.6599V332.092C242.721 335.239 240.16 337.8 237.014 337.8ZM43.915 55.2029C40.905 55.2029 38.457 57.6509 38.457 60.6609V332.093C38.457 335.103 40.905 337.551 43.915 337.551H237.014C240.023 337.551 242.471 335.103 242.471 332.093V60.6599C242.471 57.6509 240.023 55.2019 237.014 55.2019L43.915 55.2029Z" fill="#E0E0E0"/>
<path d="M453.31 337.8H260.212C257.066 337.8 254.505 335.239 254.505 332.092V60.6599C254.505 57.5129 257.066 54.9519 260.212 54.9519H453.31C456.458 54.9519 459.018 57.5129 459.018 60.6599V332.092C459.019 335.239 456.458 337.8 453.31 337.8ZM260.212 55.2029C257.203 55.2029 254.755 57.6509 254.755 60.6609V332.093C254.755 335.103 257.203 337.551 260.212 337.551H453.31C456.32 337.551 458.768 335.103 458.768 332.093V60.6599C458.768 57.6509 456.32 55.2019 453.31 55.2019L260.212 55.2029Z" fill="#E0E0E0"/>
<path d="M439.313 257.228C427.007 238.501 438.243 218.365 436.37 197.533C434.497 176.701 414.7 172.153 418.446 154.496C422.789 134.023 411.223 114.367 398.114 114.367C385.005 114.367 373.439 134.023 377.782 154.496C381.527 172.153 361.73 176.701 359.857 197.533C357.984 218.365 369.221 238.5 356.914 257.228C344.608 275.955 347.837 300.761 354.774 313.071C356.685 316.462 358.934 319.465 361.387 322.121C381.068 343.435 415.161 343.435 434.842 322.121C437.294 319.465 439.544 316.463 441.455 313.071C448.39 300.761 451.62 275.955 439.313 257.228Z" fill="#E0E0E0"/>
<path d="M404.333 382.398H391.893V277.664C391.893 274.243 394.692 271.444 398.113 271.444C401.534 271.444 404.333 274.243 404.333 277.664V382.398Z" fill="#F0F0F0"/>
<path d="M319.909 382.398H302.973V277.672C302.973 273.014 306.784 269.204 311.441 269.204C316.099 269.204 319.909 273.015 319.909 277.672V382.398Z" fill="#E0E0E0"/>
<path d="M311.441 354.147C340.253 354.147 363.609 330.791 363.609 301.979C363.609 273.167 340.253 249.811 311.441 249.811C282.629 249.811 259.273 273.167 259.273 301.979C259.273 330.791 282.629 354.147 311.441 354.147Z" fill="#F0F0F0"/>
<path d="M372.745 286.337C375.483 275.319 368.769 264.167 357.75 261.429C346.731 258.692 335.58 265.405 332.842 276.424C330.105 287.443 336.818 298.595 347.837 301.333C358.856 304.07 370.008 297.356 372.745 286.337Z" fill="#F0F0F0"/>
<path d="M281.274 271.161C282.355 264.526 277.852 258.27 271.216 257.189C264.581 256.108 258.325 260.611 257.244 267.246C256.163 273.881 260.666 280.136 267.302 281.217C273.937 282.298 280.193 277.796 281.274 271.161Z" fill="#F0F0F0"/>
<path d="M282.484 271.444C287.202 271.444 291.027 267.619 291.027 262.901C291.027 258.183 287.202 254.358 282.484 254.358C277.766 254.358 273.941 258.183 273.941 262.901C273.941 267.619 277.766 271.444 282.484 271.444Z" fill="#F0F0F0"/>
<path d="M203.97 319.892C195.284 321.183 187.755 324.331 181.254 328.56C181.192 320.645 179.743 313.127 176.023 307.056C170.36 312.575 165.773 319.712 162.068 327.389C160.68 312.956 156.891 298.973 148.5 290.135C135.928 298.043 129.448 311.224 126.366 325.183C121.357 316.238 114.446 307.982 104.903 301.979C97.211 310.081 94.755 321.283 94.959 332.756C86.221 322.583 76.516 314.64 67.057 313.707C64.728 329.822 69.688 345.015 75.991 356.995C84.259 372.708 100.707 382.399 118.463 382.399H159.548C177.059 382.399 193.476 373.056 201.692 357.593C206.895 347.799 209.37 335.186 203.97 319.892Z" fill="#E0E0E0"/>
<path d="M192.256 112.139C197.333 97.2679 193.303 86.6809 180.892 86.6809C173.109 86.6809 163.458 90.8479 154.06 97.6329C152.998 93.7649 150.008 91.4469 145.197 91.4469C136.731 91.4469 125.061 98.6089 115.906 108.714C113.691 106.461 110.485 105.081 106.366 104.859C98.264 104.403 88.45 108.518 79.918 115.212C79.179 114.092 77.912 113.389 76.163 113.285C71.494 113.025 65.174 117.179 62.034 122.557C61.838 122.896 61.665 123.221 61.491 123.547H71.189H78.905H105.708H118.898H129.154H144.951H147.818H187.004H194.72C195.119 118.858 194.29 114.938 192.256 112.139Z" fill="#F0F0F0"/>
<path d="M192.668 202.432C195.148 195.168 193.179 189.996 187.117 189.996C183.315 189.996 178.601 192.032 174.011 195.346C173.493 193.457 172.032 192.325 169.682 192.325C165.546 192.325 159.846 195.823 155.374 200.76C154.292 199.66 152.726 198.985 150.714 198.877C146.756 198.654 141.963 200.665 137.795 203.934C137.434 203.387 136.815 203.043 135.961 202.993C133.68 202.866 130.593 204.895 129.059 207.522C128.963 207.687 128.879 207.846 128.794 208.006H133.531H137.3H150.393H156.836H161.846H169.563H170.963H190.104H193.873C194.066 205.714 193.661 203.799 192.668 202.432Z" fill="#F0F0F0"/>
<path d="M342.767 147.493C342.26 147.419 341.745 147.381 341.223 147.381C341.702 140.125 338.928 135.492 333.003 135.492C328.728 135.492 323.483 137.911 318.136 142.004C319.666 127.92 314.767 118.766 303.674 118.766C294.725 118.766 283.397 124.72 272.207 134.432C271.227 128.906 267.93 125.594 262.39 125.594C252.658 125.594 238.83 135.827 227.742 150.265C227.742 150.265 227.738 150.284 227.728 150.265C225.333 147.046 221.733 145.055 217.002 144.739C207.736 144.088 196.23 149.967 186.029 159.549C185.253 157.93 183.84 156.926 181.819 156.795C176.752 156.441 169.769 161.725 165.713 168.796H177.534H185.548H216.366H230.799H243.651H261.905H296.393H309.836H314.62H333.754H350.922C355.271 158.08 351.807 148.703 342.767 147.493Z" fill="#F0F0F0"/>
<path d="M250 427.561C357.082 427.561 443.889 422.492 443.889 416.238C443.889 409.985 357.082 404.915 250 404.915C142.918 404.915 56.111 409.985 56.111 416.238C56.111 422.492 142.918 427.561 250 427.561Z" fill="#F5F5F5"/>
<path d="M48.856 150.562L276.827 183.377L307.422 214.252L48.856 150.562Z" fill="#F4A623"/>
<path opacity="0.6" d="M48.856 150.562L276.827 183.377L307.422 214.252L48.856 150.562Z" fill="white"/>
<path d="M48.856 150.562L276.827 183.377L266.248 228.022L48.856 150.562Z" fill="#F4A623"/>
<path opacity="0.2" d="M48.856 150.562L276.827 183.377L266.248 228.022L48.856 150.562Z" fill="black"/>
<path d="M261.566 98.8759L274.803 160.903C275.52 164.262 273.358 167.597 269.999 168.314L151.92 193.513C148.561 194.23 145.226 192.068 144.509 188.709L131.272 126.682C130.897 124.926 131.31 123.172 132.268 121.797C133.146 120.551 134.473 119.613 136.076 119.271L254.155 94.0719C255.758 93.7299 257.353 94.0439 258.663 94.8229C260.098 95.6869 261.192 97.1199 261.566 98.8759Z" fill="#F4A623"/>
<path opacity="0.4" d="M261.566 98.8759L274.803 160.903C275.52 164.262 273.358 167.597 269.999 168.314L151.92 193.513C148.561 194.23 145.226 192.068 144.509 188.709L131.272 126.682C130.897 124.926 131.31 123.172 132.268 121.797C133.146 120.551 134.473 119.613 136.076 119.271L254.155 94.0719C255.758 93.7299 257.353 94.0439 258.663 94.8229C260.098 95.6869 261.192 97.1199 261.566 98.8759Z" fill="black"/>
<path d="M258.663 94.823L219.206 143.255C211.671 152.505 198.712 155.27 188.057 149.902L132.267 121.796C133.145 120.55 134.472 119.612 136.075 119.27L254.154 94.071C255.759 93.729 257.353 94.044 258.663 94.823Z" fill="#F4A623"/>
<path d="M48.856 150.562L236.889 195.247L266.248 228.022L48.856 150.562Z" fill="#F4A623"/>
<path opacity="0.6" d="M48.856 150.562L236.889 195.247L266.248 228.022L48.856 150.562Z" fill="white"/>
<path d="M117.442 193.652L116.936 194.516L137.857 206.773L138.363 205.909L117.442 193.652Z" fill="#F4A623"/>
<path d="M147.606 211.319L147.1 212.182L154.626 216.592L155.132 215.728L147.606 211.319Z" fill="#F4A623"/>
<path d="M48.856 150.562L236.889 195.247L200.34 239.303L48.856 150.562Z" fill="#F4A623"/>
<path d="M300.359 255.262C300.115 255.262 299.866 255.216 299.624 255.12L268.99 242.992C267.963 242.586 267.46 241.424 267.867 240.396C268.273 239.37 269.43 238.864 270.463 239.273L301.097 251.401C302.124 251.807 302.627 252.969 302.22 253.997C301.909 254.782 301.156 255.262 300.359 255.262Z" fill="#F4A623"/>
<path opacity="0.3" d="M300.359 255.262C300.115 255.262 299.866 255.216 299.624 255.12L268.99 242.992C267.963 242.586 267.46 241.424 267.867 240.396C268.273 239.37 269.43 238.864 270.463 239.273L301.097 251.401C302.124 251.807 302.627 252.969 302.22 253.997C301.909 254.782 301.156 255.262 300.359 255.262Z" fill="black"/>
<path d="M298.555 237.695C298.311 237.695 298.062 237.65 297.82 237.554L281.368 231.04C280.341 230.634 279.838 229.472 280.245 228.444C280.65 227.418 281.809 226.912 282.841 227.321L299.293 233.835C300.32 234.241 300.823 235.403 300.416 236.431C300.104 237.216 299.352 237.695 298.555 237.695Z" fill="#F4A623"/>
<path opacity="0.5" d="M298.555 237.695C298.311 237.695 298.062 237.65 297.82 237.554L281.368 231.04C280.341 230.634 279.838 229.472 280.245 228.444C280.65 227.418 281.809 226.912 282.841 227.321L299.293 233.835C300.32 234.241 300.823 235.403 300.416 236.431C300.104 237.216 299.352 237.695 298.555 237.695Z" fill="white"/>
<path d="M264.161 254.959C263.917 254.959 263.668 254.913 263.426 254.817L233.557 242.991C232.53 242.585 232.027 241.422 232.434 240.395C232.84 239.368 234.001 238.865 235.03 239.272L264.899 251.098C265.926 251.504 266.429 252.666 266.022 253.694C265.711 254.48 264.958 254.959 264.161 254.959Z" fill="#F4A623"/>
<path opacity="0.3" d="M264.161 254.959C263.917 254.959 263.668 254.913 263.426 254.817L233.557 242.991C232.53 242.585 232.027 241.422 232.434 240.395C232.84 239.368 234.001 238.865 235.03 239.272L264.899 251.098C265.926 251.504 266.429 252.666 266.022 253.694C265.711 254.48 264.958 254.959 264.161 254.959Z" fill="black"/>
<path d="M372.301 164.821C374.949 169.995 377.38 175.17 379.688 180.475C381.979 185.78 384.154 191.14 386.027 196.766L386.711 198.899C386.826 199.278 387.004 199.901 387.097 200.344C387.191 200.806 387.291 201.283 387.345 201.706C387.61 203.448 387.656 205.022 387.686 206.57C387.735 209.654 387.527 212.595 387.27 215.52C386.71 221.361 385.799 227.044 384.547 232.743L379.065 232.135C378.994 226.502 378.941 220.814 378.746 215.265C378.647 212.496 378.489 209.733 378.208 207.128C378.066 205.834 377.857 204.565 377.614 203.503C377.557 203.222 377.482 203.008 377.418 202.776C377.34 202.528 377.305 202.47 377.197 202.173L376.443 200.282C374.354 195.222 372.002 190.117 369.604 185.038L362.345 169.805L372.301 164.821Z" fill="#E4897B"/>
<path d="M379.143 230.42L376.583 235.208L384.759 237.489C384.759 237.489 386.316 233.637 384.462 230.6L379.143 230.42Z" fill="#E4897B"/>
<path d="M373.448 242.111L380.966 242.705L384.76 237.49L376.583 235.208L373.448 242.111Z" fill="#E4897B"/>
<path d="M337.873 130.264C337.755 130.845 337.352 131.253 336.972 131.176C336.592 131.099 336.38 130.566 336.498 129.985C336.616 129.404 337.019 128.996 337.399 129.073C337.779 129.151 337.991 129.684 337.873 130.264Z" fill="#263238"/>
<path d="M337.405 131.264C337.405 131.264 335.404 134.346 333.622 135.666C334.454 136.834 336.29 136.751 336.29 136.751L337.405 131.264Z" fill="#DE5753"/>
<path d="M340.654 127.472C340.56 127.472 340.467 127.434 340.398 127.36C339.357 126.232 338.12 126.416 338.065 126.422C337.881 126.455 337.697 126.325 337.666 126.135C337.635 125.946 337.762 125.767 337.95 125.735C338.016 125.723 339.602 125.472 340.91 126.886C341.04 127.027 341.031 127.247 340.89 127.378C340.823 127.441 340.739 127.472 340.654 127.472Z" fill="#263238"/>
<path d="M354.414 138.432C353.36 143.806 352.309 153.654 356.069 157.24C356.069 157.24 354.6 162.692 344.614 162.692C333.633 162.692 339.366 157.241 339.366 157.241C345.359 155.81 345.204 151.363 344.16 147.188L354.414 138.432Z" fill="#E4897B"/>
<path d="M357.577 160.634C358.37 158 359.243 154.986 357.437 154.042C355.45 153.003 344.575 151.944 340.825 153.894C337.075 155.844 338.139 161.186 338.139 161.186L357.577 160.634Z" fill="#263238"/>
<path d="M380.643 410.021C379.89 410.021 379.163 409.906 378.879 409.536C378.76 409.381 378.664 409.111 378.885 408.71C379 408.5 379.185 408.363 379.431 408.305C380.51 408.057 382.533 409.443 382.619 409.501C382.676 409.54 382.704 409.608 382.691 409.677C382.678 409.744 382.628 409.798 382.561 409.814C382.184 409.903 381.401 410.021 380.643 410.021ZM379.725 408.62C379.649 408.62 379.577 408.627 379.511 408.643C379.363 408.678 379.257 408.755 379.19 408.877C379.033 409.163 379.126 409.284 379.156 409.324C379.47 409.736 380.972 409.743 382.068 409.557C381.435 409.168 380.393 408.62 379.725 408.62Z" fill="#F4A623"/>
<path d="M382.52 409.817C382.492 409.817 382.463 409.81 382.437 409.796C381.677 409.384 380.207 407.775 380.362 406.955C380.39 406.807 380.5 406.55 380.916 406.498C381.18 406.468 381.435 406.54 381.657 406.722C382.511 407.419 382.686 409.539 382.694 409.629C382.699 409.692 382.669 409.754 382.615 409.788C382.586 409.809 382.553 409.817 382.52 409.817ZM381.036 406.84C381.011 406.84 380.984 406.841 380.958 406.845C380.731 406.872 380.712 406.977 380.703 407.021C380.612 407.506 381.548 408.722 382.304 409.294C382.218 408.675 381.984 407.44 381.436 406.992C381.31 406.89 381.18 406.84 381.036 406.84Z" fill="#F4A623"/>
<path d="M336.528 410.022C335.586 410.022 334.676 409.892 334.371 409.468C334.264 409.32 334.18 409.067 334.385 408.707C334.5 408.505 334.687 408.368 334.938 408.3C336.154 407.975 338.728 409.431 338.836 409.493C338.899 409.528 338.933 409.599 338.921 409.672C338.909 409.743 338.855 409.8 338.783 409.815C338.314 409.908 337.407 410.022 336.528 410.022ZM335.364 408.596C335.242 408.596 335.129 408.609 335.028 408.636C334.867 408.68 334.756 408.759 334.687 408.879C334.563 409.096 334.608 409.202 334.653 409.264C334.984 409.723 336.839 409.747 338.217 409.557C337.536 409.207 336.223 408.596 335.364 408.596Z" fill="#F4A623"/>
<path d="M338.749 409.817C338.725 409.817 338.7 409.812 338.678 409.802C337.792 409.405 336.036 407.817 336.169 406.985C336.201 406.79 336.339 406.547 336.817 406.499C337.172 406.465 337.497 406.563 337.782 406.797C338.717 407.565 338.914 409.543 338.922 409.627C338.928 409.688 338.901 409.749 338.851 409.785C338.82 409.807 338.785 409.817 338.749 409.817ZM336.957 406.84C336.923 406.84 336.888 406.842 336.852 406.845C336.539 406.877 336.519 407 336.512 407.041C336.432 407.54 337.625 408.788 338.53 409.331C338.436 408.754 338.174 407.569 337.56 407.065C337.376 406.914 337.178 406.84 336.957 406.84Z" fill="#F4A623"/>
<path d="M346.827 409.644H339.481L338.749 392.632H346.095L346.827 409.644Z" fill="#E4897B"/>
<path d="M390.936 409.644H383.589L379.897 392.632H387.243L390.936 409.644Z" fill="#E4897B"/>
<path d="M383.067 408.793H391.32C391.62 408.793 391.88 409.002 391.946 409.295L393.397 415.825C393.548 416.502 393.015 417.143 392.321 417.131C389.44 417.082 388.04 416.912 384.41 416.912C382.177 416.912 377.577 417.144 374.493 417.144C371.477 417.144 371.007 414.095 372.269 413.819C377.929 412.581 380.062 410.873 381.874 409.244C382.201 408.951 382.628 408.793 383.067 408.793Z" fill="#263238"/>
<path d="M339.529 408.793H347.552C347.852 408.793 348.112 409.002 348.178 409.295L349.629 415.825C349.779 416.502 349.265 417.143 348.572 417.132C345.678 417.083 341.496 416.913 337.859 416.913C333.606 416.913 329.933 417.145 324.945 417.145C321.929 417.145 321.092 414.096 322.355 413.82C328.102 412.563 332.794 412.428 337.761 409.366C338.299 409.033 338.895 408.793 339.529 408.793Z" fill="#263238"/>
<path d="M335.982 170.144C329.753 169.657 323.765 168.851 317.675 167.71C314.644 167.128 311.607 166.477 308.572 165.66C305.532 164.845 302.487 163.921 299.409 162.636C298.64 162.32 297.863 161.965 297.087 161.596C296.114 161.115 295.305 160.615 294.593 160.141C293.148 159.187 291.912 158.203 290.681 157.222C288.235 155.263 285.958 153.227 283.712 151.169C279.24 147.033 274.997 142.752 270.911 138.248L274.59 134.138L289.099 144.565C291.494 146.292 293.911 147.978 296.289 149.569C297.474 150.356 298.685 151.103 299.787 151.725C300.346 152.042 300.843 152.279 301.227 152.431C301.822 152.664 302.424 152.894 303.056 153.105C308.135 154.799 313.878 155.887 319.582 156.806C325.293 157.71 331.193 158.454 336.892 159.045L335.982 170.144Z" fill="#E4897B"/>
<path d="M369.223 158.901C376.108 160.48 383.07 180.611 383.07 180.611L368.897 190.777C368.897 190.777 364.938 181.401 361.043 173.201C356.961 164.609 362.183 157.287 369.223 158.901Z" fill="#F4A623"/>
<path opacity="0.4" d="M369.223 158.901C376.108 160.48 383.07 180.611 383.07 180.611L368.897 190.777C368.897 190.777 364.938 181.401 361.043 173.201C356.961 164.609 362.183 157.287 369.223 158.901Z" fill="black"/>
<path d="M365.25 169.9L362.44 176.19C365.35 182.47 368.01 188.69 368.72 190.35C368.62 182.92 367.21 173.7 365.25 169.9Z" fill="#F4A623"/>
<path opacity="0.6" d="M365.25 169.9L362.44 176.19C365.35 182.47 368.01 188.69 368.72 190.35C368.62 182.92 367.21 173.7 365.25 169.9Z" fill="black"/>
<path d="M328.066 159.279C328.066 159.279 320.247 168.111 327.631 222.776C339.47 222.776 361.163 222.776 366.924 222.776C367.195 216.744 363.405 187.32 369.222 158.9C369.222 158.9 362.487 157.548 356.068 157.239C351.047 156.997 343.779 156.837 339.365 157.24C333.547 157.771 328.066 159.279 328.066 159.279Z" fill="#F4A623"/>
<path opacity="0.4" d="M328.066 159.279C328.066 159.279 320.247 168.111 327.631 222.776C339.47 222.776 361.163 222.776 366.924 222.776C367.195 216.744 363.405 187.32 369.222 158.9C369.222 158.9 362.487 157.548 356.068 157.239C351.047 156.997 343.779 156.837 339.365 157.24C333.547 157.771 328.066 159.279 328.066 159.279Z" fill="black"/>
<path d="M325.16 169.9C324.9 171.97 324.7 174.42 324.57 177.31C327.82 176.3 331.86 174.68 335.51 172.17L325.16 169.9Z" fill="#F4A623"/>
<path opacity="0.6" d="M325.16 169.9C324.9 171.97 324.7 174.42 324.57 177.31C327.82 176.3 331.86 174.68 335.51 172.17L325.16 169.9Z" fill="black"/>
<path d="M341.968 170.972C336.711 175.63 316.629 175.164 316.629 175.164L315.967 155.75C315.967 155.75 327.352 157.419 336.436 157.234C347.658 157.007 347.737 165.86 341.968 170.972Z" fill="#F4A623"/>
<path opacity="0.4" d="M341.968 170.972C336.711 175.63 316.629 175.164 316.629 175.164L315.967 155.75C315.967 155.75 327.352 157.419 336.436 157.234C347.658 157.007 347.737 165.86 341.968 170.972Z" fill="black"/>
<path d="M274.769 134.238L269.726 128.351L264.343 134.313C264.343 134.313 267.657 139.888 272.935 139.008L274.769 134.238Z" fill="#E4897B"/>
<path d="M262.607 121.485L260.667 129.167L264.343 134.314L269.726 128.351L262.607 121.485Z" fill="#E4897B"/>
<path d="M338.751 392.636L339.127 401.405H346.476L346.1 392.636H338.751Z" fill="#CE6F64"/>
<path d="M387.246 392.636H379.896L381.803 401.405H389.153L387.246 392.636Z" fill="#CE6F64"/>
<path d="M343.173 122.962C336.583 119.917 334.5 106.625 353.458 109.917C353.458 109.917 350.601 113.084 356.405 115.084C362.208 117.083 357.35 129.514 343.173 122.962Z" fill="#263238"/>
<path d="M357.491 132.97C355.604 140.012 354.857 144.23 350.511 147.159C343.974 151.564 335.835 146.509 335.58 139.044C335.351 132.325 338.476 121.937 346.033 120.518C353.479 119.12 359.379 125.928 357.491 132.97Z" fill="#E4897B"/>
<path d="M353.2 113.495C357.686 116.004 363.768 117.5 363.157 121.057C362.41 125.405 366.834 122.685 365.804 129.163C365.131 133.393 357.329 146.211 351.837 145.585C343.581 144.644 344.627 132.033 344.6 125.406C344.583 121.5 344.4 108.574 353.2 113.495Z" fill="#263238"/>
<path d="M343.61 119.111C341.61 119.583 338.959 131.111 346.706 132.167C355.623 133.382 343.61 119.111 343.61 119.111Z" fill="#263238"/>
<path d="M343.813 123.203C341.362 123.419 335.834 120.469 336.494 116.032C336.494 116.032 340.016 121.224 343.813 123.203Z" fill="#263238"/>
<path d="M347.446 133.088C346.679 134.837 345.227 136.213 343.822 136.945C341.708 138.045 340.521 136.436 340.999 134.322C341.429 132.419 343.048 129.553 345.221 129.318C347.364 129.086 348.323 131.088 347.446 133.088Z" fill="#E4897B"/>
<path d="M358.446 124.949C359.93 124.194 363.31 122.482 364.231 117.625C364.231 117.625 367.532 126.84 358.446 124.949Z" fill="#263238"/>
<path d="M366.793 124.852C366.052 124.418 364.37 123.429 362.007 124.38C362.007 124.38 365.086 120.385 366.793 124.852Z" fill="#263238"/>
<path d="M341.57 222.777C341.57 222.777 349.907 278.919 354.484 299.952C359.496 322.985 378.379 399.707 378.379 399.707H391.834C391.834 399.707 379.383 324.844 376.523 302.04C373.419 277.29 366.924 222.777 366.924 222.777H341.57Z" fill="#F4A623"/>
<path opacity="0.5" d="M341.57 222.777C341.57 222.777 349.907 278.919 354.484 299.952C359.496 322.985 378.379 399.707 378.379 399.707H391.834C391.834 399.707 379.383 324.844 376.523 302.04C373.419 277.29 366.924 222.777 366.924 222.777H341.57Z" fill="white"/>
<path d="M376.23 394.75C376.173 394.75 377.619 399.917 377.619 399.917H392.757L392.479 395.306L376.23 394.75Z" fill="#F4A623"/>
<path opacity="0.1" d="M376.23 394.75C376.173 394.75 377.619 399.917 377.619 399.917H392.757L392.479 395.306L376.23 394.75Z" fill="black"/>
<path d="M346.839 242.78C356.479 244.67 355.459 280.62 354.299 299.11C351.519 286.04 347.449 260.89 344.669 243.04C345.309 242.72 346.029 242.62 346.839 242.78Z" fill="#F4A623"/>
<path opacity="0.4" d="M346.839 242.78C356.479 244.67 355.459 280.62 354.299 299.11C351.519 286.04 347.449 260.89 344.669 243.04C345.309 242.72 346.029 242.62 346.839 242.78Z" fill="white"/>
<path d="M327.632 222.777C327.632 222.777 326.62 277.704 327.419 300.107C328.25 323.409 336.389 399.708 336.389 399.708H348.834C348.834 399.708 349.291 324.771 349.844 301.886C350.448 276.937 353.46 222.778 353.46 222.778H327.632V222.777Z" fill="#F4A623"/>
<path opacity="0.5" d="M327.632 222.777C327.632 222.777 326.62 277.704 327.419 300.107C328.25 323.409 336.389 399.708 336.389 399.708H348.834C348.834 399.708 349.291 324.771 349.844 301.886C350.448 276.937 353.46 222.778 353.46 222.778H327.632V222.777Z" fill="white"/>
<path d="M338.981 390.768C338.918 390.768 338.864 390.72 338.857 390.656C336.664 369.539 331.491 318.443 330.836 300.112C330.169 281.401 330.775 239.422 330.977 227.001C330.978 226.933 331.034 226.878 331.102 226.878H331.104C331.173 226.879 331.228 226.936 331.227 227.005C331.025 239.424 330.419 281.398 331.086 300.102C331.74 318.426 336.911 369.515 339.105 390.63C339.113 390.698 339.063 390.76 338.994 390.767C338.99 390.768 338.985 390.768 338.981 390.768Z" fill="#F4A623"/>
<path opacity="0.4" d="M338.981 390.768C338.918 390.768 338.864 390.72 338.857 390.656C336.664 369.539 331.491 318.443 330.836 300.112C330.169 281.401 330.775 239.422 330.977 227.001C330.978 226.933 331.034 226.878 331.102 226.878H331.104C331.173 226.879 331.228 226.936 331.227 227.005C331.025 239.424 330.419 281.398 331.086 300.102C331.74 318.426 336.911 369.515 339.105 390.63C339.113 390.698 339.063 390.76 338.994 390.767C338.99 390.768 338.985 390.768 338.981 390.768Z" fill="white"/>
<path d="M333.994 394.75C333.937 394.75 334.696 399.917 334.696 399.917H349.835L350.244 395.306L333.994 394.75Z" fill="#F4A623"/>
<path opacity="0.1" d="M333.994 394.75C333.937 394.75 334.696 399.917 334.696 399.917H349.835L350.244 395.306L333.994 394.75Z" fill="black"/>
</svg>
